{"glyphs":{"0":{"ha":851,"x_min":0,"x_max":0,"o":"m 426 -15 b 767 462 635 -15 767 169 b 426 938 767 756 635 938 b 85 462 216 938 85 756 b 426 -15 85 169 217 -15 z m 426 27 b 129 462 243 27 129 193 b 426 896 129 731 243 896 b 723 462 609 896 723 731 b 426 27 723 193 609 27 z "},"1":{"ha":429,"x_min":0,"x_max":0,"o":"m 33 924 l 33 883 l 238 883 l 238 0 l 281 0 l 281 924 z "},"2":{"ha":703,"x_min":0,"x_max":0,"o":"m 132 42 b 602 693 552 461 602 553 b 344 938 602 839 497 938 b 79 692 191 938 79 840 l 79 667 l 123 667 l 123 692 b 344 896 123 812 213 896 b 558 693 473 896 558 814 b 54 24 558 558 509 475 l 54 0 l 652 0 l 652 42 z "},"3":{"ha":715,"x_min":0,"x_max":0,"o":"m 346 564 l 325 564 l 609 907 l 609 925 l 96 925 l 96 884 l 541 884 l 259 542 l 259 526 l 336 526 b 600 278 486 526 600 418 b 351 27 600 135 493 27 b 103 252 214 27 114 119 l 60 252 b 351 -15 71 97 190 -15 b 643 277 514 -15 643 107 b 346 564 643 435 518 561 z "},"4":{"ha":725,"x_min":0,"x_max":0,"o":"m 686 250 l 570 250 l 570 592 l 527 592 l 527 250 l 85 250 l 418 929 l 373 929 l 28 229 l 28 210 l 527 210 l 527 0 l 570 0 l 570 210 l 686 210 z "},"5":{"ha":711,"x_min":0,"x_max":0,"o":"m 341 565 l 157 565 l 192 884 l 586 884 l 586 925 l 155 925 l 113 536 l 123 525 l 340 525 b 603 277 489 525 603 416 b 355 27 603 134 497 27 b 106 252 217 27 117 120 l 63 252 b 355 -15 74 97 193 -15 b 647 277 517 -15 647 107 b 341 565 647 437 518 565 z "},"6":{"ha":747,"x_min":0,"x_max":0,"o":"m 391 575 b 170 486 305 575 224 542 b 410 936 197 552 222 597 l 363 936 l 176 602 b 74 282 112 486 74 367 b 386 -15 74 111 206 -15 b 699 282 567 -15 699 110 b 391 575 699 452 563 575 z m 386 27 b 117 282 232 27 117 136 b 386 536 117 429 232 536 b 655 282 540 536 655 429 b 386 27 655 136 540 27 z "},"7":{"ha":663,"x_min":0,"x_max":0,"o":"m 34 925 l 34 884 l 570 884 l 205 0 l 254 0 l 627 910 l 627 925 z "},"8":{"ha":779,"x_min":0,"x_max":0,"o":"m 509 499 b 658 712 600 531 658 611 b 390 938 658 847 549 938 b 121 712 230 938 121 846 b 271 499 121 611 179 532 b 80 250 154 465 80 372 b 390 -15 80 92 205 -15 b 700 250 573 -15 700 93 b 509 499 700 373 626 466 z m 164 712 b 390 899 164 823 254 899 b 615 712 525 899 615 823 b 390 517 615 591 519 517 b 164 712 260 517 164 591 z m 390 25 b 124 249 230 25 124 116 b 390 478 124 393 236 478 b 656 249 543 478 656 393 b 390 25 656 116 549 25 z "},"9":{"ha":746,"x_min":0,"x_max":0,"o":"m 360 938 b 48 641 180 938 48 814 b 356 349 48 475 180 349 b 576 437 442 349 523 382 b 336 -10 549 371 523 326 l 383 -10 l 570 321 b 672 641 635 437 672 557 b 360 938 672 813 540 938 z m 360 388 b 92 641 206 388 92 495 b 360 896 92 788 206 896 b 628 641 514 896 628 788 b 360 388 628 495 514 388 z "},"A":{"ha":944,"x_min":0,"x_max":0,"o":"m 861 0 l 910 0 l 486 972 l 447 972 l 35 0 l 83 0 l 203 282 l 739 282 z m 468 906 l 720 324 l 221 324 z "},"Á":{"ha":944,"x_min":0,"x_max":0,"o":"m 660 1089 b 724 1151 697 1089 724 1116 b 660 1213 724 1187 697 1213 b 597 1151 624 1213 597 1187 b 660 1089 597 1116 624 1089 z m 323 1151 b 263 1211 323 1186 298 1211 l 216 1211 l 216 1092 l 263 1092 b 323 1151 298 1092 323 1117 z m 417 1118 l 371 1118 l 371 1139 l 411 1139 l 411 1164 l 371 1164 l 371 1185 l 415 1185 l 415 1211 l 343 1211 l 343 1092 l 417 1092 z m 471 1166 l 505 1091 l 512 1091 l 546 1166 l 557 1092 l 586 1092 l 567 1211 l 539 1211 l 508 1141 l 478 1211 l 449 1211 l 431 1092 l 460 1092 z m 660 1187 b 695 1151 680 1187 695 1172 b 660 1115 695 1131 680 1115 b 625 1151 640 1115 625 1131 b 660 1187 625 1171 640 1187 z m 245 1118 l 245 1185 l 262 1185 b 294 1151 281 1185 294 1171 b 262 1118 294 1132 281 1118 z m 861 0 l 910 0 l 486 972 l 447 972 l 35 0 l 83 0 l 203 282 l 739 282 z m 468 906 l 720 324 l 221 324 z "},"Ă":{"ha":944,"x_min":0,"x_max":0,"o":"m 660 1089 b 724 1151 697 1089 724 1116 b 660 1213 724 1187 697 1213 b 597 1151 624 1213 597 1187 b 660 1089 597 1116 624 1089 z m 323 1151 b 263 1211 323 1186 298 1211 l 216 1211 l 216 1092 l 263 1092 b 323 1151 298 1092 323 1117 z m 417 1118 l 371 1118 l 371 1139 l 411 1139 l 411 1164 l 371 1164 l 371 1185 l 415 1185 l 415 1211 l 343 1211 l 343 1092 l 417 1092 z m 471 1166 l 505 1091 l 512 1091 l 546 1166 l 557 1092 l 586 1092 l 567 1211 l 539 1211 l 508 1141 l 478 1211 l 449 1211 l 431 1092 l 460 1092 z m 660 1187 b 695 1151 680 1187 695 1172 b 660 1115 695 1131 680 1115 b 625 1151 640 1115 625 1131 b 660 1187 625 1171 640 1187 z m 245 1118 l 245 1185 l 262 1185 b 294 1151 281 1185 294 1171 b 262 1118 294 1132 281 1118 z m 861 0 l 910 0 l 486 972 l 447 972 l 35 0 l 83 0 l 203 282 l 739 282 z m 468 906 l 720 324 l 221 324 z "},"Â":{"ha":944,"x_min":0,"x_max":0,"o":"m 660 1089 b 724 1151 697 1089 724 1116 b 660 1213 724 1187 697 1213 b 597 1151 624 1213 597 1187 b 660 1089 597 1116 624 1089 z m 323 1151 b 263 1211 323 1186 298 1211 l 216 1211 l 216 1092 l 263 1092 b 323 1151 298 1092 323 1117 z m 417 1118 l 371 1118 l 371 1139 l 411 1139 l 411 1164 l 371 1164 l 371 1185 l 415 1185 l 415 1211 l 343 1211 l 343 1092 l 417 1092 z m 471 1166 l 505 1091 l 512 1091 l 546 1166 l 557 1092 l 586 1092 l 567 1211 l 539 1211 l 508 1141 l 478 1211 l 449 1211 l 431 1092 l 460 1092 z m 660 1187 b 695 1151 680 1187 695 1172 b 660 1115 695 1131 680 1115 b 625 1151 640 1115 625 1131 b 660 1187 625 1171 640 1187 z m 245 1118 l 245 1185 l 262 1185 b 294 1151 281 1185 294 1171 b 262 1118 294 1132 281 1118 z m 861 0 l 910 0 l 486 972 l 447 972 l 35 0 l 83 0 l 203 282 l 739 282 z m 468 906 l 720 324 l 221 324 z "},"Ä":{"ha":944,"x_min":0,"x_max":0,"o":"m 660 1089 b 724 1151 697 1089 724 1116 b 660 1213 724 1187 697 1213 b 597 1151 624 1213 597 1187 b 660 1089 597 1116 624 1089 z m 323 1151 b 263 1211 323 1186 298 1211 l 216 1211 l 216 1092 l 263 1092 b 323 1151 298 1092 323 1117 z m 417 1118 l 371 1118 l 371 1139 l 411 1139 l 411 1164 l 371 1164 l 371 1185 l 415 1185 l 415 1211 l 343 1211 l 343 1092 l 417 1092 z m 471 1166 l 505 1091 l 512 1091 l 546 1166 l 557 1092 l 586 1092 l 567 1211 l 539 1211 l 508 1141 l 478 1211 l 449 1211 l 431 1092 l 460 1092 z m 660 1187 b 695 1151 680 1187 695 1172 b 660 1115 695 1131 680 1115 b 625 1151 640 1115 625 1131 b 660 1187 625 1171 640 1187 z m 245 1118 l 245 1185 l 262 1185 b 294 1151 281 1185 294 1171 b 262 1118 294 1132 281 1118 z m 861 0 l 910 0 l 486 972 l 447 972 l 35 0 l 83 0 l 203 282 l 739 282 z m 468 906 l 720 324 l 221 324 z "},"À":{"ha":944,"x_min":0,"x_max":0,"o":"m 660 1089 b 724 1151 697 1089 724 1116 b 660 1213 724 1187 697 1213 b 597 1151 624 1213 597 1187 b 660 1089 597 1116 624 1089 z m 323 1151 b 263 1211 323 1186 298 1211 l 216 1211 l 216 1092 l 263 1092 b 323 1151 298 1092 323 1117 z m 417 1118 l 371 1118 l 371 1139 l 411 1139 l 411 1164 l 371 1164 l 371 1185 l 415 1185 l 415 1211 l 343 1211 l 343 1092 l 417 1092 z m 471 1166 l 505 1091 l 512 1091 l 546 1166 l 557 1092 l 586 1092 l 567 1211 l 539 1211 l 508 1141 l 478 1211 l 449 1211 l 431 1092 l 460 1092 z m 660 1187 b 695 1151 680 1187 695 1172 b 660 1115 695 1131 680 1115 b 625 1151 640 1115 625 1131 b 660 1187 625 1171 640 1187 z m 245 1118 l 245 1185 l 262 1185 b 294 1151 281 1185 294 1171 b 262 1118 294 1132 281 1118 z m 861 0 l 910 0 l 486 972 l 447 972 l 35 0 l 83 0 l 203 282 l 739 282 z m 468 906 l 720 324 l 221 324 z "},"Ā":{"ha":944,"x_min":0,"x_max":0,"o":"m 660 1089 b 724 1151 697 1089 724 1116 b 660 1213 724 1187 697 1213 b 597 1151 624 1213 597 1187 b 660 1089 597 1116 624 1089 z m 323 1151 b 263 1211 323 1186 298 1211 l 216 1211 l 216 1092 l 263 1092 b 323 1151 298 1092 323 1117 z m 417 1118 l 371 1118 l 371 1139 l 411 1139 l 411 1164 l 371 1164 l 371 1185 l 415 1185 l 415 1211 l 343 1211 l 343 1092 l 417 1092 z m 471 1166 l 505 1091 l 512 1091 l 546 1166 l 557 1092 l 586 1092 l 567 1211 l 539 1211 l 508 1141 l 478 1211 l 449 1211 l 431 1092 l 460 1092 z m 660 1187 b 695 1151 680 1187 695 1172 b 660 1115 695 1131 680 1115 b 625 1151 640 1115 625 1131 b 660 1187 625 1171 640 1187 z m 245 1118 l 245 1185 l 262 1185 b 294 1151 281 1185 294 1171 b 262 1118 294 1132 281 1118 z m 861 0 l 910 0 l 486 972 l 447 972 l 35 0 l 83 0 l 203 282 l 739 282 z m 468 906 l 720 324 l 221 324 z "},"Ą":{"ha":944,"x_min":0,"x_max":0,"o":"m 660 1089 b 724 1151 697 1089 724 1116 b 660 1213 724 1187 697 1213 b 597 1151 624 1213 597 1187 b 660 1089 597 1116 624 1089 z m 323 1151 b 263 1211 323 1186 298 1211 l 216 1211 l 216 1092 l 263 1092 b 323 1151 298 1092 323 1117 z m 417 1118 l 371 1118 l 371 1139 l 411 1139 l 411 1164 l 371 1164 l 371 1185 l 415 1185 l 415 1211 l 343 1211 l 343 1092 l 417 1092 z m 471 1166 l 505 1091 l 512 1091 l 546 1166 l 557 1092 l 586 1092 l 567 1211 l 539 1211 l 508 1141 l 478 1211 l 449 1211 l 431 1092 l 460 1092 z m 660 1187 b 695 1151 680 1187 695 1172 b 660 1115 695 1131 680 1115 b 625 1151 640 1115 625 1131 b 660 1187 625 1171 640 1187 z m 245 1118 l 245 1185 l 262 1185 b 294 1151 281 1185 294 1171 b 262 1118 294 1132 281 1118 z m 861 0 l 910 0 l 486 972 l 447 972 l 35 0 l 83 0 l 203 282 l 739 282 z m 468 906 l 720 324 l 221 324 z "},"Å":{"ha":944,"x_min":0,"x_max":0,"o":"m 660 1089 b 724 1151 697 1089 724 1116 b 660 1213 724 1187 697 1213 b 597 1151 624 1213 597 1187 b 660 1089 597 1116 624 1089 z m 323 1151 b 263 1211 323 1186 298 1211 l 216 1211 l 216 1092 l 263 1092 b 323 1151 298 1092 323 1117 z m 417 1118 l 371 1118 l 371 1139 l 411 1139 l 411 1164 l 371 1164 l 371 1185 l 415 1185 l 415 1211 l 343 1211 l 343 1092 l 417 1092 z m 471 1166 l 505 1091 l 512 1091 l 546 1166 l 557 1092 l 586 1092 l 567 1211 l 539 1211 l 508 1141 l 478 1211 l 449 1211 l 431 1092 l 460 1092 z m 660 1187 b 695 1151 680 1187 695 1172 b 660 1115 695 1131 680 1115 b 625 1151 640 1115 625 1131 b 660 1187 625 1171 640 1187 z m 245 1118 l 245 1185 l 262 1185 b 294 1151 281 1185 294 1171 b 262 1118 294 1132 281 1118 z m 861 0 l 910 0 l 486 972 l 447 972 l 35 0 l 83 0 l 203 282 l 739 282 z m 468 906 l 720 324 l 221 324 z "},"Ã":{"ha":944,"x_min":0,"x_max":0,"o":"m 660 1089 b 724 1151 697 1089 724 1116 b 660 1213 724 1187 697 1213 b 597 1151 624 1213 597 1187 b 660 1089 597 1116 624 1089 z m 323 1151 b 263 1211 323 1186 298 1211 l 216 1211 l 216 1092 l 263 1092 b 323 1151 298 1092 323 1117 z m 417 1118 l 371 1118 l 371 1139 l 411 1139 l 411 1164 l 371 1164 l 371 1185 l 415 1185 l 415 1211 l 343 1211 l 343 1092 l 417 1092 z m 471 1166 l 505 1091 l 512 1091 l 546 1166 l 557 1092 l 586 1092 l 567 1211 l 539 1211 l 508 1141 l 478 1211 l 449 1211 l 431 1092 l 460 1092 z m 660 1187 b 695 1151 680 1187 695 1172 b 660 1115 695 1131 680 1115 b 625 1151 640 1115 625 1131 b 660 1187 625 1171 640 1187 z m 245 1118 l 245 1185 l 262 1185 b 294 1151 281 1185 294 1171 b 262 1118 294 1132 281 1118 z m 861 0 l 910 0 l 486 972 l 447 972 l 35 0 l 83 0 l 203 282 l 739 282 z m 468 906 l 720 324 l 221 324 z "},"Æ":{"ha":522,"x_min":0,"x_max":0,"o":"m 261 740 b 383 863 331 740 383 792 b 261 987 383 935 331 987 b 139 863 191 987 139 935 b 261 740 139 792 191 740 z m 261 954 b 352 863 313 954 352 916 b 261 772 352 811 313 772 b 170 863 209 772 170 811 b 261 954 170 916 209 954 z m 143 641 l 312 564 l 143 487 l 143 456 l 379 417 l 379 450 l 199 480 l 374 560 l 374 568 l 199 649 l 379 678 l 379 711 l 143 672 z m 348 279 l 273 279 l 273 373 l 243 373 l 243 279 l 173 279 l 173 382 l 143 382 l 143 247 l 379 247 l 379 386 l 348 386 z m 261 200 b 143 80 192 200 143 149 l 143 0 l 379 0 l 379 80 b 261 200 379 149 329 200 z m 349 32 l 173 32 l 173 79 b 261 167 173 130 210 167 b 349 79 312 167 349 130 z "},"Ǽ":{"ha":522,"x_min":0,"x_max":0,"o":"m 261 740 b 383 863 331 740 383 792 b 261 987 383 935 331 987 b 139 863 191 987 139 935 b 261 740 139 792 191 740 z m 261 954 b 352 863 313 954 352 916 b 261 772 352 811 313 772 b 170 863 209 772 170 811 b 261 954 170 916 209 954 z m 143 641 l 312 564 l 143 487 l 143 456 l 379 417 l 379 450 l 199 480 l 374 560 l 374 568 l 199 649 l 379 678 l 379 711 l 143 672 z m 348 279 l 273 279 l 273 373 l 243 373 l 243 279 l 173 279 l 173 382 l 143 382 l 143 247 l 379 247 l 379 386 l 348 386 z m 261 200 b 143 80 192 200 143 149 l 143 0 l 379 0 l 379 80 b 261 200 379 149 329 200 z m 349 32 l 173 32 l 173 79 b 261 167 173 130 210 167 b 349 79 312 167 349 130 z "},"B":{"ha":894,"x_min":0,"x_max":0,"o":"m 622 512 b 774 737 711 546 774 635 b 518 972 774 868 671 972 l 149 972 l 149 0 l 519 0 b 803 264 690 0 803 118 b 622 512 803 382 727 481 z m 527 927 b 728 732 639 927 728 842 b 534 534 728 627 644 534 l 194 534 l 194 927 z m 529 45 l 194 45 l 194 489 l 534 489 b 757 268 658 489 757 391 b 529 45 757 142 657 45 z "},"C":{"ha":1081,"x_min":0,"x_max":0,"o":"m 572 -14 b 1027 310 791 -14 962 108 l 981 310 b 572 31 917 135 766 31 b 123 485 310 31 123 219 b 572 942 123 751 311 942 b 973 680 761 942 908 843 l 1020 680 b 572 986 953 869 786 986 b 77 485 283 986 77 776 b 572 -14 77 194 282 -14 z "},"Ć":{"ha":1081,"x_min":0,"x_max":0,"o":"m 756 1213 b 692 1151 719 1213 692 1187 b 756 1089 692 1116 719 1089 b 820 1151 792 1089 820 1116 b 756 1213 820 1187 792 1213 z m 358 1211 l 312 1211 l 312 1092 l 358 1092 b 419 1151 393 1092 419 1117 b 358 1211 419 1186 393 1211 z m 466 1139 l 506 1139 l 506 1164 l 466 1164 l 466 1185 l 511 1185 l 511 1211 l 438 1211 l 438 1092 l 513 1092 l 513 1118 l 466 1118 z m 635 1211 l 604 1141 l 573 1211 l 545 1211 l 526 1092 l 555 1092 l 566 1166 l 600 1091 l 607 1091 l 641 1166 l 652 1092 l 681 1092 l 663 1211 z m 756 1115 b 721 1151 736 1115 721 1131 b 756 1187 721 1171 736 1187 b 791 1151 776 1187 791 1172 b 756 1115 791 1131 776 1115 z m 357 1118 l 340 1118 l 340 1185 l 357 1185 b 390 1151 377 1185 390 1171 b 357 1118 390 1132 377 1118 z m 572 -14 b 1027 310 791 -14 962 108 l 981 310 b 572 31 917 135 766 31 b 123 485 310 31 123 219 b 572 942 123 751 311 942 b 973 680 761 942 908 843 l 1020 680 b 572 986 953 869 786 986 b 77 485 283 986 77 776 b 572 -14 77 194 282 -14 z "},"Č":{"ha":1081,"x_min":0,"x_max":0,"o":"m 756 1213 b 692 1151 719 1213 692 1187 b 756 1089 692 1116 719 1089 b 820 1151 792 1089 820 1116 b 756 1213 820 1187 792 1213 z m 358 1211 l 312 1211 l 312 1092 l 358 1092 b 419 1151 393 1092 419 1117 b 358 1211 419 1186 393 1211 z m 466 1139 l 506 1139 l 506 1164 l 466 1164 l 466 1185 l 511 1185 l 511 1211 l 438 1211 l 438 1092 l 513 1092 l 513 1118 l 466 1118 z m 635 1211 l 604 1141 l 573 1211 l 545 1211 l 526 1092 l 555 1092 l 566 1166 l 600 1091 l 607 1091 l 641 1166 l 652 1092 l 681 1092 l 663 1211 z m 756 1115 b 721 1151 736 1115 721 1131 b 756 1187 721 1171 736 1187 b 791 1151 776 1187 791 1172 b 756 1115 791 1131 776 1115 z m 357 1118 l 340 1118 l 340 1185 l 357 1185 b 390 1151 377 1185 390 1171 b 357 1118 390 1132 377 1118 z m 572 -14 b 1027 310 791 -14 962 108 l 981 310 b 572 31 917 135 766 31 b 123 485 310 31 123 219 b 572 942 123 751 311 942 b 973 680 761 942 908 843 l 1020 680 b 572 986 953 869 786 986 b 77 485 283 986 77 776 b 572 -14 77 194 282 -14 z "},"Ç":{"ha":1081,"x_min":0,"x_max":0,"o":"m 756 1213 b 692 1151 719 1213 692 1187 b 756 1089 692 1116 719 1089 b 820 1151 792 1089 820 1116 b 756 1213 820 1187 792 1213 z m 358 1211 l 312 1211 l 312 1092 l 358 1092 b 419 1151 393 1092 419 1117 b 358 1211 419 1186 393 1211 z m 466 1139 l 506 1139 l 506 1164 l 466 1164 l 466 1185 l 511 1185 l 511 1211 l 438 1211 l 438 1092 l 513 1092 l 513 1118 l 466 1118 z m 635 1211 l 604 1141 l 573 1211 l 545 1211 l 526 1092 l 555 1092 l 566 1166 l 600 1091 l 607 1091 l 641 1166 l 652 1092 l 681 1092 l 663 1211 z m 756 1115 b 721 1151 736 1115 721 1131 b 756 1187 721 1171 736 1187 b 791 1151 776 1187 791 1172 b 756 1115 791 1131 776 1115 z m 357 1118 l 340 1118 l 340 1185 l 357 1185 b 390 1151 377 1185 390 1171 b 357 1118 390 1132 377 1118 z m 572 -14 b 1027 310 791 -14 962 108 l 981 310 b 572 31 917 135 766 31 b 123 485 310 31 123 219 b 572 942 123 751 311 942 b 973 680 761 942 908 843 l 1020 680 b 572 986 953 869 786 986 b 77 485 283 986 77 776 b 572 -14 77 194 282 -14 z "},"Ĉ":{"ha":1081,"x_min":0,"x_max":0,"o":"m 756 1213 b 692 1151 719 1213 692 1187 b 756 1089 692 1116 719 1089 b 820 1151 792 1089 820 1116 b 756 1213 820 1187 792 1213 z m 358 1211 l 312 1211 l 312 1092 l 358 1092 b 419 1151 393 1092 419 1117 b 358 1211 419 1186 393 1211 z m 466 1139 l 506 1139 l 506 1164 l 466 1164 l 466 1185 l 511 1185 l 511 1211 l 438 1211 l 438 1092 l 513 1092 l 513 1118 l 466 1118 z m 635 1211 l 604 1141 l 573 1211 l 545 1211 l 526 1092 l 555 1092 l 566 1166 l 600 1091 l 607 1091 l 641 1166 l 652 1092 l 681 1092 l 663 1211 z m 756 1115 b 721 1151 736 1115 721 1131 b 756 1187 721 1171 736 1187 b 791 1151 776 1187 791 1172 b 756 1115 791 1131 776 1115 z m 357 1118 l 340 1118 l 340 1185 l 357 1185 b 390 1151 377 1185 390 1171 b 357 1118 390 1132 377 1118 z m 572 -14 b 1027 310 791 -14 962 108 l 981 310 b 572 31 917 135 766 31 b 123 485 310 31 123 219 b 572 942 123 751 311 942 b 973 680 761 942 908 843 l 1020 680 b 572 986 953 869 786 986 b 77 485 283 986 77 776 b 572 -14 77 194 282 -14 z "},"Ċ":{"ha":1081,"x_min":0,"x_max":0,"o":"m 756 1213 b 692 1151 719 1213 692 1187 b 756 1089 692 1116 719 1089 b 820 1151 792 1089 820 1116 b 756 1213 820 1187 792 1213 z m 358 1211 l 312 1211 l 312 1092 l 358 1092 b 419 1151 393 1092 419 1117 b 358 1211 419 1186 393 1211 z m 466 1139 l 506 1139 l 506 1164 l 466 1164 l 466 1185 l 511 1185 l 511 1211 l 438 1211 l 438 1092 l 513 1092 l 513 1118 l 466 1118 z m 635 1211 l 604 1141 l 573 1211 l 545 1211 l 526 1092 l 555 1092 l 566 1166 l 600 1091 l 607 1091 l 641 1166 l 652 1092 l 681 1092 l 663 1211 z m 756 1115 b 721 1151 736 1115 721 1131 b 756 1187 721 1171 736 1187 b 791 1151 776 1187 791 1172 b 756 1115 791 1131 776 1115 z m 357 1118 l 340 1118 l 340 1185 l 357 1185 b 390 1151 377 1185 390 1171 b 357 1118 390 1132 377 1118 z m 572 -14 b 1027 310 791 -14 962 108 l 981 310 b 572 31 917 135 766 31 b 123 485 310 31 123 219 b 572 942 123 751 311 942 b 973 680 761 942 908 843 l 1020 680 b 572 986 953 869 786 986 b 77 485 283 986 77 776 b 572 -14 77 194 282 -14 z "},"D":{"ha":1006,"x_min":0,"x_max":0,"o":"m 436 972 l 149 972 l 149 0 l 436 0 b 929 487 721 0 929 205 b 436 972 929 768 722 972 z m 435 43 l 195 43 l 195 929 l 435 929 b 883 487 695 929 883 743 b 435 43 883 231 694 43 z "},"Ð":{"ha":1006,"x_min":0,"x_max":0,"o":"m 606 1089 b 669 1151 642 1089 669 1116 b 606 1213 669 1187 642 1213 b 542 1151 569 1213 542 1187 b 606 1089 542 1116 569 1089 z m 269 1151 b 208 1211 269 1186 243 1211 l 162 1211 l 162 1092 l 208 1092 b 269 1151 243 1092 269 1117 z m 363 1118 l 316 1118 l 316 1139 l 356 1139 l 356 1164 l 316 1164 l 316 1185 l 361 1185 l 361 1211 l 288 1211 l 288 1092 l 363 1092 z m 416 1166 l 450 1091 l 457 1091 l 491 1166 l 502 1092 l 531 1092 l 513 1211 l 485 1211 l 454 1141 l 423 1211 l 395 1211 l 376 1092 l 405 1092 z m 606 1187 b 641 1151 626 1187 641 1172 b 606 1115 641 1131 626 1115 b 571 1151 586 1115 571 1131 b 606 1187 571 1171 586 1187 z m 190 1118 l 190 1185 l 207 1185 b 240 1151 227 1185 240 1171 b 207 1118 240 1132 227 1118 z m 436 972 l 149 972 l 149 0 l 436 0 b 929 487 721 0 929 205 b 436 972 929 768 722 972 z m 435 43 l 195 43 l 195 929 l 435 929 b 883 487 695 929 883 743 b 435 43 883 231 694 43 z "},"Ď":{"ha":1006,"x_min":0,"x_max":0,"o":"m 606 1089 b 669 1151 642 1089 669 1116 b 606 1213 669 1187 642 1213 b 542 1151 569 1213 542 1187 b 606 1089 542 1116 569 1089 z m 269 1151 b 208 1211 269 1186 243 1211 l 162 1211 l 162 1092 l 208 1092 b 269 1151 243 1092 269 1117 z m 363 1118 l 316 1118 l 316 1139 l 356 1139 l 356 1164 l 316 1164 l 316 1185 l 361 1185 l 361 1211 l 288 1211 l 288 1092 l 363 1092 z m 416 1166 l 450 1091 l 457 1091 l 491 1166 l 502 1092 l 531 1092 l 513 1211 l 485 1211 l 454 1141 l 423 1211 l 395 1211 l 376 1092 l 405 1092 z m 606 1187 b 641 1151 626 1187 641 1172 b 606 1115 641 1131 626 1115 b 571 1151 586 1115 571 1131 b 606 1187 571 1171 586 1187 z m 190 1118 l 190 1185 l 207 1185 b 240 1151 227 1185 240 1171 b 207 1118 240 1132 227 1118 z m 436 972 l 149 972 l 149 0 l 436 0 b 929 487 721 0 929 205 b 436 972 929 768 722 972 z m 435 43 l 195 43 l 195 929 l 435 929 b 883 487 695 929 883 743 b 435 43 883 231 694 43 z "},"Đ":{"ha":1006,"x_min":0,"x_max":0,"o":"m 606 1089 b 669 1151 642 1089 669 1116 b 606 1213 669 1187 642 1213 b 542 1151 569 1213 542 1187 b 606 1089 542 1116 569 1089 z m 269 1151 b 208 1211 269 1186 243 1211 l 162 1211 l 162 1092 l 208 1092 b 269 1151 243 1092 269 1117 z m 363 1118 l 316 1118 l 316 1139 l 356 1139 l 356 1164 l 316 1164 l 316 1185 l 361 1185 l 361 1211 l 288 1211 l 288 1092 l 363 1092 z m 416 1166 l 450 1091 l 457 1091 l 491 1166 l 502 1092 l 531 1092 l 513 1211 l 485 1211 l 454 1141 l 423 1211 l 395 1211 l 376 1092 l 405 1092 z m 606 1187 b 641 1151 626 1187 641 1172 b 606 1115 641 1131 626 1115 b 571 1151 586 1115 571 1131 b 606 1187 571 1171 586 1187 z m 190 1118 l 190 1185 l 207 1185 b 240 1151 227 1185 240 1171 b 207 1118 240 1132 227 1118 z m 436 972 l 149 972 l 149 0 l 436 0 b 929 487 721 0 929 205 b 436 972 929 768 722 972 z m 435 43 l 195 43 l 195 929 l 435 929 b 883 487 695 929 883 743 b 435 43 883 231 694 43 z "},"E":{"ha":753,"x_min":0,"x_max":0,"o":"m 195 44 l 195 486 l 636 486 l 636 530 l 195 530 l 195 928 l 672 928 l 672 972 l 149 972 l 149 0 l 688 0 l 688 44 z "},"É":{"ha":753,"x_min":0,"x_max":0,"o":"m 599 1089 b 663 1151 636 1089 663 1116 b 599 1213 663 1187 636 1213 b 535 1151 563 1213 535 1187 b 599 1089 535 1116 563 1089 z m 262 1151 b 202 1211 262 1186 237 1211 l 155 1211 l 155 1092 l 202 1092 b 262 1151 237 1092 262 1117 z m 356 1118 l 310 1118 l 310 1139 l 350 1139 l 350 1164 l 310 1164 l 310 1185 l 354 1185 l 354 1211 l 282 1211 l 282 1092 l 356 1092 z m 409 1166 l 444 1091 l 451 1091 l 485 1166 l 496 1092 l 525 1092 l 506 1211 l 478 1211 l 447 1141 l 417 1211 l 388 1211 l 370 1092 l 399 1092 z m 599 1187 b 634 1151 619 1187 634 1172 b 599 1115 634 1131 619 1115 b 564 1151 579 1115 564 1131 b 599 1187 564 1171 579 1187 z m 184 1118 l 184 1185 l 201 1185 b 233 1151 220 1185 233 1171 b 201 1118 233 1132 220 1118 z m 195 44 l 195 486 l 636 486 l 636 530 l 195 530 l 195 928 l 672 928 l 672 972 l 149 972 l 149 0 l 688 0 l 688 44 z "},"Ĕ":{"ha":753,"x_min":0,"x_max":0,"o":"m 599 1089 b 663 1151 636 1089 663 1116 b 599 1213 663 1187 636 1213 b 535 1151 563 1213 535 1187 b 599 1089 535 1116 563 1089 z m 262 1151 b 202 1211 262 1186 237 1211 l 155 1211 l 155 1092 l 202 1092 b 262 1151 237 1092 262 1117 z m 356 1118 l 310 1118 l 310 1139 l 350 1139 l 350 1164 l 310 1164 l 310 1185 l 354 1185 l 354 1211 l 282 1211 l 282 1092 l 356 1092 z m 409 1166 l 444 1091 l 451 1091 l 485 1166 l 496 1092 l 525 1092 l 506 1211 l 478 1211 l 447 1141 l 417 1211 l 388 1211 l 370 1092 l 399 1092 z m 599 1187 b 634 1151 619 1187 634 1172 b 599 1115 634 1131 619 1115 b 564 1151 579 1115 564 1131 b 599 1187 564 1171 579 1187 z m 184 1118 l 184 1185 l 201 1185 b 233 1151 220 1185 233 1171 b 201 1118 233 1132 220 1118 z m 195 44 l 195 486 l 636 486 l 636 530 l 195 530 l 195 928 l 672 928 l 672 972 l 149 972 l 149 0 l 688 0 l 688 44 z "},"Ě":{"ha":753,"x_min":0,"x_max":0,"o":"m 599 1089 b 663 1151 636 1089 663 1116 b 599 1213 663 1187 636 1213 b 535 1151 563 1213 535 1187 b 599 1089 535 1116 563 1089 z m 262 1151 b 202 1211 262 1186 237 1211 l 155 1211 l 155 1092 l 202 1092 b 262 1151 237 1092 262 1117 z m 356 1118 l 310 1118 l 310 1139 l 350 1139 l 350 1164 l 310 1164 l 310 1185 l 354 1185 l 354 1211 l 282 1211 l 282 1092 l 356 1092 z m 409 1166 l 444 1091 l 451 1091 l 485 1166 l 496 1092 l 525 1092 l 506 1211 l 478 1211 l 447 1141 l 417 1211 l 388 1211 l 370 1092 l 399 1092 z m 599 1187 b 634 1151 619 1187 634 1172 b 599 1115 634 1131 619 1115 b 564 1151 579 1115 564 1131 b 599 1187 564 1171 579 1187 z m 184 1118 l 184 1185 l 201 1185 b 233 1151 220 1185 233 1171 b 201 1118 233 1132 220 1118 z m 195 44 l 195 486 l 636 486 l 636 530 l 195 530 l 195 928 l 672 928 l 672 972 l 149 972 l 149 0 l 688 0 l 688 44 z "},"Ê":{"ha":753,"x_min":0,"x_max":0,"o":"m 599 1089 b 663 1151 636 1089 663 1116 b 599 1213 663 1187 636 1213 b 535 1151 563 1213 535 1187 b 599 1089 535 1116 563 1089 z m 262 1151 b 202 1211 262 1186 237 1211 l 155 1211 l 155 1092 l 202 1092 b 262 1151 237 1092 262 1117 z m 356 1118 l 310 1118 l 310 1139 l 350 1139 l 350 1164 l 310 1164 l 310 1185 l 354 1185 l 354 1211 l 282 1211 l 282 1092 l 356 1092 z m 409 1166 l 444 1091 l 451 1091 l 485 1166 l 496 1092 l 525 1092 l 506 1211 l 478 1211 l 447 1141 l 417 1211 l 388 1211 l 370 1092 l 399 1092 z m 599 1187 b 634 1151 619 1187 634 1172 b 599 1115 634 1131 619 1115 b 564 1151 579 1115 564 1131 b 599 1187 564 1171 579 1187 z m 184 1118 l 184 1185 l 201 1185 b 233 1151 220 1185 233 1171 b 201 1118 233 1132 220 1118 z m 195 44 l 195 486 l 636 486 l 636 530 l 195 530 l 195 928 l 672 928 l 672 972 l 149 972 l 149 0 l 688 0 l 688 44 z "},"Ë":{"ha":753,"x_min":0,"x_max":0,"o":"m 599 1089 b 663 1151 636 1089 663 1116 b 599 1213 663 1187 636 1213 b 535 1151 563 1213 535 1187 b 599 1089 535 1116 563 1089 z m 262 1151 b 202 1211 262 1186 237 1211 l 155 1211 l 155 1092 l 202 1092 b 262 1151 237 1092 262 1117 z m 356 1118 l 310 1118 l 310 1139 l 350 1139 l 350 1164 l 310 1164 l 310 1185 l 354 1185 l 354 1211 l 282 1211 l 282 1092 l 356 1092 z m 409 1166 l 444 1091 l 451 1091 l 485 1166 l 496 1092 l 525 1092 l 506 1211 l 478 1211 l 447 1141 l 417 1211 l 388 1211 l 370 1092 l 399 1092 z m 599 1187 b 634 1151 619 1187 634 1172 b 599 1115 634 1131 619 1115 b 564 1151 579 1115 564 1131 b 599 1187 564 1171 579 1187 z m 184 1118 l 184 1185 l 201 1185 b 233 1151 220 1185 233 1171 b 201 1118 233 1132 220 1118 z m 195 44 l 195 486 l 636 486 l 636 530 l 195 530 l 195 928 l 672 928 l 672 972 l 149 972 l 149 0 l 688 0 l 688 44 z "},"Ė":{"ha":753,"x_min":0,"x_max":0,"o":"m 599 1089 b 663 1151 636 1089 663 1116 b 599 1213 663 1187 636 1213 b 535 1151 563 1213 535 1187 b 599 1089 535 1116 563 1089 z m 262 1151 b 202 1211 262 1186 237 1211 l 155 1211 l 155 1092 l 202 1092 b 262 1151 237 1092 262 1117 z m 356 1118 l 310 1118 l 310 1139 l 350 1139 l 350 1164 l 310 1164 l 310 1185 l 354 1185 l 354 1211 l 282 1211 l 282 1092 l 356 1092 z m 409 1166 l 444 1091 l 451 1091 l 485 1166 l 496 1092 l 525 1092 l 506 1211 l 478 1211 l 447 1141 l 417 1211 l 388 1211 l 370 1092 l 399 1092 z m 599 1187 b 634 1151 619 1187 634 1172 b 599 1115 634 1131 619 1115 b 564 1151 579 1115 564 1131 b 599 1187 564 1171 579 1187 z m 184 1118 l 184 1185 l 201 1185 b 233 1151 220 1185 233 1171 b 201 1118 233 1132 220 1118 z m 195 44 l 195 486 l 636 486 l 636 530 l 195 530 l 195 928 l 672 928 l 672 972 l 149 972 l 149 0 l 688 0 l 688 44 z "},"È":{"ha":753,"x_min":0,"x_max":0,"o":"m 599 1089 b 663 1151 636 1089 663 1116 b 599 1213 663 1187 636 1213 b 535 1151 563 1213 535 1187 b 599 1089 535 1116 563 1089 z m 262 1151 b 202 1211 262 1186 237 1211 l 155 1211 l 155 1092 l 202 1092 b 262 1151 237 1092 262 1117 z m 356 1118 l 310 1118 l 310 1139 l 350 1139 l 350 1164 l 310 1164 l 310 1185 l 354 1185 l 354 1211 l 282 1211 l 282 1092 l 356 1092 z m 409 1166 l 444 1091 l 451 1091 l 485 1166 l 496 1092 l 525 1092 l 506 1211 l 478 1211 l 447 1141 l 417 1211 l 388 1211 l 370 1092 l 399 1092 z m 599 1187 b 634 1151 619 1187 634 1172 b 599 1115 634 1131 619 1115 b 564 1151 579 1115 564 1131 b 599 1187 564 1171 579 1187 z m 184 1118 l 184 1185 l 201 1185 b 233 1151 220 1185 233 1171 b 201 1118 233 1132 220 1118 z m 195 44 l 195 486 l 636 486 l 636 530 l 195 530 l 195 928 l 672 928 l 672 972 l 149 972 l 149 0 l 688 0 l 688 44 z "},"Ē":{"ha":753,"x_min":0,"x_max":0,"o":"m 599 1089 b 663 1151 636 1089 663 1116 b 599 1213 663 1187 636 1213 b 535 1151 563 1213 535 1187 b 599 1089 535 1116 563 1089 z m 262 1151 b 202 1211 262 1186 237 1211 l 155 1211 l 155 1092 l 202 1092 b 262 1151 237 1092 262 1117 z m 356 1118 l 310 1118 l 310 1139 l 350 1139 l 350 1164 l 310 1164 l 310 1185 l 354 1185 l 354 1211 l 282 1211 l 282 1092 l 356 1092 z m 409 1166 l 444 1091 l 451 1091 l 485 1166 l 496 1092 l 525 1092 l 506 1211 l 478 1211 l 447 1141 l 417 1211 l 388 1211 l 370 1092 l 399 1092 z m 599 1187 b 634 1151 619 1187 634 1172 b 599 1115 634 1131 619 1115 b 564 1151 579 1115 564 1131 b 599 1187 564 1171 579 1187 z m 184 1118 l 184 1185 l 201 1185 b 233 1151 220 1185 233 1171 b 201 1118 233 1132 220 1118 z m 195 44 l 195 486 l 636 486 l 636 530 l 195 530 l 195 928 l 672 928 l 672 972 l 149 972 l 149 0 l 688 0 l 688 44 z "},"Ę":{"ha":753,"x_min":0,"x_max":0,"o":"m 599 1089 b 663 1151 636 1089 663 1116 b 599 1213 663 1187 636 1213 b 535 1151 563 1213 535 1187 b 599 1089 535 1116 563 1089 z m 262 1151 b 202 1211 262 1186 237 1211 l 155 1211 l 155 1092 l 202 1092 b 262 1151 237 1092 262 1117 z m 356 1118 l 310 1118 l 310 1139 l 350 1139 l 350 1164 l 310 1164 l 310 1185 l 354 1185 l 354 1211 l 282 1211 l 282 1092 l 356 1092 z m 409 1166 l 444 1091 l 451 1091 l 485 1166 l 496 1092 l 525 1092 l 506 1211 l 478 1211 l 447 1141 l 417 1211 l 388 1211 l 370 1092 l 399 1092 z m 599 1187 b 634 1151 619 1187 634 1172 b 599 1115 634 1131 619 1115 b 564 1151 579 1115 564 1131 b 599 1187 564 1171 579 1187 z m 184 1118 l 184 1185 l 201 1185 b 233 1151 220 1185 233 1171 b 201 1118 233 1132 220 1118 z m 195 44 l 195 486 l 636 486 l 636 530 l 195 530 l 195 928 l 672 928 l 672 972 l 149 972 l 149 0 l 688 0 l 688 44 z "},"F":{"ha":710,"x_min":0,"x_max":0,"o":"m 667 928 l 667 972 l 149 972 l 149 0 l 195 0 l 195 468 l 631 468 l 631 511 l 195 511 l 195 928 z "},"G":{"ha":1111,"x_min":0,"x_max":0,"o":"m 516 456 l 516 412 l 992 412 b 563 32 968 186 797 32 b 124 485 305 32 124 219 b 563 940 124 748 309 940 b 977 642 764 940 935 816 l 1024 642 b 562 984 982 841 790 984 b 78 485 284 984 78 773 b 563 -12 78 198 278 -12 b 1040 456 834 -12 1030 179 z "},"Ğ":{"ha":1111,"x_min":0,"x_max":0,"o":"m 759 1089 b 822 1151 795 1089 822 1116 b 759 1213 822 1187 795 1213 b 695 1151 722 1213 695 1187 b 759 1089 695 1116 722 1089 z m 421 1151 b 361 1211 421 1186 396 1211 l 315 1211 l 315 1092 l 361 1092 b 421 1151 396 1092 421 1117 z m 515 1118 l 469 1118 l 469 1139 l 509 1139 l 509 1164 l 469 1164 l 469 1185 l 514 1185 l 514 1211 l 441 1211 l 441 1092 l 515 1092 z m 569 1166 l 603 1091 l 610 1091 l 644 1166 l 655 1092 l 684 1092 l 666 1211 l 637 1211 l 607 1141 l 576 1211 l 548 1211 l 529 1092 l 558 1092 z m 759 1187 b 794 1151 779 1187 794 1172 b 759 1115 794 1131 779 1115 b 723 1151 739 1115 723 1131 b 759 1187 723 1171 739 1187 z m 343 1118 l 343 1185 l 360 1185 b 393 1151 379 1185 393 1171 b 360 1118 393 1132 379 1118 z m 516 456 l 516 412 l 992 412 b 563 32 968 187 797 32 b 124 485 305 32 124 219 b 563 940 124 748 309 940 b 977 642 764 940 935 816 l 1024 642 b 562 984 982 841 790 984 b 78 485 284 984 78 773 b 563 -12 78 198 278 -12 b 1040 456 834 -12 1030 179 z "},"Ĝ":{"ha":1111,"x_min":0,"x_max":0,"o":"m 759 1089 b 822 1151 795 1089 822 1116 b 759 1213 822 1187 795 1213 b 695 1151 722 1213 695 1187 b 759 1089 695 1116 722 1089 z m 421 1151 b 361 1211 421 1186 396 1211 l 315 1211 l 315 1092 l 361 1092 b 421 1151 396 1092 421 1117 z m 515 1118 l 469 1118 l 469 1139 l 509 1139 l 509 1164 l 469 1164 l 469 1185 l 514 1185 l 514 1211 l 441 1211 l 441 1092 l 515 1092 z m 569 1166 l 603 1091 l 610 1091 l 644 1166 l 655 1092 l 684 1092 l 666 1211 l 637 1211 l 607 1141 l 576 1211 l 548 1211 l 529 1092 l 558 1092 z m 759 1187 b 794 1151 779 1187 794 1172 b 759 1115 794 1131 779 1115 b 723 1151 739 1115 723 1131 b 759 1187 723 1171 739 1187 z m 343 1118 l 343 1185 l 360 1185 b 393 1151 379 1185 393 1171 b 360 1118 393 1132 379 1118 z m 516 456 l 516 412 l 992 412 b 563 32 968 187 797 32 b 124 485 305 32 124 219 b 563 940 124 748 309 940 b 977 642 764 940 935 816 l 1024 642 b 562 984 982 841 790 984 b 78 485 284 984 78 773 b 563 -12 78 198 278 -12 b 1040 456 834 -12 1030 179 z "},"Ġ":{"ha":1111,"x_min":0,"x_max":0,"o":"m 759 1089 b 822 1151 795 1089 822 1116 b 759 1213 822 1187 795 1213 b 695 1151 722 1213 695 1187 b 759 1089 695 1116 722 1089 z m 421 1151 b 361 1211 421 1186 396 1211 l 315 1211 l 315 1092 l 361 1092 b 421 1151 396 1092 421 1117 z m 515 1118 l 469 1118 l 469 1139 l 509 1139 l 509 1164 l 469 1164 l 469 1185 l 514 1185 l 514 1211 l 441 1211 l 441 1092 l 515 1092 z m 569 1166 l 603 1091 l 610 1091 l 644 1166 l 655 1092 l 684 1092 l 666 1211 l 637 1211 l 607 1141 l 576 1211 l 548 1211 l 529 1092 l 558 1092 z m 759 1187 b 794 1151 779 1187 794 1172 b 759 1115 794 1131 779 1115 b 723 1151 739 1115 723 1131 b 759 1187 723 1171 739 1187 z m 343 1118 l 343 1185 l 360 1185 b 393 1151 379 1185 393 1171 b 360 1118 393 1132 379 1118 z m 516 456 l 516 412 l 992 412 b 563 32 968 187 797 32 b 124 485 305 32 124 219 b 563 940 124 748 309 940 b 977 642 764 940 935 816 l 1024 642 b 562 984 982 841 790 984 b 78 485 284 984 78 773 b 563 -12 78 198 278 -12 b 1040 456 834 -12 1030 179 z "},"H":{"ha":1011,"x_min":0,"x_max":0,"o":"m 817 972 l 817 529 l 195 529 l 195 972 l 149 972 l 149 0 l 195 0 l 195 485 l 817 485 l 817 0 l 862 0 l 862 972 z "},"Ħ":{"ha":1011,"x_min":0,"x_max":0,"o":"m 708 1089 b 772 1151 744 1089 772 1116 b 708 1213 772 1187 744 1213 b 644 1151 671 1213 644 1187 b 708 1089 644 1116 671 1089 z m 371 1151 b 310 1211 371 1186 345 1211 l 264 1211 l 264 1092 l 310 1092 b 371 1151 345 1092 371 1117 z m 465 1118 l 419 1118 l 419 1139 l 458 1139 l 458 1164 l 419 1164 l 419 1185 l 463 1185 l 463 1211 l 390 1211 l 390 1092 l 465 1092 z m 518 1166 l 552 1091 l 559 1091 l 594 1166 l 604 1092 l 633 1092 l 615 1211 l 587 1211 l 556 1141 l 525 1211 l 497 1211 l 479 1092 l 507 1092 z m 708 1187 b 743 1151 728 1187 743 1172 b 708 1115 743 1131 728 1115 b 673 1151 688 1115 673 1131 b 708 1187 673 1171 688 1187 z m 292 1118 l 292 1185 l 310 1185 b 342 1151 329 1185 342 1171 b 310 1118 342 1132 329 1118 z m 817 972 l 817 529 l 195 529 l 195 972 l 149 972 l 149 0 l 195 0 l 195 485 l 817 485 l 817 0 l 862 0 l 862 972 z "},"Ĥ":{"ha":1011,"x_min":0,"x_max":0,"o":"m 708 1089 b 772 1151 744 1089 772 1116 b 708 1213 772 1187 744 1213 b 644 1151 671 1213 644 1187 b 708 1089 644 1116 671 1089 z m 371 1151 b 310 1211 371 1186 345 1211 l 264 1211 l 264 1092 l 310 1092 b 371 1151 345 1092 371 1117 z m 465 1118 l 419 1118 l 419 1139 l 458 1139 l 458 1164 l 419 1164 l 419 1185 l 463 1185 l 463 1211 l 390 1211 l 390 1092 l 465 1092 z m 518 1166 l 552 1091 l 559 1091 l 594 1166 l 604 1092 l 633 1092 l 615 1211 l 587 1211 l 556 1141 l 525 1211 l 497 1211 l 479 1092 l 507 1092 z m 708 1187 b 743 1151 728 1187 743 1172 b 708 1115 743 1131 728 1115 b 673 1151 688 1115 673 1131 b 708 1187 673 1171 688 1187 z m 292 1118 l 292 1185 l 310 1185 b 342 1151 329 1185 342 1171 b 310 1118 342 1132 329 1118 z m 817 972 l 817 529 l 195 529 l 195 972 l 149 972 l 149 0 l 195 0 l 195 485 l 817 485 l 817 0 l 862 0 l 862 972 z "},"I":{"ha":344,"x_min":0,"x_max":0,"o":"m 149 0 l 195 0 l 195 972 l 149 972 z "},"Ĳ":{"ha":522,"x_min":0,"x_max":0,"o":"m 261 740 b 383 863 331 740 383 792 b 261 987 383 935 331 987 b 139 863 191 987 139 935 b 261 740 139 792 191 740 z m 261 954 b 352 863 313 954 352 916 b 261 772 352 811 313 772 b 170 863 209 772 170 811 b 261 954 170 916 209 954 z m 143 641 l 312 564 l 143 487 l 143 456 l 379 417 l 379 450 l 199 480 l 374 560 l 374 568 l 199 649 l 379 678 l 379 711 l 143 672 z m 348 279 l 273 279 l 273 373 l 243 373 l 243 279 l 173 279 l 173 382 l 143 382 l 143 247 l 379 247 l 379 386 l 348 386 z m 261 200 b 143 80 192 200 143 149 l 143 0 l 379 0 l 379 80 b 261 200 379 149 329 200 z m 349 32 l 173 32 l 173 79 b 261 167 173 130 210 167 b 349 79 312 167 349 130 z "},"Í":{"ha":344,"x_min":0,"x_max":0,"o":"m 362 1213 b 298 1151 326 1213 298 1187 b 362 1089 298 1116 326 1089 b 426 1151 398 1089 426 1116 b 362 1213 426 1187 398 1213 z m -36 1211 l -82 1211 l -82 1092 l -36 1092 b 25 1151 -1 1092 25 1117 b -36 1211 25 1186 -1 1211 z m 73 1139 l 112 1139 l 112 1164 l 73 1164 l 73 1185 l 117 1185 l 117 1211 l 44 1211 l 44 1092 l 119 1092 l 119 1118 l 73 1118 z m 241 1211 l 210 1141 l 179 1211 l 151 1211 l 133 1092 l 161 1092 l 172 1166 l 206 1091 l 213 1091 l 248 1166 l 258 1092 l 287 1092 l 269 1211 z m 362 1115 b 327 1151 342 1115 327 1131 b 362 1187 327 1171 342 1187 b 397 1151 382 1187 397 1172 b 362 1115 397 1131 382 1115 z m -36 1118 l -54 1118 l -54 1185 l -36 1185 b -4 1151 -17 1185 -4 1171 b -36 1118 -4 1132 -17 1118 z m 149 0 l 195 0 l 195 972 l 149 972 z "},"Ĭ":{"ha":344,"x_min":0,"x_max":0,"o":"m 365 1213 b 301 1151 328 1213 301 1187 b 365 1089 301 1116 328 1089 b 429 1151 401 1089 429 1116 b 365 1213 429 1187 401 1213 z m -33 1211 l -79 1211 l -79 1092 l -33 1092 b 28 1151 2 1092 28 1117 b -33 1211 28 1186 2 1211 z m 75 1139 l 115 1139 l 115 1164 l 75 1164 l 75 1185 l 120 1185 l 120 1211 l 47 1211 l 47 1092 l 122 1092 l 122 1118 l 75 1118 z m 244 1211 l 213 1141 l 182 1211 l 154 1211 l 135 1092 l 164 1092 l 175 1166 l 209 1091 l 216 1091 l 250 1166 l 261 1092 l 290 1092 l 272 1211 z m 365 1115 b 330 1151 345 1115 330 1131 b 365 1187 330 1171 345 1187 b 400 1151 385 1187 400 1172 b 365 1115 400 1131 385 1115 z m -34 1118 l -51 1118 l -51 1185 l -34 1185 b -1 1151 -14 1185 -1 1171 b -34 1118 -1 1132 -14 1118 z m 149 0 l 195 0 l 195 972 l 149 972 z "},"Î":{"ha":1093,"x_min":0,"x_max":0,"o":"m 913 1213 b 849 1151 877 1213 849 1187 b 913 1089 849 1116 877 1089 b 977 1151 950 1089 977 1116 b 913 1213 977 1187 950 1213 z m 516 1211 l 469 1211 l 469 1092 l 516 1092 b 576 1151 550 1092 576 1117 b 516 1211 576 1186 551 1211 z m 624 1139 l 664 1139 l 664 1164 l 624 1164 l 624 1185 l 668 1185 l 668 1211 l 596 1211 l 596 1092 l 670 1092 l 670 1118 l 624 1118 z m 792 1211 l 761 1141 l 730 1211 l 702 1211 l 684 1092 l 712 1092 l 723 1166 l 758 1091 l 765 1091 l 799 1166 l 810 1092 l 838 1092 l 820 1211 z m 913 1115 b 878 1151 893 1115 878 1131 b 913 1187 878 1171 893 1187 b 948 1151 933 1187 948 1172 b 913 1115 948 1131 933 1115 z m 515 1118 l 498 1118 l 498 1185 l 515 1185 b 547 1151 534 1185 547 1171 b 515 1118 547 1132 534 1118 z m 149 0 l 195 0 l 195 972 l 149 972 z "},"Ï":{"ha":344,"x_min":0,"x_max":0,"o":"m 363 1213 b 299 1151 326 1213 299 1187 b 363 1089 299 1116 326 1089 b 426 1151 399 1089 426 1116 b 363 1213 426 1187 399 1213 z m -35 1211 l -81 1211 l -81 1092 l -35 1092 b 26 1151 0 1092 26 1117 b -35 1211 26 1186 0 1211 z m 73 1139 l 113 1139 l 113 1164 l 73 1164 l 73 1185 l 118 1185 l 118 1211 l 45 1211 l 45 1092 l 120 1092 l 120 1118 l 73 1118 z m 242 1211 l 211 1141 l 180 1211 l 152 1211 l 133 1092 l 162 1092 l 173 1166 l 207 1091 l 214 1091 l 248 1166 l 259 1092 l 288 1092 l 270 1211 z m 363 1115 b 328 1151 343 1115 328 1131 b 363 1187 328 1171 343 1187 b 398 1151 383 1187 398 1172 b 363 1115 398 1131 383 1115 z m -36 1118 l -53 1118 l -53 1185 l -36 1185 b -3 1151 -16 1185 -3 1171 b -36 1118 -3 1132 -16 1118 z m 149 0 l 195 0 l 195 972 l 149 972 z "},"İ":{"ha":344,"x_min":0,"x_max":0,"o":"m 365 1213 b 301 1151 328 1213 301 1187 b 365 1089 301 1116 328 1089 b 428 1151 401 1089 428 1116 b 365 1213 428 1187 401 1213 z m -33 1211 l -79 1211 l -79 1092 l -33 1092 b 27 1151 2 1092 27 1117 b -33 1211 27 1186 2 1211 z m 75 1139 l 115 1139 l 115 1164 l 75 1164 l 75 1185 l 119 1185 l 119 1211 l 47 1211 l 47 1092 l 121 1092 l 121 1118 l 75 1118 z m 243 1211 l 212 1141 l 182 1211 l 153 1211 l 135 1092 l 164 1092 l 175 1166 l 209 1091 l 216 1091 l 250 1166 l 261 1092 l 290 1092 l 272 1211 z m 365 1115 b 329 1151 345 1115 329 1131 b 365 1187 329 1171 345 1187 b 400 1151 385 1187 400 1172 b 365 1115 400 1131 385 1115 z m -34 1118 l -51 1118 l -51 1185 l -34 1185 b -2 1151 -15 1185 -2 1171 b -34 1118 -2 1132 -15 1118 z m 149 0 l 195 0 l 195 972 l 149 972 z "},"Ì":{"ha":344,"x_min":0,"x_max":0,"o":"m 362 1213 b 298 1151 326 1213 298 1187 b 362 1089 298 1116 326 1089 b 426 1151 399 1089 426 1116 b 362 1213 426 1187 399 1213 z m -36 1211 l -82 1211 l -82 1092 l -36 1092 b 25 1151 -1 1092 25 1117 b -36 1211 25 1186 0 1211 z m 73 1139 l 113 1139 l 113 1164 l 73 1164 l 73 1185 l 117 1185 l 117 1211 l 44 1211 l 44 1092 l 119 1092 l 119 1118 l 73 1118 z m 241 1211 l 210 1141 l 179 1211 l 151 1211 l 133 1092 l 161 1092 l 172 1166 l 207 1091 l 214 1091 l 248 1166 l 259 1092 l 287 1092 l 269 1211 z m 362 1115 b 327 1151 342 1115 327 1131 b 362 1187 327 1171 342 1187 b 397 1151 382 1187 397 1172 b 362 1115 397 1131 382 1115 z m -36 1118 l -54 1118 l -54 1185 l -36 1185 b -4 1151 -17 1185 -4 1171 b -36 1118 -4 1132 -17 1118 z m 149 0 l 195 0 l 195 972 l 149 972 z "},"Ī":{"ha":344,"x_min":0,"x_max":0,"o":"m 364 1213 b 300 1151 328 1213 300 1187 b 364 1089 300 1116 328 1089 b 428 1151 401 1089 428 1116 b 364 1213 428 1187 401 1213 z m -33 1211 l -80 1211 l -80 1092 l -33 1092 b 27 1151 2 1092 27 1117 b -33 1211 27 1186 2 1211 z m 75 1139 l 115 1139 l 115 1164 l 75 1164 l 75 1185 l 119 1185 l 119 1211 l 47 1211 l 47 1092 l 121 1092 l 121 1118 l 75 1118 z m 243 1211 l 212 1141 l 182 1211 l 153 1211 l 135 1092 l 164 1092 l 174 1166 l 209 1091 l 216 1091 l 250 1166 l 261 1092 l 289 1092 l 271 1211 z m 364 1115 b 329 1151 344 1115 329 1131 b 364 1187 329 1171 344 1187 b 399 1151 384 1187 399 1172 b 364 1115 399 1131 384 1115 z m -34 1118 l -51 1118 l -51 1185 l -34 1185 b -2 1151 -15 1185 -2 1171 b -34 1118 -2 1132 -15 1118 z m 149 0 l 195 0 l 195 972 l 149 972 z "},"Į":{"ha":344,"x_min":0,"x_max":0,"o":"m 364 1213 b 300 1151 328 1213 300 1187 b 364 1089 300 1116 328 1089 b 428 1151 401 1089 428 1116 b 364 1213 428 1187 401 1213 z m -33 1211 l -80 1211 l -80 1092 l -33 1092 b 27 1151 2 1092 27 1117 b -33 1211 27 1186 2 1211 z m 75 1139 l 115 1139 l 115 1164 l 75 1164 l 75 1185 l 119 1185 l 119 1211 l 47 1211 l 47 1092 l 121 1092 l 121 1118 l 75 1118 z m 243 1211 l 212 1141 l 182 1211 l 153 1211 l 135 1092 l 164 1092 l 174 1166 l 209 1091 l 216 1091 l 250 1166 l 261 1092 l 289 1092 l 271 1211 z m 364 1115 b 329 1151 344 1115 329 1131 b 364 1187 329 1171 344 1187 b 399 1151 384 1187 399 1172 b 364 1115 399 1131 384 1115 z m -34 1118 l -51 1118 l -51 1185 l -34 1185 b -2 1151 -15 1185 -2 1171 b -34 1118 -2 1132 -15 1118 z m 149 0 l 195 0 l 195 972 l 149 972 z "},"Ĩ":{"ha":344,"x_min":0,"x_max":0,"o":"m 364 1213 b 300 1151 328 1213 300 1187 b 364 1089 300 1116 328 1089 b 428 1151 401 1089 428 1116 b 364 1213 428 1187 401 1213 z m -33 1211 l -80 1211 l -80 1092 l -33 1092 b 27 1151 2 1092 27 1117 b -33 1211 27 1186 2 1211 z m 75 1139 l 115 1139 l 115 1164 l 75 1164 l 75 1185 l 119 1185 l 119 1211 l 47 1211 l 47 1092 l 121 1092 l 121 1118 l 75 1118 z m 243 1211 l 212 1141 l 182 1211 l 153 1211 l 135 1092 l 164 1092 l 174 1166 l 209 1091 l 216 1091 l 250 1166 l 261 1092 l 289 1092 l 271 1211 z m 364 1115 b 329 1151 344 1115 329 1131 b 364 1187 329 1171 344 1187 b 399 1151 384 1187 399 1172 b 364 1115 399 1131 384 1115 z m -34 1118 l -51 1118 l -51 1185 l -34 1185 b -2 1151 -15 1185 -2 1171 b -34 1118 -2 1132 -15 1118 z m 149 0 l 195 0 l 195 972 l 149 972 z "},"J":{"ha":817,"x_min":0,"x_max":0,"o":"m 363 -15 b 679 312 540 -15 679 125 l 679 972 l 634 972 l 634 314 b 363 30 634 154 515 30 b 90 314 209 30 90 153 l 90 322 l 45 322 l 45 312 b 363 -15 45 125 185 -15 z "},"Ĵ":{"ha":817,"x_min":0,"x_max":0,"o":"m 845 1213 b 781 1151 809 1213 781 1187 b 845 1089 781 1116 809 1089 b 909 1151 882 1089 909 1116 b 845 1213 909 1187 882 1213 z m 447 1211 l 401 1211 l 401 1092 l 447 1092 b 508 1151 482 1092 508 1117 b 447 1211 508 1186 483 1211 z m 556 1139 l 596 1139 l 596 1164 l 556 1164 l 556 1185 l 600 1185 l 600 1211 l 527 1211 l 527 1092 l 602 1092 l 602 1118 l 556 1118 z m 724 1211 l 693 1141 l 662 1211 l 634 1211 l 616 1092 l 644 1092 l 655 1166 l 689 1091 l 697 1091 l 731 1166 l 742 1092 l 770 1092 l 752 1211 z m 845 1115 b 810 1151 825 1115 810 1131 b 845 1187 810 1171 825 1187 b 880 1151 865 1187 880 1172 b 845 1115 880 1131 865 1115 z m 447 1118 l 429 1118 l 429 1185 l 447 1185 b 479 1151 466 1185 479 1171 b 447 1118 479 1132 466 1118 z m 363 -15 b 679 312 540 -15 679 125 l 679 972 l 634 972 l 634 314 b 363 30 634 154 515 30 b 90 314 209 30 90 153 l 90 322 l 45 322 l 45 312 b 363 -15 45 125 185 -15 z "},"K":{"ha":839,"x_min":0,"x_max":0,"o":"m 776 0 l 835 0 l 401 506 l 799 972 l 740 972 l 360 527 l 195 527 l 195 972 l 149 972 l 149 0 l 195 0 l 195 484 l 360 484 z "},"L":{"ha":700,"x_min":0,"x_max":0,"o":"m 195 43 l 195 972 l 149 972 l 149 0 l 670 0 l 670 43 z "},"Ĺ":{"ha":700,"x_min":0,"x_max":0,"o":"m 385 1089 b 449 1151 421 1089 449 1116 b 385 1213 449 1187 421 1213 b 321 1151 349 1213 321 1187 b 385 1089 321 1116 349 1089 z m -13 1211 l -59 1211 l -59 1092 l -13 1092 b 48 1151 22 1092 48 1117 b -13 1211 48 1186 22 1211 z m 96 1139 l 136 1139 l 136 1164 l 96 1164 l 96 1185 l 140 1185 l 140 1211 l 67 1211 l 67 1092 l 142 1092 l 142 1118 l 96 1118 z m 195 1166 l 229 1091 l 236 1091 l 271 1166 l 282 1092 l 310 1092 l 292 1211 l 264 1211 l 233 1141 l 202 1211 l 174 1211 l 156 1092 l 184 1092 z m 385 1187 b 420 1151 405 1187 420 1172 b 385 1115 420 1131 405 1115 b 350 1151 365 1115 350 1131 b 385 1187 350 1171 365 1187 z m -13 1118 l -31 1118 l -31 1185 l -13 1185 b 19 1151 6 1185 19 1171 b -13 1118 19 1132 6 1118 z m 195 43 l 195 972 l 149 972 l 149 0 l 670 0 l 670 43 z "},"Ľ":{"ha":700,"x_min":0,"x_max":0,"o":"m 385 1089 b 449 1151 421 1089 449 1116 b 385 1213 449 1187 421 1213 b 321 1151 349 1213 321 1187 b 385 1089 321 1116 349 1089 z m -13 1211 l -59 1211 l -59 1092 l -13 1092 b 48 1151 22 1092 48 1117 b -13 1211 48 1186 22 1211 z m 96 1139 l 136 1139 l 136 1164 l 96 1164 l 96 1185 l 140 1185 l 140 1211 l 67 1211 l 67 1092 l 142 1092 l 142 1118 l 96 1118 z m 195 1166 l 229 1091 l 236 1091 l 271 1166 l 282 1092 l 310 1092 l 292 1211 l 264 1211 l 233 1141 l 202 1211 l 174 1211 l 156 1092 l 184 1092 z m 385 1187 b 420 1151 405 1187 420 1172 b 385 1115 420 1131 405 1115 b 350 1151 365 1115 350 1131 b 385 1187 350 1171 365 1187 z m -13 1118 l -31 1118 l -31 1185 l -13 1185 b 19 1151 6 1185 19 1171 b -13 1118 19 1132 6 1118 z m 195 43 l 195 972 l 149 972 l 149 0 l 670 0 l 670 43 z "},"Ŀ":{"ha":700,"x_min":0,"x_max":0,"o":"m 385 1089 b 449 1151 421 1089 449 1116 b 385 1213 449 1187 421 1213 b 321 1151 349 1213 321 1187 b 385 1089 321 1116 349 1089 z m -13 1211 l -59 1211 l -59 1092 l -13 1092 b 48 1151 22 1092 48 1117 b -13 1211 48 1186 22 1211 z m 96 1139 l 136 1139 l 136 1164 l 96 1164 l 96 1185 l 140 1185 l 140 1211 l 67 1211 l 67 1092 l 142 1092 l 142 1118 l 96 1118 z m 195 1166 l 229 1091 l 236 1091 l 271 1166 l 282 1092 l 310 1092 l 292 1211 l 264 1211 l 233 1141 l 202 1211 l 174 1211 l 156 1092 l 184 1092 z m 385 1187 b 420 1151 405 1187 420 1172 b 385 1115 420 1131 405 1115 b 350 1151 365 1115 350 1131 b 385 1187 350 1171 365 1187 z m -13 1118 l -31 1118 l -31 1185 l -13 1185 b 19 1151 6 1185 19 1171 b -13 1118 19 1132 6 1118 z m 195 43 l 195 972 l 149 972 l 149 0 l 670 0 l 670 43 z "},"Ł":{"ha":700,"x_min":0,"x_max":0,"o":"m 385 1089 b 449 1151 421 1089 449 1116 b 385 1213 449 1187 421 1213 b 321 1151 349 1213 321 1187 b 385 1089 321 1116 349 1089 z m -13 1211 l -59 1211 l -59 1092 l -13 1092 b 48 1151 22 1092 48 1117 b -13 1211 48 1186 22 1211 z m 96 1139 l 136 1139 l 136 1164 l 96 1164 l 96 1185 l 140 1185 l 140 1211 l 67 1211 l 67 1092 l 142 1092 l 142 1118 l 96 1118 z m 195 1166 l 229 1091 l 236 1091 l 271 1166 l 282 1092 l 310 1092 l 292 1211 l 264 1211 l 233 1141 l 202 1211 l 174 1211 l 156 1092 l 184 1092 z m 385 1187 b 420 1151 405 1187 420 1172 b 385 1115 420 1131 405 1115 b 350 1151 365 1115 350 1131 b 385 1187 350 1171 365 1187 z m -13 1118 l -31 1118 l -31 1185 l -13 1185 b 19 1151 6 1185 19 1171 b -13 1118 19 1132 6 1118 z m 195 43 l 195 972 l 149 972 l 149 0 l 670 0 l 670 43 z "},"M":{"ha":1310,"x_min":0,"x_max":0,"o":"m 1236 0 l 1066 972 l 1025 972 l 653 128 l 283 972 l 243 972 l 71 0 l 117 0 l 274 884 l 645 44 l 663 44 l 1035 885 l 1190 0 z "},"N":{"ha":1035,"x_min":0,"x_max":0,"o":"m 840 972 l 840 83 l 191 972 l 149 972 l 149 0 l 194 0 l 194 891 l 846 0 l 885 0 l 885 972 z "},"Ń":{"ha":1035,"x_min":0,"x_max":0,"o":"m 730 1089 b 793 1151 766 1089 793 1116 b 730 1213 793 1187 766 1213 b 666 1151 693 1213 666 1187 b 730 1089 666 1116 693 1089 z m 393 1151 b 332 1211 393 1186 367 1211 l 286 1211 l 286 1092 l 332 1092 b 393 1151 367 1092 393 1117 z m 487 1118 l 440 1118 l 440 1139 l 480 1139 l 480 1164 l 440 1164 l 440 1185 l 485 1185 l 485 1211 l 412 1211 l 412 1092 l 487 1092 z m 540 1166 l 574 1091 l 581 1091 l 615 1166 l 626 1092 l 655 1092 l 637 1211 l 608 1211 l 578 1141 l 547 1211 l 519 1211 l 500 1092 l 529 1092 z m 730 1187 b 765 1151 750 1187 765 1172 b 730 1115 765 1131 750 1115 b 695 1151 710 1115 695 1131 b 730 1187 695 1171 710 1187 z m 314 1118 l 314 1185 l 331 1185 b 364 1151 351 1185 364 1171 b 331 1118 364 1132 351 1118 z m 840 972 l 840 83 l 191 972 l 149 972 l 149 0 l 194 0 l 194 891 l 846 0 l 885 0 l 885 972 z "},"Ň":{"ha":1035,"x_min":0,"x_max":0,"o":"m 730 1089 b 793 1151 766 1089 793 1116 b 730 1213 793 1187 766 1213 b 666 1151 693 1213 666 1187 b 730 1089 666 1116 693 1089 z m 393 1151 b 332 1211 393 1186 367 1211 l 286 1211 l 286 1092 l 332 1092 b 393 1151 367 1092 393 1117 z m 487 1118 l 440 1118 l 440 1139 l 480 1139 l 480 1164 l 440 1164 l 440 1185 l 485 1185 l 485 1211 l 412 1211 l 412 1092 l 487 1092 z m 540 1166 l 574 1091 l 581 1091 l 615 1166 l 626 1092 l 655 1092 l 637 1211 l 608 1211 l 578 1141 l 547 1211 l 519 1211 l 500 1092 l 529 1092 z m 730 1187 b 765 1151 750 1187 765 1172 b 730 1115 765 1131 750 1115 b 695 1151 710 1115 695 1131 b 730 1187 695 1171 710 1187 z m 314 1118 l 314 1185 l 331 1185 b 364 1151 351 1185 364 1171 b 331 1118 364 1132 351 1118 z m 840 972 l 840 83 l 191 972 l 149 972 l 149 0 l 194 0 l 194 891 l 846 0 l 885 0 l 885 972 z "},"Ŋ":{"ha":1035,"x_min":0,"x_max":0,"o":"m 730 1089 b 793 1151 766 1089 793 1116 b 730 1213 793 1187 766 1213 b 666 1151 693 1213 666 1187 b 730 1089 666 1116 693 1089 z m 393 1151 b 332 1211 393 1186 367 1211 l 286 1211 l 286 1092 l 332 1092 b 393 1151 367 1092 393 1117 z m 487 1118 l 440 1118 l 440 1139 l 480 1139 l 480 1164 l 440 1164 l 440 1185 l 485 1185 l 485 1211 l 412 1211 l 412 1092 l 487 1092 z m 540 1166 l 574 1091 l 581 1091 l 615 1166 l 626 1092 l 655 1092 l 637 1211 l 608 1211 l 578 1141 l 547 1211 l 519 1211 l 500 1092 l 529 1092 z m 730 1187 b 765 1151 750 1187 765 1172 b 730 1115 765 1131 750 1115 b 695 1151 710 1115 695 1131 b 730 1187 695 1171 710 1187 z m 314 1118 l 314 1185 l 331 1185 b 364 1151 351 1185 364 1171 b 331 1118 364 1132 351 1118 z m 840 972 l 840 83 l 191 972 l 149 972 l 149 0 l 194 0 l 194 891 l 846 0 l 885 0 l 885 972 z "},"Ñ":{"ha":1035,"x_min":0,"x_max":0,"o":"m 730 1089 b 793 1151 766 1089 793 1116 b 730 1213 793 1187 766 1213 b 666 1151 693 1213 666 1187 b 730 1089 666 1116 693 1089 z m 393 1151 b 332 1211 393 1186 367 1211 l 286 1211 l 286 1092 l 332 1092 b 393 1151 367 1092 393 1117 z m 487 1118 l 440 1118 l 440 1139 l 480 1139 l 480 1164 l 440 1164 l 440 1185 l 485 1185 l 485 1211 l 412 1211 l 412 1092 l 487 1092 z m 540 1166 l 574 1091 l 581 1091 l 615 1166 l 626 1092 l 655 1092 l 637 1211 l 608 1211 l 578 1141 l 547 1211 l 519 1211 l 500 1092 l 529 1092 z m 730 1187 b 765 1151 750 1187 765 1172 b 730 1115 765 1131 750 1115 b 695 1151 710 1115 695 1131 b 730 1187 695 1171 710 1187 z m 314 1118 l 314 1185 l 331 1185 b 364 1151 351 1185 364 1171 b 331 1118 364 1132 351 1118 z m 840 972 l 840 83 l 191 972 l 149 972 l 149 0 l 194 0 l 194 891 l 846 0 l 885 0 l 885 972 z "},"O":{"ha":1157,"x_min":0,"x_max":0,"o":"m 578 -15 b 1080 485 870 -15 1080 200 b 578 987 1080 772 870 987 b 77 485 286 987 77 770 b 578 -15 77 201 286 -15 z m 578 30 b 123 485 313 30 123 227 b 578 942 123 744 313 942 b 1033 485 843 942 1033 746 b 578 30 1033 225 843 30 z "},"Ó":{"ha":1157,"x_min":0,"x_max":0,"o":"m 771 1213 b 707 1151 734 1213 707 1187 b 771 1089 707 1116 734 1089 b 834 1151 807 1089 834 1116 b 771 1213 834 1187 807 1213 z m 373 1211 l 327 1211 l 327 1092 l 373 1092 b 434 1151 408 1092 434 1117 b 373 1211 434 1186 408 1211 z m 481 1139 l 521 1139 l 521 1164 l 481 1164 l 481 1185 l 526 1185 l 526 1211 l 453 1211 l 453 1092 l 528 1092 l 528 1118 l 481 1118 z m 649 1211 l 619 1141 l 588 1211 l 560 1211 l 541 1092 l 570 1092 l 581 1166 l 615 1091 l 622 1091 l 656 1166 l 667 1092 l 696 1092 l 678 1211 z m 771 1115 b 736 1151 751 1115 736 1131 b 771 1187 736 1171 751 1187 b 806 1151 791 1187 806 1172 b 771 1115 806 1131 791 1115 z m 372 1118 l 355 1118 l 355 1185 l 372 1185 b 405 1151 392 1185 405 1171 b 372 1118 405 1132 392 1118 z m 578 -15 b 1080 485 870 -15 1080 200 b 578 987 1080 772 870 987 b 77 485 286 987 77 770 b 578 -15 77 201 286 -15 z m 578 30 b 123 485 313 30 123 227 b 578 942 123 744 313 942 b 1033 485 843 942 1033 746 b 578 30 1033 225 843 30 z "},"Ŏ":{"ha":1157,"x_min":0,"x_max":0,"o":"m 771 1213 b 707 1151 734 1213 707 1187 b 771 1089 707 1116 734 1089 b 834 1151 807 1089 834 1116 b 771 1213 834 1187 807 1213 z m 373 1211 l 327 1211 l 327 1092 l 373 1092 b 434 1151 408 1092 434 1117 b 373 1211 434 1186 408 1211 z m 481 1139 l 521 1139 l 521 1164 l 481 1164 l 481 1185 l 526 1185 l 526 1211 l 453 1211 l 453 1092 l 528 1092 l 528 1118 l 481 1118 z m 649 1211 l 619 1141 l 588 1211 l 560 1211 l 541 1092 l 570 1092 l 581 1166 l 615 1091 l 622 1091 l 656 1166 l 667 1092 l 696 1092 l 678 1211 z m 771 1115 b 736 1151 751 1115 736 1131 b 771 1187 736 1171 751 1187 b 806 1151 791 1187 806 1172 b 771 1115 806 1131 791 1115 z m 372 1118 l 355 1118 l 355 1185 l 372 1185 b 405 1151 392 1185 405 1171 b 372 1118 405 1132 392 1118 z m 578 -15 b 1080 485 870 -15 1080 200 b 578 987 1080 772 870 987 b 77 485 286 987 77 770 b 578 -15 77 201 286 -15 z m 578 30 b 123 485 313 30 123 227 b 578 942 123 744 313 942 b 1033 485 843 942 1033 746 b 578 30 1033 225 843 30 z "},"Ô":{"ha":1157,"x_min":0,"x_max":0,"o":"m 771 1213 b 707 1151 734 1213 707 1187 b 771 1089 707 1116 734 1089 b 834 1151 807 1089 834 1116 b 771 1213 834 1187 807 1213 z m 373 1211 l 327 1211 l 327 1092 l 373 1092 b 434 1151 408 1092 434 1117 b 373 1211 434 1186 408 1211 z m 481 1139 l 521 1139 l 521 1164 l 481 1164 l 481 1185 l 526 1185 l 526 1211 l 453 1211 l 453 1092 l 528 1092 l 528 1118 l 481 1118 z m 649 1211 l 619 1141 l 588 1211 l 560 1211 l 541 1092 l 570 1092 l 581 1166 l 615 1091 l 622 1091 l 656 1166 l 667 1092 l 696 1092 l 678 1211 z m 771 1115 b 736 1151 751 1115 736 1131 b 771 1187 736 1171 751 1187 b 806 1151 791 1187 806 1172 b 771 1115 806 1131 791 1115 z m 372 1118 l 355 1118 l 355 1185 l 372 1185 b 405 1151 392 1185 405 1171 b 372 1118 405 1132 392 1118 z m 578 -15 b 1080 485 870 -15 1080 200 b 578 987 1080 772 870 987 b 77 485 286 987 77 770 b 578 -15 77 201 286 -15 z m 578 30 b 123 485 313 30 123 227 b 578 942 123 744 313 942 b 1033 485 843 942 1033 746 b 578 30 1033 225 843 30 z "},"Ö":{"ha":1157,"x_min":0,"x_max":0,"o":"m 771 1213 b 707 1151 734 1213 707 1187 b 771 1089 707 1116 734 1089 b 834 1151 807 1089 834 1116 b 771 1213 834 1187 807 1213 z m 373 1211 l 327 1211 l 327 1092 l 373 1092 b 434 1151 408 1092 434 1117 b 373 1211 434 1186 408 1211 z m 481 1139 l 521 1139 l 521 1164 l 481 1164 l 481 1185 l 526 1185 l 526 1211 l 453 1211 l 453 1092 l 528 1092 l 528 1118 l 481 1118 z m 649 1211 l 619 1141 l 588 1211 l 560 1211 l 541 1092 l 570 1092 l 581 1166 l 615 1091 l 622 1091 l 656 1166 l 667 1092 l 696 1092 l 678 1211 z m 771 1115 b 736 1151 751 1115 736 1131 b 771 1187 736 1171 751 1187 b 806 1151 791 1187 806 1172 b 771 1115 806 1131 791 1115 z m 372 1118 l 355 1118 l 355 1185 l 372 1185 b 405 1151 392 1185 405 1171 b 372 1118 405 1132 392 1118 z m 578 -15 b 1080 485 870 -15 1080 200 b 578 987 1080 772 870 987 b 77 485 286 987 77 770 b 578 -15 77 201 286 -15 z m 578 30 b 123 485 313 30 123 227 b 578 942 123 744 313 942 b 1033 485 843 942 1033 746 b 578 30 1033 225 843 30 z "},"Ò":{"ha":1157,"x_min":0,"x_max":0,"o":"m 771 1213 b 707 1151 734 1213 707 1187 b 771 1089 707 1116 734 1089 b 834 1151 807 1089 834 1116 b 771 1213 834 1187 807 1213 z m 373 1211 l 327 1211 l 327 1092 l 373 1092 b 434 1151 408 1092 434 1117 b 373 1211 434 1186 408 1211 z m 481 1139 l 521 1139 l 521 1164 l 481 1164 l 481 1185 l 526 1185 l 526 1211 l 453 1211 l 453 1092 l 528 1092 l 528 1118 l 481 1118 z m 649 1211 l 619 1141 l 588 1211 l 560 1211 l 541 1092 l 570 1092 l 581 1166 l 615 1091 l 622 1091 l 656 1166 l 667 1092 l 696 1092 l 678 1211 z m 771 1115 b 736 1151 751 1115 736 1131 b 771 1187 736 1171 751 1187 b 806 1151 791 1187 806 1172 b 771 1115 806 1131 791 1115 z m 372 1118 l 355 1118 l 355 1185 l 372 1185 b 405 1151 392 1185 405 1171 b 372 1118 405 1132 392 1118 z m 578 -15 b 1080 485 870 -15 1080 200 b 578 987 1080 772 870 987 b 77 485 286 987 77 770 b 578 -15 77 201 286 -15 z m 578 30 b 123 485 313 30 123 227 b 578 942 123 744 313 942 b 1033 485 843 942 1033 746 b 578 30 1033 225 843 30 z "},"Ő":{"ha":1157,"x_min":0,"x_max":0,"o":"m 771 1213 b 707 1151 734 1213 707 1187 b 771 1089 707 1116 734 1089 b 834 1151 807 1089 834 1116 b 771 1213 834 1187 807 1213 z m 373 1211 l 327 1211 l 327 1092 l 373 1092 b 434 1151 408 1092 434 1117 b 373 1211 434 1186 408 1211 z m 481 1139 l 521 1139 l 521 1164 l 481 1164 l 481 1185 l 526 1185 l 526 1211 l 453 1211 l 453 1092 l 528 1092 l 528 1118 l 481 1118 z m 649 1211 l 619 1141 l 588 1211 l 560 1211 l 541 1092 l 570 1092 l 581 1166 l 615 1091 l 622 1091 l 656 1166 l 667 1092 l 696 1092 l 678 1211 z m 771 1115 b 736 1151 751 1115 736 1131 b 771 1187 736 1171 751 1187 b 806 1151 791 1187 806 1172 b 771 1115 806 1131 791 1115 z m 372 1118 l 355 1118 l 355 1185 l 372 1185 b 405 1151 392 1185 405 1171 b 372 1118 405 1132 392 1118 z m 578 -15 b 1080 485 870 -15 1080 200 b 578 987 1080 772 870 987 b 77 485 286 987 77 770 b 578 -15 77 201 286 -15 z m 578 30 b 123 485 313 30 123 227 b 578 942 123 744 313 942 b 1033 485 843 942 1033 746 b 578 30 1033 225 843 30 z "},"Ō":{"ha":1157,"x_min":0,"x_max":0,"o":"m 771 1213 b 707 1151 734 1213 707 1187 b 771 1089 707 1116 734 1089 b 834 1151 807 1089 834 1116 b 771 1213 834 1187 807 1213 z m 373 1211 l 327 1211 l 327 1092 l 373 1092 b 434 1151 408 1092 434 1117 b 373 1211 434 1186 408 1211 z m 481 1139 l 521 1139 l 521 1164 l 481 1164 l 481 1185 l 526 1185 l 526 1211 l 453 1211 l 453 1092 l 528 1092 l 528 1118 l 481 1118 z m 649 1211 l 619 1141 l 588 1211 l 560 1211 l 541 1092 l 570 1092 l 581 1166 l 615 1091 l 622 1091 l 656 1166 l 667 1092 l 696 1092 l 678 1211 z m 771 1115 b 736 1151 751 1115 736 1131 b 771 1187 736 1171 751 1187 b 806 1151 791 1187 806 1172 b 771 1115 806 1131 791 1115 z m 372 1118 l 355 1118 l 355 1185 l 372 1185 b 405 1151 392 1185 405 1171 b 372 1118 405 1132 392 1118 z m 578 -15 b 1080 485 870 -15 1080 200 b 578 987 1080 772 870 987 b 77 485 286 987 77 770 b 578 -15 77 201 286 -15 z m 578 30 b 123 485 313 30 123 227 b 578 942 123 744 313 942 b 1033 485 843 942 1033 746 b 578 30 1033 225 843 30 z "},"Ø":{"ha":1157,"x_min":0,"x_max":0,"o":"m 771 1213 b 707 1151 734 1213 707 1187 b 771 1089 707 1116 734 1089 b 834 1151 807 1089 834 1116 b 771 1213 834 1187 807 1213 z m 373 1211 l 327 1211 l 327 1092 l 373 1092 b 434 1151 408 1092 434 1117 b 373 1211 434 1186 408 1211 z m 481 1139 l 521 1139 l 521 1164 l 481 1164 l 481 1185 l 526 1185 l 526 1211 l 453 1211 l 453 1092 l 528 1092 l 528 1118 l 481 1118 z m 649 1211 l 619 1141 l 588 1211 l 560 1211 l 541 1092 l 570 1092 l 581 1166 l 615 1091 l 622 1091 l 656 1166 l 667 1092 l 696 1092 l 678 1211 z m 771 1115 b 736 1151 751 1115 736 1131 b 771 1187 736 1171 751 1187 b 806 1151 791 1187 806 1172 b 771 1115 806 1131 791 1115 z m 372 1118 l 355 1118 l 355 1185 l 372 1185 b 405 1151 392 1185 405 1171 b 372 1118 405 1132 392 1118 z m 578 -15 b 1080 485 870 -15 1080 200 b 578 987 1080 772 870 987 b 77 485 286 987 77 770 b 578 -15 77 201 286 -15 z m 578 30 b 123 485 313 30 123 227 b 578 942 123 744 313 942 b 1033 485 843 942 1033 746 b 578 30 1033 225 843 30 z "},"Ǿ":{"ha":1157,"x_min":0,"x_max":0,"o":"m 771 1089 b 771 1089 771 1089 771 1089 l 771 1089 b 834 1151 807 1089 834 1116 b 771 1213 834 1187 807 1213 b 771 1213 771 1213 771 1213 l 771 1213 b 707 1151 734 1213 707 1187 b 771 1089 707 1116 734 1089 z m 327 1092 l 373 1092 b 434 1151 408 1092 434 1117 b 373 1211 434 1186 408 1211 l 327 1211 z m 453 1092 l 528 1092 l 528 1118 l 481 1118 l 481 1139 l 521 1139 l 521 1164 l 481 1164 l 481 1185 l 526 1185 l 526 1211 l 453 1211 z m 541 1092 l 570 1092 l 581 1165 l 615 1091 l 622 1091 l 656 1165 l 667 1092 l 696 1092 l 678 1211 l 649 1211 l 619 1141 l 588 1211 l 559 1211 z m 805 1151 b 771 1116 805 1131 791 1116 b 736 1151 751 1116 736 1131 b 771 1187 736 1171 751 1187 b 805 1151 791 1187 805 1172 z m 372 1185 b 404 1151 391 1185 404 1171 b 372 1118 404 1132 391 1118 l 355 1118 l 355 1185 z m 578 987 b 77 485 286 987 77 770 b 578 -15 77 201 286 -15 b 1080 485 870 -15 1080 200 b 578 987 1080 772 870 987 z m 578 30 b 123 485 313 30 123 227 b 578 942 123 744 313 942 b 1033 485 843 942 1033 746 b 578 30 1033 225 843 30 z "},"Õ":{"ha":1157,"x_min":0,"x_max":0,"o":"m 771 1213 b 707 1151 734 1213 707 1187 b 771 1089 707 1116 734 1089 b 834 1151 807 1089 834 1116 b 771 1213 834 1187 807 1213 z m 373 1211 l 327 1211 l 327 1092 l 373 1092 b 434 1151 408 1092 434 1117 b 373 1211 434 1186 408 1211 z m 481 1139 l 521 1139 l 521 1164 l 481 1164 l 481 1185 l 526 1185 l 526 1211 l 453 1211 l 453 1092 l 528 1092 l 528 1118 l 481 1118 z m 649 1211 l 619 1141 l 588 1211 l 560 1211 l 541 1092 l 570 1092 l 581 1166 l 615 1091 l 622 1091 l 656 1166 l 667 1092 l 696 1092 l 678 1211 z m 771 1115 b 736 1151 751 1115 736 1131 b 771 1187 736 1171 751 1187 b 806 1151 791 1187 806 1172 b 771 1115 806 1131 791 1115 z m 372 1118 l 355 1118 l 355 1185 l 372 1185 b 405 1151 392 1185 405 1171 b 372 1118 405 1132 392 1118 z m 578 -15 b 1080 485 870 -15 1080 200 b 578 987 1080 772 870 987 b 77 485 286 987 77 770 b 578 -15 77 201 286 -15 z m 578 30 b 123 485 313 30 123 227 b 578 942 123 744 313 942 b 1033 485 843 942 1033 746 b 578 30 1033 225 843 30 z "},"Œ":{"ha":1157,"x_min":0,"x_max":0,"o":"m 771 1213 b 707 1151 734 1213 707 1187 b 771 1089 707 1116 734 1089 b 834 1151 807 1089 834 1116 b 771 1213 834 1187 807 1213 z m 373 1211 l 327 1211 l 327 1092 l 373 1092 b 434 1151 408 1092 434 1117 b 373 1211 434 1186 408 1211 z m 481 1139 l 521 1139 l 521 1164 l 481 1164 l 481 1185 l 526 1185 l 526 1211 l 453 1211 l 453 1092 l 528 1092 l 528 1118 l 481 1118 z m 649 1211 l 619 1141 l 588 1211 l 560 1211 l 541 1092 l 570 1092 l 581 1166 l 615 1091 l 622 1091 l 656 1166 l 667 1092 l 696 1092 l 678 1211 z m 771 1115 b 736 1151 751 1115 736 1131 b 771 1187 736 1171 751 1187 b 806 1151 791 1187 806 1172 b 771 1115 806 1131 791 1115 z m 372 1118 l 355 1118 l 355 1185 l 372 1185 b 405 1151 392 1185 405 1171 b 372 1118 405 1132 392 1118 z m 578 -15 b 1080 485 870 -15 1080 200 b 578 987 1080 772 870 987 b 77 485 286 987 77 770 b 578 -15 77 201 286 -15 z m 578 30 b 123 485 313 30 123 227 b 578 942 123 744 313 942 b 1033 485 843 942 1033 746 b 578 30 1033 225 843 30 z "},"P":{"ha":832,"x_min":0,"x_max":0,"o":"m 477 972 l 149 972 l 149 0 l 195 0 l 195 387 l 477 387 b 782 680 651 387 782 513 b 477 972 782 847 650 972 z m 475 432 l 195 432 l 195 928 l 475 928 b 736 680 625 928 736 822 b 475 432 736 538 625 432 z "},"Þ":{"ha":522,"x_min":0,"x_max":0,"o":"m 261 740 b 383 863 331 740 383 792 b 261 987 383 935 331 987 b 139 863 191 987 139 935 b 261 740 139 792 191 740 z m 261 954 b 352 863 313 954 352 916 b 261 772 352 811 313 772 b 170 863 209 772 170 811 b 261 954 170 916 209 954 z m 143 641 l 312 564 l 143 487 l 143 456 l 379 417 l 379 450 l 199 480 l 374 560 l 374 568 l 199 649 l 379 678 l 379 711 l 143 672 z m 348 279 l 273 279 l 273 373 l 243 373 l 243 279 l 173 279 l 173 382 l 143 382 l 143 247 l 379 247 l 379 386 l 348 386 z m 261 200 b 143 80 192 200 143 149 l 143 0 l 379 0 l 379 80 b 261 200 379 149 329 200 z m 349 32 l 173 32 l 173 79 b 261 167 173 130 210 167 b 349 79 312 167 349 130 z "},"Q":{"ha":1157,"x_min":0,"x_max":0,"o":"m 1092 -142 l 888 84 b 1080 485 1007 174 1080 317 b 578 987 1080 772 870 987 b 77 485 286 987 77 770 b 578 -15 77 201 286 -15 b 853 60 682 -15 775 12 l 1035 -142 z m 578 30 b 123 485 313 30 123 227 b 578 942 123 744 313 942 b 1033 485 843 942 1033 746 b 857 118 1033 331 967 200 l 613 388 l 556 388 l 821 95 b 578 30 752 54 670 30 z "},"R":{"ha":879,"x_min":0,"x_max":0,"o":"m 798 696 b 502 972 798 857 673 972 l 149 972 l 149 0 l 195 0 l 195 422 l 493 422 l 745 0 l 797 0 l 543 424 b 798 696 693 441 798 550 z m 195 928 l 501 928 b 752 697 647 928 752 831 b 501 466 752 563 648 466 l 195 466 z "},"Ŕ":{"ha":879,"x_min":0,"x_max":0,"o":"m 603 1089 b 667 1151 640 1089 667 1116 b 603 1213 667 1187 640 1213 b 539 1151 567 1213 539 1187 b 603 1089 539 1116 567 1089 z m 266 1151 b 205 1211 266 1186 241 1211 l 159 1211 l 159 1092 l 205 1092 b 266 1151 240 1092 266 1117 z m 360 1118 l 314 1118 l 314 1139 l 354 1139 l 354 1164 l 314 1164 l 314 1185 l 358 1185 l 358 1211 l 285 1211 l 285 1092 l 360 1092 z m 413 1166 l 447 1091 l 455 1091 l 489 1166 l 500 1092 l 528 1092 l 510 1211 l 482 1211 l 451 1141 l 420 1211 l 392 1211 l 374 1092 l 402 1092 z m 603 1187 b 638 1151 623 1187 638 1172 b 603 1115 638 1131 623 1115 b 568 1151 583 1115 568 1131 b 603 1187 568 1171 583 1187 z m 187 1118 l 187 1185 l 205 1185 b 237 1151 224 1185 237 1171 b 205 1118 237 1132 224 1118 z m 798 696 b 502 972 798 857 673 972 l 149 972 l 149 0 l 195 0 l 195 422 l 493 422 l 745 0 l 797 0 l 543 424 b 798 696 693 441 798 550 z m 195 928 l 501 928 b 752 697 647 928 752 831 b 501 466 752 563 648 466 l 195 466 z "},"Ř":{"ha":879,"x_min":0,"x_max":0,"o":"m 603 1089 b 667 1151 640 1089 667 1116 b 603 1213 667 1187 640 1213 b 539 1151 567 1213 539 1187 b 603 1089 539 1116 567 1089 z m 266 1151 b 205 1211 266 1186 241 1211 l 159 1211 l 159 1092 l 205 1092 b 266 1151 240 1092 266 1117 z m 360 1118 l 314 1118 l 314 1139 l 354 1139 l 354 1164 l 314 1164 l 314 1185 l 358 1185 l 358 1211 l 285 1211 l 285 1092 l 360 1092 z m 413 1166 l 447 1091 l 455 1091 l 489 1166 l 500 1092 l 528 1092 l 510 1211 l 482 1211 l 451 1141 l 420 1211 l 392 1211 l 374 1092 l 402 1092 z m 603 1187 b 638 1151 623 1187 638 1172 b 603 1115 638 1131 623 1115 b 568 1151 583 1115 568 1131 b 603 1187 568 1171 583 1187 z m 187 1118 l 187 1185 l 205 1185 b 237 1151 224 1185 237 1171 b 205 1118 237 1132 224 1118 z m 798 696 b 502 972 798 857 673 972 l 149 972 l 149 0 l 195 0 l 195 422 l 493 422 l 745 0 l 797 0 l 543 424 b 798 696 693 441 798 550 z m 195 928 l 501 928 b 752 697 647 928 752 831 b 501 466 752 563 648 466 l 195 466 z "},"S":{"ha":810,"x_min":0,"x_max":0,"o":"m 414 -11 b 735 262 601 -11 735 97 b 420 520 735 450 574 486 b 140 728 277 552 140 581 b 406 940 140 857 245 940 b 664 713 560 940 664 851 l 709 713 b 407 984 709 876 590 984 b 94 727 217 984 94 883 b 407 478 94 547 256 511 b 689 262 552 445 689 416 b 414 33 689 126 575 33 b 119 286 237 33 119 133 l 73 286 b 414 -11 73 106 209 -11 z "},"Ś":{"ha":810,"x_min":0,"x_max":0,"o":"m 592 1213 b 528 1151 555 1213 528 1187 b 592 1089 528 1116 555 1089 b 655 1151 628 1089 655 1116 b 592 1213 655 1187 628 1213 z m 194 1211 l 148 1211 l 148 1092 l 194 1092 b 254 1151 229 1092 254 1117 b 194 1211 254 1186 229 1211 z m 302 1139 l 342 1139 l 342 1164 l 302 1164 l 302 1185 l 347 1185 l 347 1211 l 274 1211 l 274 1092 l 348 1092 l 348 1118 l 302 1118 z m 470 1211 l 440 1141 l 409 1211 l 381 1211 l 362 1092 l 391 1092 l 402 1166 l 436 1091 l 443 1091 l 477 1166 l 488 1092 l 517 1092 l 499 1211 z m 592 1115 b 556 1151 572 1115 556 1131 b 592 1187 556 1171 572 1187 b 627 1151 612 1187 627 1172 b 592 1115 627 1131 612 1115 z m 193 1118 l 176 1118 l 176 1185 l 193 1185 b 226 1151 212 1185 226 1171 b 193 1118 226 1132 212 1118 z m 414 -11 b 735 262 601 -11 735 97 b 420 520 735 450 574 486 b 140 728 277 552 140 581 b 406 940 140 857 245 940 b 664 713 560 940 664 851 l 709 713 b 407 984 709 876 590 984 b 94 727 217 984 94 883 b 407 478 94 547 256 511 b 689 262 552 445 689 416 b 414 33 689 126 575 33 b 119 286 237 33 119 133 l 73 286 b 414 -11 73 106 209 -11 z "},"Š":{"ha":810,"x_min":0,"x_max":0,"o":"m 592 1213 b 528 1151 555 1213 528 1187 b 592 1089 528 1116 555 1089 b 655 1151 628 1089 655 1116 b 592 1213 655 1187 628 1213 z m 194 1211 l 148 1211 l 148 1092 l 194 1092 b 254 1151 229 1092 254 1117 b 194 1211 254 1186 229 1211 z m 302 1139 l 342 1139 l 342 1164 l 302 1164 l 302 1185 l 347 1185 l 347 1211 l 274 1211 l 274 1092 l 348 1092 l 348 1118 l 302 1118 z m 470 1211 l 440 1141 l 409 1211 l 381 1211 l 362 1092 l 391 1092 l 402 1166 l 436 1091 l 443 1091 l 477 1166 l 488 1092 l 517 1092 l 499 1211 z m 592 1115 b 556 1151 572 1115 556 1131 b 592 1187 556 1171 572 1187 b 627 1151 612 1187 627 1172 b 592 1115 627 1131 612 1115 z m 193 1118 l 176 1118 l 176 1185 l 193 1185 b 226 1151 212 1185 226 1171 b 193 1118 226 1132 212 1118 z m 414 -11 b 735 262 601 -11 735 97 b 420 520 735 450 574 486 b 140 728 277 552 140 581 b 406 940 140 857 245 940 b 664 713 560 940 664 851 l 709 713 b 407 984 709 876 590 984 b 94 727 217 984 94 883 b 407 478 94 547 256 511 b 689 262 552 445 689 416 b 414 33 689 126 575 33 b 119 286 237 33 119 133 l 73 286 b 414 -11 73 106 209 -11 z "},"Ş":{"ha":810,"x_min":0,"x_max":0,"o":"m 592 1213 b 528 1151 555 1213 528 1187 b 592 1089 528 1116 555 1089 b 655 1151 628 1089 655 1116 b 592 1213 655 1187 628 1213 z m 194 1211 l 148 1211 l 148 1092 l 194 1092 b 254 1151 229 1092 254 1117 b 194 1211 254 1186 229 1211 z m 302 1139 l 342 1139 l 342 1164 l 302 1164 l 302 1185 l 347 1185 l 347 1211 l 274 1211 l 274 1092 l 348 1092 l 348 1118 l 302 1118 z m 470 1211 l 440 1141 l 409 1211 l 381 1211 l 362 1092 l 391 1092 l 402 1166 l 436 1091 l 443 1091 l 477 1166 l 488 1092 l 517 1092 l 499 1211 z m 592 1115 b 556 1151 572 1115 556 1131 b 592 1187 556 1171 572 1187 b 627 1151 612 1187 627 1172 b 592 1115 627 1131 612 1115 z m 193 1118 l 176 1118 l 176 1185 l 193 1185 b 226 1151 212 1185 226 1171 b 193 1118 226 1132 212 1118 z m 414 -11 b 735 262 601 -11 735 97 b 420 520 735 450 574 486 b 140 728 277 552 140 581 b 406 940 140 857 245 940 b 664 713 560 940 664 851 l 709 713 b 407 984 709 876 590 984 b 94 727 217 984 94 883 b 407 478 94 547 256 511 b 689 262 552 445 689 416 b 414 33 689 126 575 33 b 119 286 237 33 119 133 l 73 286 b 414 -11 73 106 209 -11 z "},"Ŝ":{"ha":810,"x_min":0,"x_max":0,"o":"m 592 1213 b 528 1151 555 1213 528 1187 b 592 1089 528 1116 555 1089 b 655 1151 628 1089 655 1116 b 592 1213 655 1187 628 1213 z m 194 1211 l 148 1211 l 148 1092 l 194 1092 b 254 1151 229 1092 254 1117 b 194 1211 254 1186 229 1211 z m 302 1139 l 342 1139 l 342 1164 l 302 1164 l 302 1185 l 347 1185 l 347 1211 l 274 1211 l 274 1092 l 348 1092 l 348 1118 l 302 1118 z m 470 1211 l 440 1141 l 409 1211 l 381 1211 l 362 1092 l 391 1092 l 402 1166 l 436 1091 l 443 1091 l 477 1166 l 488 1092 l 517 1092 l 499 1211 z m 592 1115 b 556 1151 572 1115 556 1131 b 592 1187 556 1171 572 1187 b 627 1151 612 1187 627 1172 b 592 1115 627 1131 612 1115 z m 193 1118 l 176 1118 l 176 1185 l 193 1185 b 226 1151 212 1185 226 1171 b 193 1118 226 1132 212 1118 z m 414 -11 b 735 262 601 -11 735 97 b 420 520 735 450 574 486 b 140 728 277 552 140 581 b 406 940 140 857 245 940 b 664 713 560 940 664 851 l 709 713 b 407 984 709 876 590 984 b 94 727 217 984 94 883 b 407 478 94 547 256 511 b 689 262 552 445 689 416 b 414 33 689 126 575 33 b 119 286 237 33 119 133 l 73 286 b 414 -11 73 106 209 -11 z "},"ẞ":{"ha":522,"x_min":0,"x_max":0,"o":"m 261 740 b 383 863 331 740 383 792 b 261 987 383 935 331 987 b 139 863 191 987 139 935 b 261 740 139 792 191 740 z m 261 954 b 352 863 313 954 352 916 b 261 772 352 811 313 772 b 170 863 209 772 170 811 b 261 954 170 916 209 954 z m 143 641 l 312 564 l 143 487 l 143 456 l 379 417 l 379 450 l 199 480 l 374 560 l 374 568 l 199 649 l 379 678 l 379 711 l 143 672 z m 348 279 l 273 279 l 273 373 l 243 373 l 243 279 l 173 279 l 173 382 l 143 382 l 143 247 l 379 247 l 379 386 l 348 386 z m 261 200 b 143 80 192 200 143 149 l 143 0 l 379 0 l 379 80 b 261 200 379 149 329 200 z m 349 32 l 173 32 l 173 79 b 261 167 173 130 210 167 b 349 79 312 167 349 130 z "},"T":{"ha":740,"x_min":0,"x_max":0,"o":"m 710 972 l 30 972 l 30 929 l 347 929 l 347 0 l 393 0 l 393 929 l 710 929 z "},"Ŧ":{"ha":740,"x_min":0,"x_max":0,"o":"m 563 1089 b 626 1151 599 1089 626 1116 b 563 1213 626 1187 599 1213 b 499 1151 526 1213 499 1187 b 563 1089 499 1116 526 1089 z m 226 1151 b 165 1211 226 1186 200 1211 l 119 1211 l 119 1092 l 165 1092 b 226 1151 200 1092 226 1117 z m 320 1118 l 273 1118 l 273 1139 l 313 1139 l 313 1164 l 273 1164 l 273 1185 l 318 1185 l 318 1211 l 245 1211 l 245 1092 l 320 1092 z m 373 1166 l 407 1091 l 414 1091 l 448 1166 l 459 1092 l 488 1092 l 470 1211 l 441 1211 l 411 1141 l 380 1211 l 352 1211 l 333 1092 l 362 1092 z m 563 1187 b 598 1151 583 1187 598 1172 b 563 1115 598 1131 583 1115 b 528 1151 543 1115 528 1131 b 563 1187 528 1171 543 1187 z m 147 1118 l 147 1185 l 164 1185 b 197 1151 184 1185 197 1171 b 164 1118 197 1132 184 1118 z m 710 972 l 30 972 l 30 929 l 347 929 l 347 0 l 393 0 l 393 929 l 710 929 z "},"Ť":{"ha":740,"x_min":0,"x_max":0,"o":"m 563 1089 b 626 1151 599 1089 626 1116 b 563 1213 626 1187 599 1213 b 499 1151 526 1213 499 1187 b 563 1089 499 1116 526 1089 z m 226 1151 b 165 1211 226 1186 200 1211 l 119 1211 l 119 1092 l 165 1092 b 226 1151 200 1092 226 1117 z m 320 1118 l 273 1118 l 273 1139 l 313 1139 l 313 1164 l 273 1164 l 273 1185 l 318 1185 l 318 1211 l 245 1211 l 245 1092 l 320 1092 z m 373 1166 l 407 1091 l 414 1091 l 448 1166 l 459 1092 l 488 1092 l 470 1211 l 441 1211 l 411 1141 l 380 1211 l 352 1211 l 333 1092 l 362 1092 z m 563 1187 b 598 1151 583 1187 598 1172 b 563 1115 598 1131 583 1115 b 528 1151 543 1115 528 1131 b 563 1187 528 1171 543 1187 z m 147 1118 l 147 1185 l 164 1185 b 197 1151 184 1185 197 1171 b 164 1118 197 1132 184 1118 z m 710 972 l 30 972 l 30 929 l 347 929 l 347 0 l 393 0 l 393 929 l 710 929 z "},"U":{"ha":1000,"x_min":0,"x_max":0,"o":"m 500 -12 b 864 358 710 -12 864 142 l 864 972 l 818 972 l 818 361 b 500 32 818 169 685 32 b 182 361 314 32 182 169 l 182 972 l 136 972 l 136 358 b 500 -12 136 142 290 -12 z "},"Ú":{"ha":1000,"x_min":0,"x_max":0,"o":"m 693 1213 b 629 1151 656 1213 629 1187 b 693 1089 629 1116 656 1089 b 756 1151 729 1089 756 1116 b 693 1213 756 1187 729 1213 z m 295 1211 l 249 1211 l 249 1092 l 295 1092 b 355 1151 330 1092 355 1117 b 295 1211 355 1186 330 1211 z m 403 1139 l 443 1139 l 443 1164 l 403 1164 l 403 1185 l 448 1185 l 448 1211 l 375 1211 l 375 1092 l 449 1092 l 449 1118 l 403 1118 z m 571 1211 l 541 1141 l 510 1211 l 482 1211 l 463 1092 l 492 1092 l 503 1166 l 537 1091 l 544 1091 l 578 1166 l 589 1092 l 618 1092 l 600 1211 z m 693 1115 b 657 1151 673 1115 657 1131 b 693 1187 657 1171 673 1187 b 728 1151 713 1187 728 1172 b 693 1115 728 1131 713 1115 z m 294 1118 l 277 1118 l 277 1185 l 294 1185 b 327 1151 313 1185 327 1171 b 294 1118 327 1132 313 1118 z m 500 -12 b 864 358 710 -12 864 142 l 864 972 l 818 972 l 818 361 b 500 32 818 169 685 32 b 182 361 314 32 182 169 l 182 972 l 136 972 l 136 358 b 500 -12 136 142 290 -12 z "},"Ŭ":{"ha":1000,"x_min":0,"x_max":0,"o":"m 693 1213 b 629 1151 656 1213 629 1187 b 693 1089 629 1116 656 1089 b 756 1151 729 1089 756 1116 b 693 1213 756 1187 729 1213 z m 295 1211 l 249 1211 l 249 1092 l 295 1092 b 355 1151 330 1092 355 1117 b 295 1211 355 1186 330 1211 z m 403 1139 l 443 1139 l 443 1164 l 403 1164 l 403 1185 l 448 1185 l 448 1211 l 375 1211 l 375 1092 l 449 1092 l 449 1118 l 403 1118 z m 571 1211 l 541 1141 l 510 1211 l 482 1211 l 463 1092 l 492 1092 l 503 1166 l 537 1091 l 544 1091 l 578 1166 l 589 1092 l 618 1092 l 600 1211 z m 693 1115 b 657 1151 673 1115 657 1131 b 693 1187 657 1171 673 1187 b 728 1151 713 1187 728 1172 b 693 1115 728 1131 713 1115 z m 294 1118 l 277 1118 l 277 1185 l 294 1185 b 327 1151 313 1185 327 1171 b 294 1118 327 1132 313 1118 z m 500 -12 b 864 358 710 -12 864 142 l 864 972 l 818 972 l 818 361 b 500 32 818 169 685 32 b 182 361 314 32 182 169 l 182 972 l 136 972 l 136 358 b 500 -12 136 142 290 -12 z "},"Û":{"ha":1000,"x_min":0,"x_max":0,"o":"m 693 1213 b 629 1151 656 1213 629 1187 b 693 1089 629 1116 656 1089 b 756 1151 729 1089 756 1116 b 693 1213 756 1187 729 1213 z m 295 1211 l 249 1211 l 249 1092 l 295 1092 b 355 1151 330 1092 355 1117 b 295 1211 355 1186 330 1211 z m 403 1139 l 443 1139 l 443 1164 l 403 1164 l 403 1185 l 448 1185 l 448 1211 l 375 1211 l 375 1092 l 449 1092 l 449 1118 l 403 1118 z m 571 1211 l 541 1141 l 510 1211 l 482 1211 l 463 1092 l 492 1092 l 503 1166 l 537 1091 l 544 1091 l 578 1166 l 589 1092 l 618 1092 l 600 1211 z m 693 1115 b 657 1151 673 1115 657 1131 b 693 1187 657 1171 673 1187 b 728 1151 713 1187 728 1172 b 693 1115 728 1131 713 1115 z m 294 1118 l 277 1118 l 277 1185 l 294 1185 b 327 1151 313 1185 327 1171 b 294 1118 327 1132 313 1118 z m 500 -12 b 864 358 710 -12 864 142 l 864 972 l 818 972 l 818 361 b 500 32 818 169 685 32 b 182 361 314 32 182 169 l 182 972 l 136 972 l 136 358 b 500 -12 136 142 290 -12 z "},"Ü":{"ha":1000,"x_min":0,"x_max":0,"o":"m 693 1213 b 629 1151 656 1213 629 1187 b 693 1089 629 1116 656 1089 b 756 1151 729 1089 756 1116 b 693 1213 756 1187 729 1213 z m 295 1211 l 249 1211 l 249 1092 l 295 1092 b 355 1151 330 1092 355 1117 b 295 1211 355 1186 330 1211 z m 403 1139 l 443 1139 l 443 1164 l 403 1164 l 403 1185 l 448 1185 l 448 1211 l 375 1211 l 375 1092 l 449 1092 l 449 1118 l 403 1118 z m 571 1211 l 541 1141 l 510 1211 l 482 1211 l 463 1092 l 492 1092 l 503 1166 l 537 1091 l 544 1091 l 578 1166 l 589 1092 l 618 1092 l 600 1211 z m 693 1115 b 657 1151 673 1115 657 1131 b 693 1187 657 1171 673 1187 b 728 1151 713 1187 728 1172 b 693 1115 728 1131 713 1115 z m 294 1118 l 277 1118 l 277 1185 l 294 1185 b 327 1151 313 1185 327 1171 b 294 1118 327 1132 313 1118 z m 500 -12 b 864 358 710 -12 864 142 l 864 972 l 818 972 l 818 361 b 500 32 818 169 685 32 b 182 361 314 32 182 169 l 182 972 l 136 972 l 136 358 b 500 -12 136 142 290 -12 z "},"Ù":{"ha":1000,"x_min":0,"x_max":0,"o":"m 693 1213 b 629 1151 656 1213 629 1187 b 693 1089 629 1116 656 1089 b 756 1151 729 1089 756 1116 b 693 1213 756 1187 729 1213 z m 295 1211 l 249 1211 l 249 1092 l 295 1092 b 355 1151 330 1092 355 1117 b 295 1211 355 1186 330 1211 z m 403 1139 l 443 1139 l 443 1164 l 403 1164 l 403 1185 l 448 1185 l 448 1211 l 375 1211 l 375 1092 l 449 1092 l 449 1118 l 403 1118 z m 571 1211 l 541 1141 l 510 1211 l 482 1211 l 463 1092 l 492 1092 l 503 1166 l 537 1091 l 544 1091 l 578 1166 l 589 1092 l 618 1092 l 600 1211 z m 693 1115 b 657 1151 673 1115 657 1131 b 693 1187 657 1171 673 1187 b 728 1151 713 1187 728 1172 b 693 1115 728 1131 713 1115 z m 294 1118 l 277 1118 l 277 1185 l 294 1185 b 327 1151 313 1185 327 1171 b 294 1118 327 1132 313 1118 z m 500 -12 b 864 358 710 -12 864 142 l 864 972 l 818 972 l 818 361 b 500 32 818 169 685 32 b 182 361 314 32 182 169 l 182 972 l 136 972 l 136 358 b 500 -12 136 142 290 -12 z "},"Ű":{"ha":1000,"x_min":0,"x_max":0,"o":"m 693 1213 b 629 1151 656 1213 629 1187 b 693 1089 629 1116 656 1089 b 756 1151 729 1089 756 1116 b 693 1213 756 1187 729 1213 z m 295 1211 l 249 1211 l 249 1092 l 295 1092 b 355 1151 330 1092 355 1117 b 295 1211 355 1186 330 1211 z m 403 1139 l 443 1139 l 443 1164 l 403 1164 l 403 1185 l 448 1185 l 448 1211 l 375 1211 l 375 1092 l 449 1092 l 449 1118 l 403 1118 z m 571 1211 l 541 1141 l 510 1211 l 482 1211 l 463 1092 l 492 1092 l 503 1166 l 537 1091 l 544 1091 l 578 1166 l 589 1092 l 618 1092 l 600 1211 z m 693 1115 b 657 1151 673 1115 657 1131 b 693 1187 657 1171 673 1187 b 728 1151 713 1187 728 1172 b 693 1115 728 1131 713 1115 z m 294 1118 l 277 1118 l 277 1185 l 294 1185 b 327 1151 313 1185 327 1171 b 294 1118 327 1132 313 1118 z m 500 -12 b 864 358 710 -12 864 142 l 864 972 l 818 972 l 818 361 b 500 32 818 169 685 32 b 182 361 314 32 182 169 l 182 972 l 136 972 l 136 358 b 500 -12 136 142 290 -12 z "},"Ū":{"ha":1000,"x_min":0,"x_max":0,"o":"m 693 1213 b 629 1151 656 1213 629 1187 b 693 1089 629 1116 656 1089 b 756 1151 729 1089 756 1116 b 693 1213 756 1187 729 1213 z m 295 1211 l 249 1211 l 249 1092 l 295 1092 b 355 1151 330 1092 355 1117 b 295 1211 355 1186 330 1211 z m 403 1139 l 443 1139 l 443 1164 l 403 1164 l 403 1185 l 448 1185 l 448 1211 l 375 1211 l 375 1092 l 449 1092 l 449 1118 l 403 1118 z m 571 1211 l 541 1141 l 510 1211 l 482 1211 l 463 1092 l 492 1092 l 503 1166 l 537 1091 l 544 1091 l 578 1166 l 589 1092 l 618 1092 l 600 1211 z m 693 1115 b 657 1151 673 1115 657 1131 b 693 1187 657 1171 673 1187 b 728 1151 713 1187 728 1172 b 693 1115 728 1131 713 1115 z m 294 1118 l 277 1118 l 277 1185 l 294 1185 b 327 1151 313 1185 327 1171 b 294 1118 327 1132 313 1118 z m 500 -12 b 864 358 710 -12 864 142 l 864 972 l 818 972 l 818 361 b 500 32 818 169 685 32 b 182 361 314 32 182 169 l 182 972 l 136 972 l 136 358 b 500 -12 136 142 290 -12 z "},"Ų":{"ha":1000,"x_min":0,"x_max":0,"o":"m 693 1213 b 629 1151 656 1213 629 1187 b 693 1089 629 1116 656 1089 b 756 1151 729 1089 756 1116 b 693 1213 756 1187 729 1213 z m 295 1211 l 249 1211 l 249 1092 l 295 1092 b 355 1151 330 1092 355 1117 b 295 1211 355 1186 330 1211 z m 403 1139 l 443 1139 l 443 1164 l 403 1164 l 403 1185 l 448 1185 l 448 1211 l 375 1211 l 375 1092 l 449 1092 l 449 1118 l 403 1118 z m 571 1211 l 541 1141 l 510 1211 l 482 1211 l 463 1092 l 492 1092 l 503 1166 l 537 1091 l 544 1091 l 578 1166 l 589 1092 l 618 1092 l 600 1211 z m 693 1115 b 657 1151 673 1115 657 1131 b 693 1187 657 1171 673 1187 b 728 1151 713 1187 728 1172 b 693 1115 728 1131 713 1115 z m 294 1118 l 277 1118 l 277 1185 l 294 1185 b 327 1151 313 1185 327 1171 b 294 1118 327 1132 313 1118 z m 500 -12 b 864 358 710 -12 864 142 l 864 972 l 818 972 l 818 361 b 500 32 818 169 685 32 b 182 361 314 32 182 169 l 182 972 l 136 972 l 136 358 b 500 -12 136 142 290 -12 z "},"Ů":{"ha":1000,"x_min":0,"x_max":0,"o":"m 693 1213 b 629 1151 656 1213 629 1187 b 693 1089 629 1116 656 1089 b 756 1151 729 1089 756 1116 b 693 1213 756 1187 729 1213 z m 295 1211 l 249 1211 l 249 1092 l 295 1092 b 355 1151 330 1092 355 1117 b 295 1211 355 1186 330 1211 z m 403 1139 l 443 1139 l 443 1164 l 403 1164 l 403 1185 l 448 1185 l 448 1211 l 375 1211 l 375 1092 l 449 1092 l 449 1118 l 403 1118 z m 571 1211 l 541 1141 l 510 1211 l 482 1211 l 463 1092 l 492 1092 l 503 1166 l 537 1091 l 544 1091 l 578 1166 l 589 1092 l 618 1092 l 600 1211 z m 693 1115 b 657 1151 673 1115 657 1131 b 693 1187 657 1171 673 1187 b 728 1151 713 1187 728 1172 b 693 1115 728 1131 713 1115 z m 294 1118 l 277 1118 l 277 1185 l 294 1185 b 327 1151 313 1185 327 1171 b 294 1118 327 1132 313 1118 z m 500 -12 b 864 358 710 -12 864 142 l 864 972 l 818 972 l 818 361 b 500 32 818 169 685 32 b 182 361 314 32 182 169 l 182 972 l 136 972 l 136 358 b 500 -12 136 142 290 -12 z "},"Ũ":{"ha":1000,"x_min":0,"x_max":0,"o":"m 693 1213 b 629 1151 656 1213 629 1187 b 693 1089 629 1116 656 1089 b 756 1151 729 1089 756 1116 b 693 1213 756 1187 729 1213 z m 295 1211 l 249 1211 l 249 1092 l 295 1092 b 355 1151 330 1092 355 1117 b 295 1211 355 1186 330 1211 z m 403 1139 l 443 1139 l 443 1164 l 403 1164 l 403 1185 l 448 1185 l 448 1211 l 375 1211 l 375 1092 l 449 1092 l 449 1118 l 403 1118 z m 571 1211 l 541 1141 l 510 1211 l 482 1211 l 463 1092 l 492 1092 l 503 1166 l 537 1091 l 544 1091 l 578 1166 l 589 1092 l 618 1092 l 600 1211 z m 693 1115 b 657 1151 673 1115 657 1131 b 693 1187 657 1171 673 1187 b 728 1151 713 1187 728 1172 b 693 1115 728 1131 713 1115 z m 294 1118 l 277 1118 l 277 1185 l 294 1185 b 327 1151 313 1185 327 1171 b 294 1118 327 1132 313 1118 z m 500 -12 b 864 358 710 -12 864 142 l 864 972 l 818 972 l 818 361 b 500 32 818 169 685 32 b 182 361 314 32 182 169 l 182 972 l 136 972 l 136 358 b 500 -12 136 142 290 -12 z "},"V":{"ha":924,"x_min":0,"x_max":0,"o":"m 832 972 l 465 71 l 86 972 l 36 972 l 444 0 l 483 0 l 882 972 z "},"W":{"ha":1408,"x_min":0,"x_max":0,"o":"m 1316 972 l 1032 80 l 715 936 l 691 936 l 380 80 l 90 972 l 42 972 l 360 0 l 398 0 l 704 841 l 1015 0 l 1052 0 l 1364 972 z "},"Ẃ":{"ha":1408,"x_min":0,"x_max":0,"o":"m 896 1089 b 959 1151 932 1089 959 1116 b 896 1213 959 1187 932 1213 b 832 1151 859 1213 832 1187 b 896 1089 832 1116 859 1089 z m 559 1151 b 498 1211 559 1186 533 1211 l 452 1211 l 452 1092 l 498 1092 b 559 1151 533 1092 559 1117 z m 653 1118 l 606 1118 l 606 1139 l 646 1139 l 646 1164 l 606 1164 l 606 1185 l 651 1185 l 651 1211 l 578 1211 l 578 1092 l 653 1092 z m 706 1166 l 740 1091 l 747 1091 l 781 1166 l 792 1092 l 821 1092 l 803 1211 l 774 1211 l 744 1141 l 713 1211 l 685 1211 l 666 1092 l 695 1092 z m 896 1187 b 931 1151 916 1187 931 1172 b 896 1115 931 1131 916 1115 b 861 1151 876 1115 861 1131 b 896 1187 861 1171 876 1187 z m 480 1118 l 480 1185 l 497 1185 b 530 1151 517 1185 530 1171 b 497 1118 530 1132 517 1118 z m 1316 972 l 1032 80 l 715 936 l 691 936 l 380 80 l 90 972 l 42 972 l 360 0 l 398 0 l 704 841 l 1015 0 l 1052 0 l 1364 972 z "},"Ŵ":{"ha":1408,"x_min":0,"x_max":0,"o":"m 896 1089 b 959 1151 932 1089 959 1116 b 896 1213 959 1187 932 1213 b 832 1151 859 1213 832 1187 b 896 1089 832 1116 859 1089 z m 559 1151 b 498 1211 559 1186 533 1211 l 452 1211 l 452 1092 l 498 1092 b 559 1151 533 1092 559 1117 z m 653 1118 l 606 1118 l 606 1139 l 646 1139 l 646 1164 l 606 1164 l 606 1185 l 651 1185 l 651 1211 l 578 1211 l 578 1092 l 653 1092 z m 706 1166 l 740 1091 l 747 1091 l 781 1166 l 792 1092 l 821 1092 l 803 1211 l 774 1211 l 744 1141 l 713 1211 l 685 1211 l 666 1092 l 695 1092 z m 896 1187 b 931 1151 916 1187 931 1172 b 896 1115 931 1131 916 1115 b 861 1151 876 1115 861 1131 b 896 1187 861 1171 876 1187 z m 480 1118 l 480 1185 l 497 1185 b 530 1151 517 1185 530 1171 b 497 1118 530 1132 517 1118 z m 1316 972 l 1032 80 l 715 936 l 691 936 l 380 80 l 90 972 l 42 972 l 360 0 l 398 0 l 704 841 l 1015 0 l 1052 0 l 1364 972 z "},"Ẅ":{"ha":1408,"x_min":0,"x_max":0,"o":"m 896 1089 b 959 1151 932 1089 959 1116 b 896 1213 959 1187 932 1213 b 832 1151 859 1213 832 1187 b 896 1089 832 1116 859 1089 z m 559 1151 b 498 1211 559 1186 533 1211 l 452 1211 l 452 1092 l 498 1092 b 559 1151 533 1092 559 1117 z m 653 1118 l 606 1118 l 606 1139 l 646 1139 l 646 1164 l 606 1164 l 606 1185 l 651 1185 l 651 1211 l 578 1211 l 578 1092 l 653 1092 z m 706 1166 l 740 1091 l 747 1091 l 781 1166 l 792 1092 l 821 1092 l 803 1211 l 774 1211 l 744 1141 l 713 1211 l 685 1211 l 666 1092 l 695 1092 z m 896 1187 b 931 1151 916 1187 931 1172 b 896 1115 931 1131 916 1115 b 861 1151 876 1115 861 1131 b 896 1187 861 1171 876 1187 z m 480 1118 l 480 1185 l 497 1185 b 530 1151 517 1185 530 1171 b 497 1118 530 1132 517 1118 z m 1316 972 l 1032 80 l 715 936 l 691 936 l 380 80 l 90 972 l 42 972 l 360 0 l 398 0 l 704 841 l 1015 0 l 1052 0 l 1364 972 z "},"Ẁ":{"ha":1408,"x_min":0,"x_max":0,"o":"m 896 1089 b 959 1151 932 1089 959 1116 b 896 1213 959 1187 932 1213 b 832 1151 859 1213 832 1187 b 896 1089 832 1116 859 1089 z m 559 1151 b 498 1211 559 1186 533 1211 l 452 1211 l 452 1092 l 498 1092 b 559 1151 533 1092 559 1117 z m 653 1118 l 606 1118 l 606 1139 l 646 1139 l 646 1164 l 606 1164 l 606 1185 l 651 1185 l 651 1211 l 578 1211 l 578 1092 l 653 1092 z m 706 1166 l 740 1091 l 747 1091 l 781 1166 l 792 1092 l 821 1092 l 803 1211 l 774 1211 l 744 1141 l 713 1211 l 685 1211 l 666 1092 l 695 1092 z m 896 1187 b 931 1151 916 1187 931 1172 b 896 1115 931 1131 916 1115 b 861 1151 876 1115 861 1131 b 896 1187 861 1171 876 1187 z m 480 1118 l 480 1185 l 497 1185 b 530 1151 517 1185 530 1171 b 497 1118 530 1132 517 1118 z m 1316 972 l 1032 80 l 715 936 l 691 936 l 380 80 l 90 972 l 42 972 l 360 0 l 398 0 l 704 841 l 1015 0 l 1052 0 l 1364 972 z "},"X":{"ha":804,"x_min":0,"x_max":0,"o":"m 787 0 l 431 507 l 758 972 l 705 972 l 402 543 l 100 972 l 48 972 l 374 508 l 17 0 l 70 0 l 402 472 l 734 0 z "},"Y":{"ha":889,"x_min":0,"x_max":0,"o":"m 842 972 l 791 972 l 444 428 l 100 972 l 50 972 l 420 383 l 420 0 l 467 0 l 467 384 z "},"Ý":{"ha":889,"x_min":0,"x_max":0,"o":"m 639 1089 b 702 1151 675 1089 702 1116 b 639 1213 702 1187 675 1213 b 575 1151 602 1213 575 1187 b 639 1089 575 1116 602 1089 z m 302 1151 b 241 1211 302 1186 276 1211 l 195 1211 l 195 1092 l 241 1092 b 302 1151 276 1092 302 1117 z m 396 1118 l 349 1118 l 349 1139 l 389 1139 l 389 1164 l 349 1164 l 349 1185 l 394 1185 l 394 1211 l 321 1211 l 321 1092 l 396 1092 z m 449 1166 l 483 1091 l 490 1091 l 524 1166 l 535 1092 l 564 1092 l 546 1211 l 518 1211 l 487 1141 l 456 1211 l 428 1211 l 409 1092 l 438 1092 z m 639 1187 b 674 1151 659 1187 674 1172 b 639 1115 674 1131 659 1115 b 604 1151 619 1115 604 1131 b 639 1187 604 1171 619 1187 z m 223 1118 l 223 1185 l 240 1185 b 273 1151 260 1185 273 1171 b 240 1118 273 1132 260 1118 z m 842 972 l 791 972 l 444 428 l 100 972 l 50 972 l 420 383 l 420 0 l 467 0 l 467 384 z "},"Ŷ":{"ha":889,"x_min":0,"x_max":0,"o":"m 639 1089 b 702 1151 675 1089 702 1116 b 639 1213 702 1187 675 1213 b 575 1151 602 1213 575 1187 b 639 1089 575 1116 602 1089 z m 302 1151 b 241 1211 302 1186 276 1211 l 195 1211 l 195 1092 l 241 1092 b 302 1151 276 1092 302 1117 z m 396 1118 l 349 1118 l 349 1139 l 389 1139 l 389 1164 l 349 1164 l 349 1185 l 394 1185 l 394 1211 l 321 1211 l 321 1092 l 396 1092 z m 449 1166 l 483 1091 l 490 1091 l 524 1166 l 535 1092 l 564 1092 l 546 1211 l 518 1211 l 487 1141 l 456 1211 l 428 1211 l 409 1092 l 438 1092 z m 639 1187 b 674 1151 659 1187 674 1172 b 639 1115 674 1131 659 1115 b 604 1151 619 1115 604 1131 b 639 1187 604 1171 619 1187 z m 223 1118 l 223 1185 l 240 1185 b 273 1151 260 1185 273 1171 b 240 1118 273 1132 260 1118 z m 842 972 l 791 972 l 444 428 l 100 972 l 50 972 l 420 383 l 420 0 l 467 0 l 467 384 z "},"Ÿ":{"ha":889,"x_min":0,"x_max":0,"o":"m 639 1089 b 702 1151 675 1089 702 1116 b 639 1213 702 1187 675 1213 b 575 1151 602 1213 575 1187 b 639 1089 575 1116 602 1089 z m 302 1151 b 241 1211 302 1186 276 1211 l 195 1211 l 195 1092 l 241 1092 b 302 1151 276 1092 302 1117 z m 396 1118 l 349 1118 l 349 1139 l 389 1139 l 389 1164 l 349 1164 l 349 1185 l 394 1185 l 394 1211 l 321 1211 l 321 1092 l 396 1092 z m 449 1166 l 483 1091 l 490 1091 l 524 1166 l 535 1092 l 564 1092 l 546 1211 l 518 1211 l 487 1141 l 456 1211 l 428 1211 l 409 1092 l 438 1092 z m 639 1187 b 674 1151 659 1187 674 1172 b 639 1115 674 1131 659 1115 b 604 1151 619 1115 604 1131 b 639 1187 604 1171 619 1187 z m 223 1118 l 223 1185 l 240 1185 b 273 1151 260 1185 273 1171 b 240 1118 273 1132 260 1118 z m 842 972 l 791 972 l 444 428 l 100 972 l 50 972 l 420 383 l 420 0 l 467 0 l 467 384 z "},"Ỳ":{"ha":889,"x_min":0,"x_max":0,"o":"m 639 1089 b 702 1151 675 1089 702 1116 b 639 1213 702 1187 675 1213 b 575 1151 602 1213 575 1187 b 639 1089 575 1116 602 1089 z m 302 1151 b 241 1211 302 1186 276 1211 l 195 1211 l 195 1092 l 241 1092 b 302 1151 276 1092 302 1117 z m 396 1118 l 349 1118 l 349 1139 l 389 1139 l 389 1164 l 349 1164 l 349 1185 l 394 1185 l 394 1211 l 321 1211 l 321 1092 l 396 1092 z m 449 1166 l 483 1091 l 490 1091 l 524 1166 l 535 1092 l 564 1092 l 546 1211 l 518 1211 l 487 1141 l 456 1211 l 428 1211 l 409 1092 l 438 1092 z m 639 1187 b 674 1151 659 1187 674 1172 b 639 1115 674 1131 659 1115 b 604 1151 619 1115 604 1131 b 639 1187 604 1171 619 1187 z m 223 1118 l 223 1185 l 240 1185 b 273 1151 260 1185 273 1171 b 240 1118 273 1132 260 1118 z m 842 972 l 791 972 l 444 428 l 100 972 l 50 972 l 420 383 l 420 0 l 467 0 l 467 384 z "},"Z":{"ha":747,"x_min":0,"x_max":0,"o":"m 105 43 l 698 962 l 698 972 l 54 972 l 54 929 l 625 929 l 34 12 l 34 0 l 722 0 l 722 43 z "},"Ź":{"ha":747,"x_min":0,"x_max":0,"o":"m 586 1089 b 650 1151 623 1089 650 1116 b 586 1213 650 1187 623 1213 b 523 1151 550 1213 523 1187 b 586 1089 523 1116 550 1089 z m 249 1151 b 189 1211 249 1186 224 1211 l 143 1211 l 143 1092 l 189 1092 b 249 1151 224 1092 249 1117 z m 343 1118 l 297 1118 l 297 1139 l 337 1139 l 337 1164 l 297 1164 l 297 1185 l 341 1185 l 341 1211 l 269 1211 l 269 1092 l 343 1092 z m 397 1166 l 431 1091 l 438 1091 l 472 1166 l 483 1092 l 512 1092 l 493 1211 l 465 1211 l 434 1141 l 404 1211 l 375 1211 l 357 1092 l 386 1092 z m 586 1187 b 621 1151 606 1187 621 1172 b 586 1115 621 1131 606 1115 b 551 1151 567 1115 551 1131 b 586 1187 551 1171 567 1187 z m 171 1118 l 171 1185 l 188 1185 b 220 1151 207 1185 220 1171 b 188 1118 220 1132 207 1118 z m 105 43 l 698 962 l 698 972 l 54 972 l 54 929 l 625 929 l 34 12 l 34 0 l 722 0 l 722 43 z "},"Ž":{"ha":747,"x_min":0,"x_max":0,"o":"m 586 1089 b 650 1151 623 1089 650 1116 b 586 1213 650 1187 623 1213 b 523 1151 550 1213 523 1187 b 586 1089 523 1116 550 1089 z m 249 1151 b 189 1211 249 1186 224 1211 l 143 1211 l 143 1092 l 189 1092 b 249 1151 224 1092 249 1117 z m 343 1118 l 297 1118 l 297 1139 l 337 1139 l 337 1164 l 297 1164 l 297 1185 l 341 1185 l 341 1211 l 269 1211 l 269 1092 l 343 1092 z m 397 1166 l 431 1091 l 438 1091 l 472 1166 l 483 1092 l 512 1092 l 493 1211 l 465 1211 l 434 1141 l 404 1211 l 375 1211 l 357 1092 l 386 1092 z m 586 1187 b 621 1151 606 1187 621 1172 b 586 1115 621 1131 606 1115 b 551 1151 567 1115 551 1131 b 586 1187 551 1171 567 1187 z m 171 1118 l 171 1185 l 188 1185 b 220 1151 207 1185 220 1171 b 188 1118 220 1132 207 1118 z m 105 43 l 698 962 l 698 972 l 54 972 l 54 929 l 625 929 l 34 12 l 34 0 l 722 0 l 722 43 z "},"Ż":{"ha":747,"x_min":0,"x_max":0,"o":"m 586 1089 b 650 1151 623 1089 650 1116 b 586 1213 650 1187 623 1213 b 523 1151 550 1213 523 1187 b 586 1089 523 1116 550 1089 z m 249 1151 b 189 1211 249 1186 224 1211 l 143 1211 l 143 1092 l 189 1092 b 249 1151 224 1092 249 1117 z m 343 1118 l 297 1118 l 297 1139 l 337 1139 l 337 1164 l 297 1164 l 297 1185 l 341 1185 l 341 1211 l 269 1211 l 269 1092 l 343 1092 z m 397 1166 l 431 1091 l 438 1091 l 472 1166 l 483 1092 l 512 1092 l 493 1211 l 465 1211 l 434 1141 l 404 1211 l 375 1211 l 357 1092 l 386 1092 z m 586 1187 b 621 1151 606 1187 621 1172 b 586 1115 621 1131 606 1115 b 551 1151 567 1115 551 1131 b 586 1187 551 1171 567 1187 z m 171 1118 l 171 1185 l 188 1185 b 220 1151 207 1185 220 1171 b 188 1118 220 1132 207 1118 z m 105 43 l 698 962 l 698 972 l 54 972 l 54 929 l 625 929 l 34 12 l 34 0 l 722 0 l 722 43 z "},"Ģ":{"ha":1111,"x_min":0,"x_max":0,"o":"m 759 1089 b 822 1151 795 1089 822 1116 b 759 1213 822 1187 795 1213 b 695 1151 722 1213 695 1187 b 759 1089 695 1116 722 1089 z m 421 1151 b 361 1211 421 1186 396 1211 l 315 1211 l 315 1092 l 361 1092 b 421 1151 396 1092 421 1117 z m 515 1118 l 469 1118 l 469 1139 l 509 1139 l 509 1164 l 469 1164 l 469 1185 l 514 1185 l 514 1211 l 441 1211 l 441 1092 l 515 1092 z m 569 1166 l 603 1091 l 610 1091 l 644 1166 l 655 1092 l 684 1092 l 666 1211 l 637 1211 l 607 1141 l 576 1211 l 548 1211 l 529 1092 l 558 1092 z m 759 1187 b 794 1151 779 1187 794 1172 b 759 1115 794 1131 779 1115 b 723 1151 739 1115 723 1131 b 759 1187 723 1171 739 1187 z m 343 1118 l 343 1185 l 360 1185 b 393 1151 379 1185 393 1171 b 360 1118 393 1132 379 1118 z m 516 456 l 516 412 l 992 412 b 563 32 968 187 797 32 b 124 485 305 32 124 219 b 563 940 124 748 309 940 b 977 642 764 940 935 816 l 1024 642 b 562 984 982 841 790 984 b 78 485 284 984 78 773 b 563 -12 78 198 278 -12 b 1040 456 834 -12 1030 179 z "},"Ķ":{"ha":839,"x_min":0,"x_max":0,"o":"m 651 1089 b 715 1151 688 1089 715 1116 b 651 1213 715 1187 688 1213 b 587 1151 615 1213 587 1187 b 651 1089 587 1116 615 1089 z m 314 1151 b 254 1211 314 1186 289 1211 l 207 1211 l 207 1092 l 254 1092 b 314 1151 289 1092 314 1117 z m 408 1118 l 362 1118 l 362 1139 l 402 1139 l 402 1164 l 362 1164 l 362 1185 l 406 1185 l 406 1211 l 334 1211 l 334 1092 l 408 1092 z m 462 1166 l 496 1091 l 503 1091 l 537 1166 l 548 1092 l 577 1092 l 558 1211 l 530 1211 l 499 1141 l 469 1211 l 440 1211 l 422 1092 l 451 1092 z m 651 1187 b 686 1151 671 1187 686 1172 b 651 1115 686 1131 671 1115 b 616 1151 631 1115 616 1131 b 651 1187 616 1171 631 1187 z m 236 1118 l 236 1185 l 253 1185 b 285 1151 272 1185 285 1171 b 253 1118 285 1132 272 1118 z m 776 0 l 835 0 l 401 506 l 799 972 l 740 972 l 360 527 l 195 527 l 195 972 l 149 972 l 149 0 l 195 0 l 195 484 l 360 484 z "},"Ļ":{"ha":700,"x_min":0,"x_max":0,"o":"m 385 1089 b 449 1151 421 1089 449 1116 b 385 1213 449 1187 421 1213 b 321 1151 349 1213 321 1187 b 385 1089 321 1116 349 1089 z m -13 1211 l -59 1211 l -59 1092 l -13 1092 b 48 1151 22 1092 48 1117 b -13 1211 48 1186 22 1211 z m 96 1139 l 136 1139 l 136 1164 l 96 1164 l 96 1185 l 140 1185 l 140 1211 l 67 1211 l 67 1092 l 142 1092 l 142 1118 l 96 1118 z m 195 1166 l 229 1091 l 236 1091 l 271 1166 l 282 1092 l 310 1092 l 292 1211 l 264 1211 l 233 1141 l 202 1211 l 174 1211 l 156 1092 l 184 1092 z m 385 1187 b 420 1151 405 1187 420 1172 b 385 1115 420 1131 405 1115 b 350 1151 365 1115 350 1131 b 385 1187 350 1171 365 1187 z m -13 1118 l -31 1118 l -31 1185 l -13 1185 b 19 1151 6 1185 19 1171 b -13 1118 19 1132 6 1118 z m 195 43 l 195 972 l 149 972 l 149 0 l 670 0 l 670 43 z "},"Ņ":{"ha":1035,"x_min":0,"x_max":0,"o":"m 730 1089 b 793 1151 766 1089 793 1116 b 730 1213 793 1187 766 1213 b 666 1151 693 1213 666 1187 b 730 1089 666 1116 693 1089 z m 393 1151 b 332 1211 393 1186 367 1211 l 286 1211 l 286 1092 l 332 1092 b 393 1151 367 1092 393 1117 z m 487 1118 l 440 1118 l 440 1139 l 480 1139 l 480 1164 l 440 1164 l 440 1185 l 485 1185 l 485 1211 l 412 1211 l 412 1092 l 487 1092 z m 540 1166 l 574 1091 l 581 1091 l 615 1166 l 626 1092 l 655 1092 l 637 1211 l 608 1211 l 578 1141 l 547 1211 l 519 1211 l 500 1092 l 529 1092 z m 730 1187 b 765 1151 750 1187 765 1172 b 730 1115 765 1131 750 1115 b 695 1151 710 1115 695 1131 b 730 1187 695 1171 710 1187 z m 314 1118 l 314 1185 l 331 1185 b 364 1151 351 1185 364 1171 b 331 1118 364 1132 351 1118 z m 840 972 l 840 83 l 191 972 l 149 972 l 149 0 l 194 0 l 194 891 l 846 0 l 885 0 l 885 972 z "},"Ŗ":{"ha":879,"x_min":0,"x_max":0,"o":"m 603 1089 b 667 1151 640 1089 667 1116 b 603 1213 667 1187 640 1213 b 539 1151 567 1213 539 1187 b 603 1089 539 1116 567 1089 z m 266 1151 b 205 1211 266 1186 241 1211 l 159 1211 l 159 1092 l 205 1092 b 266 1151 240 1092 266 1117 z m 360 1118 l 314 1118 l 314 1139 l 354 1139 l 354 1164 l 314 1164 l 314 1185 l 358 1185 l 358 1211 l 285 1211 l 285 1092 l 360 1092 z m 413 1166 l 447 1091 l 455 1091 l 489 1166 l 500 1092 l 528 1092 l 510 1211 l 482 1211 l 451 1141 l 420 1211 l 392 1211 l 374 1092 l 402 1092 z m 603 1187 b 638 1151 623 1187 638 1172 b 603 1115 638 1131 623 1115 b 568 1151 583 1115 568 1131 b 603 1187 568 1171 583 1187 z m 187 1118 l 187 1185 l 205 1185 b 237 1151 224 1185 237 1171 b 205 1118 237 1132 224 1118 z m 798 696 b 502 972 798 857 673 972 l 149 972 l 149 0 l 195 0 l 195 422 l 493 422 l 745 0 l 797 0 l 543 424 b 798 696 693 441 798 550 z m 195 928 l 501 928 b 752 697 647 928 752 831 b 501 466 752 563 648 466 l 195 466 z "},"Ţ":{"ha":740,"x_min":0,"x_max":0,"o":"m 563 1089 b 626 1151 599 1089 626 1116 b 563 1213 626 1187 599 1213 b 499 1151 526 1213 499 1187 b 563 1089 499 1116 526 1089 z m 226 1151 b 165 1211 226 1186 200 1211 l 119 1211 l 119 1092 l 165 1092 b 226 1151 200 1092 226 1117 z m 320 1118 l 273 1118 l 273 1139 l 313 1139 l 313 1164 l 273 1164 l 273 1185 l 318 1185 l 318 1211 l 245 1211 l 245 1092 l 320 1092 z m 373 1166 l 407 1091 l 414 1091 l 448 1166 l 459 1092 l 488 1092 l 470 1211 l 441 1211 l 411 1141 l 380 1211 l 352 1211 l 333 1092 l 362 1092 z m 563 1187 b 598 1151 583 1187 598 1172 b 563 1115 598 1131 583 1115 b 528 1151 543 1115 528 1131 b 563 1187 528 1171 543 1187 z m 147 1118 l 147 1185 l 164 1185 b 197 1151 184 1185 197 1171 b 164 1118 197 1132 184 1118 z m 710 972 l 30 972 l 30 929 l 347 929 l 347 0 l 393 0 l 393 929 l 710 929 z "},"Ș":{"ha":810,"x_min":0,"x_max":0,"o":"m 592 1213 b 528 1151 555 1213 528 1187 b 592 1089 528 1116 555 1089 b 655 1151 628 1089 655 1116 b 592 1213 655 1187 628 1213 z m 194 1211 l 148 1211 l 148 1092 l 194 1092 b 254 1151 229 1092 254 1117 b 194 1211 254 1186 229 1211 z m 302 1139 l 342 1139 l 342 1164 l 302 1164 l 302 1185 l 347 1185 l 347 1211 l 274 1211 l 274 1092 l 348 1092 l 348 1118 l 302 1118 z m 470 1211 l 440 1141 l 409 1211 l 381 1211 l 362 1092 l 391 1092 l 402 1166 l 436 1091 l 443 1091 l 477 1166 l 488 1092 l 517 1092 l 499 1211 z m 592 1115 b 556 1151 572 1115 556 1131 b 592 1187 556 1171 572 1187 b 627 1151 612 1187 627 1172 b 592 1115 627 1131 612 1115 z m 193 1118 l 176 1118 l 176 1185 l 193 1185 b 226 1151 212 1185 226 1171 b 193 1118 226 1132 212 1118 z m 414 -11 b 735 262 601 -11 735 97 b 420 520 735 450 574 486 b 140 728 277 552 140 581 b 406 940 140 857 245 940 b 664 713 560 940 664 851 l 709 713 b 407 984 709 876 590 984 b 94 727 217 984 94 883 b 407 478 94 547 256 511 b 689 262 552 445 689 416 b 414 33 689 126 575 33 b 119 286 237 33 119 133 l 73 286 b 414 -11 73 106 209 -11 z "},"Ț":{"ha":740,"x_min":0,"x_max":0,"o":"m 563 1089 b 626 1151 599 1089 626 1116 b 563 1213 626 1187 599 1213 b 499 1151 526 1213 499 1187 b 563 1089 499 1116 526 1089 z m 226 1151 b 165 1211 226 1186 200 1211 l 119 1211 l 119 1092 l 165 1092 b 226 1151 200 1092 226 1117 z m 320 1118 l 273 1118 l 273 1139 l 313 1139 l 313 1164 l 273 1164 l 273 1185 l 318 1185 l 318 1211 l 245 1211 l 245 1092 l 320 1092 z m 373 1166 l 407 1091 l 414 1091 l 448 1166 l 459 1092 l 488 1092 l 470 1211 l 441 1211 l 411 1141 l 380 1211 l 352 1211 l 333 1092 l 362 1092 z m 563 1187 b 598 1151 583 1187 598 1172 b 563 1115 598 1131 583 1115 b 528 1151 543 1115 528 1131 b 563 1187 528 1171 543 1187 z m 147 1118 l 147 1185 l 164 1185 b 197 1151 184 1185 197 1171 b 164 1118 197 1132 184 1118 z m 710 972 l 30 972 l 30 929 l 347 929 l 347 0 l 393 0 l 393 929 l 710 929 z "},"a":{"ha":975,"x_min":0,"x_max":0,"o":"m 801 750 l 795 554 b 452 765 735 681 610 765 b 70 375 234 765 70 597 b 452 -15 70 153 234 -15 b 795 196 610 -15 735 69 l 800 0 l 839 0 l 839 750 z m 455 29 b 115 375 261 29 115 177 b 455 721 115 572 261 721 b 793 375 651 721 793 575 b 455 29 793 175 651 29 z "},"á":{"ha":975,"x_min":0,"x_max":0,"o":"m 652 900 b 715 962 688 900 715 927 b 652 1025 715 998 688 1025 b 588 962 615 1025 588 998 b 652 900 588 927 615 900 z m 314 962 b 254 1022 314 997 289 1022 l 208 1022 l 208 903 l 254 903 b 314 962 289 903 314 928 z m 408 929 l 362 929 l 362 950 l 402 950 l 402 975 l 362 975 l 362 996 l 406 996 l 406 1022 l 334 1022 l 334 903 l 408 903 z m 462 977 l 496 902 l 503 902 l 537 977 l 548 903 l 577 903 l 559 1022 l 530 1022 l 500 952 l 469 1022 l 441 1022 l 422 903 l 451 903 z m 652 998 b 687 962 672 998 687 983 b 652 927 687 942 672 927 b 616 962 632 927 616 942 b 652 998 616 983 632 998 z m 236 929 l 236 996 l 253 996 b 285 963 272 996 285 982 b 253 929 285 943 272 929 z m 801 750 l 795 554 b 452 765 735 681 610 765 b 70 375 234 765 70 597 b 452 -15 70 153 234 -15 b 795 196 610 -15 735 69 l 800 0 l 839 0 l 839 750 z m 455 29 b 115 375 261 29 115 177 b 455 721 115 572 261 721 b 793 375 651 721 793 575 b 455 29 793 175 651 29 z "},"ă":{"ha":975,"x_min":0,"x_max":0,"o":"m 652 900 b 715 962 688 900 715 927 b 652 1025 715 998 688 1025 b 588 962 615 1025 588 998 b 652 900 588 927 615 900 z m 314 962 b 254 1022 314 997 289 1022 l 208 1022 l 208 903 l 254 903 b 314 962 289 903 314 928 z m 408 929 l 362 929 l 362 950 l 402 950 l 402 975 l 362 975 l 362 996 l 406 996 l 406 1022 l 334 1022 l 334 903 l 408 903 z m 462 977 l 496 902 l 503 902 l 537 977 l 548 903 l 577 903 l 559 1022 l 530 1022 l 500 952 l 469 1022 l 441 1022 l 422 903 l 451 903 z m 652 998 b 687 962 672 998 687 983 b 652 927 687 942 672 927 b 616 962 632 927 616 942 b 652 998 616 983 632 998 z m 236 929 l 236 996 l 253 996 b 285 963 272 996 285 982 b 253 929 285 943 272 929 z m 801 750 l 795 554 b 452 765 735 681 610 765 b 70 375 234 765 70 597 b 452 -15 70 153 234 -15 b 795 196 610 -15 735 69 l 800 0 l 839 0 l 839 750 z m 455 29 b 115 375 261 29 115 177 b 455 721 115 572 261 721 b 793 375 651 721 793 575 b 455 29 793 175 651 29 z "},"â":{"ha":975,"x_min":0,"x_max":0,"o":"m 652 900 b 715 962 688 900 715 927 b 652 1025 715 998 688 1025 b 588 962 615 1025 588 998 b 652 900 588 927 615 900 z m 314 962 b 254 1022 314 997 289 1022 l 208 1022 l 208 903 l 254 903 b 314 962 289 903 314 928 z m 408 929 l 362 929 l 362 950 l 402 950 l 402 975 l 362 975 l 362 996 l 406 996 l 406 1022 l 334 1022 l 334 903 l 408 903 z m 462 977 l 496 902 l 503 902 l 537 977 l 548 903 l 577 903 l 559 1022 l 530 1022 l 500 952 l 469 1022 l 441 1022 l 422 903 l 451 903 z m 652 998 b 687 962 672 998 687 983 b 652 927 687 942 672 927 b 616 962 632 927 616 942 b 652 998 616 983 632 998 z m 236 929 l 236 996 l 253 996 b 285 963 272 996 285 982 b 253 929 285 943 272 929 z m 801 750 l 795 554 b 452 765 735 681 610 765 b 70 375 234 765 70 597 b 452 -15 70 153 234 -15 b 795 196 610 -15 735 69 l 800 0 l 839 0 l 839 750 z m 455 29 b 115 375 261 29 115 177 b 455 721 115 572 261 721 b 793 375 651 721 793 575 b 455 29 793 175 651 29 z "},"ä":{"ha":975,"x_min":0,"x_max":0,"o":"m 652 900 b 715 962 688 900 715 927 b 652 1025 715 998 688 1025 b 588 962 615 1025 588 998 b 652 900 588 927 615 900 z m 314 962 b 254 1022 314 997 289 1022 l 208 1022 l 208 903 l 254 903 b 314 962 289 903 314 928 z m 408 929 l 362 929 l 362 950 l 402 950 l 402 975 l 362 975 l 362 996 l 406 996 l 406 1022 l 334 1022 l 334 903 l 408 903 z m 462 977 l 496 902 l 503 902 l 537 977 l 548 903 l 577 903 l 559 1022 l 530 1022 l 500 952 l 469 1022 l 441 1022 l 422 903 l 451 903 z m 652 998 b 687 962 672 998 687 983 b 652 927 687 942 672 927 b 616 962 632 927 616 942 b 652 998 616 983 632 998 z m 236 929 l 236 996 l 253 996 b 285 963 272 996 285 982 b 253 929 285 943 272 929 z m 801 750 l 795 554 b 452 765 735 681 610 765 b 70 375 234 765 70 597 b 452 -15 70 153 234 -15 b 795 196 610 -15 735 69 l 800 0 l 839 0 l 839 750 z m 455 29 b 115 375 261 29 115 177 b 455 721 115 572 261 721 b 793 375 651 721 793 575 b 455 29 793 175 651 29 z "},"à":{"ha":975,"x_min":0,"x_max":0,"o":"m 652 900 b 715 962 688 900 715 927 b 652 1025 715 998 688 1025 b 588 962 615 1025 588 998 b 652 900 588 927 615 900 z m 314 962 b 254 1022 314 997 289 1022 l 208 1022 l 208 903 l 254 903 b 314 962 289 903 314 928 z m 408 929 l 362 929 l 362 950 l 402 950 l 402 975 l 362 975 l 362 996 l 406 996 l 406 1022 l 334 1022 l 334 903 l 408 903 z m 462 977 l 496 902 l 503 902 l 537 977 l 548 903 l 577 903 l 559 1022 l 530 1022 l 500 952 l 469 1022 l 441 1022 l 422 903 l 451 903 z m 652 998 b 687 962 672 998 687 983 b 652 927 687 942 672 927 b 616 962 632 927 616 942 b 652 998 616 983 632 998 z m 236 929 l 236 996 l 253 996 b 285 963 272 996 285 982 b 253 929 285 943 272 929 z m 801 750 l 795 554 b 452 765 735 681 610 765 b 70 375 234 765 70 597 b 452 -15 70 153 234 -15 b 795 196 610 -15 735 69 l 800 0 l 839 0 l 839 750 z m 455 29 b 115 375 261 29 115 177 b 455 721 115 572 261 721 b 793 375 651 721 793 575 b 455 29 793 175 651 29 z "},"ā":{"ha":975,"x_min":0,"x_max":0,"o":"m 652 900 b 715 962 688 900 715 927 b 652 1025 715 998 688 1025 b 588 962 615 1025 588 998 b 652 900 588 927 615 900 z m 314 962 b 254 1022 314 997 289 1022 l 208 1022 l 208 903 l 254 903 b 314 962 289 903 314 928 z m 408 929 l 362 929 l 362 950 l 402 950 l 402 975 l 362 975 l 362 996 l 406 996 l 406 1022 l 334 1022 l 334 903 l 408 903 z m 462 977 l 496 902 l 503 902 l 537 977 l 548 903 l 577 903 l 559 1022 l 530 1022 l 500 952 l 469 1022 l 441 1022 l 422 903 l 451 903 z m 652 998 b 687 962 672 998 687 983 b 652 927 687 942 672 927 b 616 962 632 927 616 942 b 652 998 616 983 632 998 z m 236 929 l 236 996 l 253 996 b 285 963 272 996 285 982 b 253 929 285 943 272 929 z m 801 750 l 795 554 b 452 765 735 681 610 765 b 70 375 234 765 70 597 b 452 -15 70 153 234 -15 b 795 196 610 -15 735 69 l 800 0 l 839 0 l 839 750 z m 455 29 b 115 375 261 29 115 177 b 455 721 115 572 261 721 b 793 375 651 721 793 575 b 455 29 793 175 651 29 z "},"ą":{"ha":975,"x_min":0,"x_max":0,"o":"m 652 900 b 715 962 688 900 715 927 b 652 1025 715 998 688 1025 b 588 962 615 1025 588 998 b 652 900 588 927 615 900 z m 314 962 b 254 1022 314 997 289 1022 l 208 1022 l 208 903 l 254 903 b 314 962 289 903 314 928 z m 408 929 l 362 929 l 362 950 l 402 950 l 402 975 l 362 975 l 362 996 l 406 996 l 406 1022 l 334 1022 l 334 903 l 408 903 z m 462 977 l 496 902 l 503 902 l 537 977 l 548 903 l 577 903 l 559 1022 l 530 1022 l 500 952 l 469 1022 l 441 1022 l 422 903 l 451 903 z m 652 998 b 687 962 672 998 687 983 b 652 927 687 942 672 927 b 616 962 632 927 616 942 b 652 998 616 983 632 998 z m 236 929 l 236 996 l 253 996 b 285 963 272 996 285 982 b 253 929 285 943 272 929 z m 801 750 l 795 554 b 452 765 735 681 610 765 b 70 375 234 765 70 597 b 452 -15 70 153 234 -15 b 795 196 610 -15 735 69 l 800 0 l 839 0 l 839 750 z m 455 29 b 115 375 261 29 115 177 b 455 721 115 572 261 721 b 793 375 651 721 793 575 b 455 29 793 175 651 29 z "},"å":{"ha":975,"x_min":0,"x_max":0,"o":"m 652 900 b 715 962 688 900 715 927 b 652 1025 715 998 688 1025 b 588 962 615 1025 588 998 b 652 900 588 927 615 900 z m 314 962 b 254 1022 314 997 289 1022 l 208 1022 l 208 903 l 254 903 b 314 962 289 903 314 928 z m 408 929 l 362 929 l 362 950 l 402 950 l 402 975 l 362 975 l 362 996 l 406 996 l 406 1022 l 334 1022 l 334 903 l 408 903 z m 462 977 l 496 902 l 503 902 l 537 977 l 548 903 l 577 903 l 559 1022 l 530 1022 l 500 952 l 469 1022 l 441 1022 l 422 903 l 451 903 z m 652 998 b 687 962 672 998 687 983 b 652 927 687 942 672 927 b 616 962 632 927 616 942 b 652 998 616 983 632 998 z m 236 929 l 236 996 l 253 996 b 285 963 272 996 285 982 b 253 929 285 943 272 929 z m 801 750 l 795 554 b 452 765 735 681 610 765 b 70 375 234 765 70 597 b 452 -15 70 153 234 -15 b 795 196 610 -15 735 69 l 800 0 l 839 0 l 839 750 z m 455 29 b 115 375 261 29 115 177 b 455 721 115 572 261 721 b 793 375 651 721 793 575 b 455 29 793 175 651 29 z "},"ã":{"ha":975,"x_min":0,"x_max":0,"o":"m 652 900 b 715 962 688 900 715 927 b 652 1025 715 998 688 1025 b 588 962 615 1025 588 998 b 652 900 588 927 615 900 z m 314 962 b 254 1022 314 997 289 1022 l 208 1022 l 208 903 l 254 903 b 314 962 289 903 314 928 z m 408 929 l 362 929 l 362 950 l 402 950 l 402 975 l 362 975 l 362 996 l 406 996 l 406 1022 l 334 1022 l 334 903 l 408 903 z m 462 977 l 496 902 l 503 902 l 537 977 l 548 903 l 577 903 l 559 1022 l 530 1022 l 500 952 l 469 1022 l 441 1022 l 422 903 l 451 903 z m 652 998 b 687 962 672 998 687 983 b 652 927 687 942 672 927 b 616 962 632 927 616 942 b 652 998 616 983 632 998 z m 236 929 l 236 996 l 253 996 b 285 963 272 996 285 982 b 253 929 285 943 272 929 z m 801 750 l 795 554 b 452 765 735 681 610 765 b 70 375 234 765 70 597 b 452 -15 70 153 234 -15 b 795 196 610 -15 735 69 l 800 0 l 839 0 l 839 750 z m 455 29 b 115 375 261 29 115 177 b 455 721 115 572 261 721 b 793 375 651 721 793 575 b 455 29 793 175 651 29 z "},"æ":{"ha":1600,"x_min":0,"x_max":0,"o":"m 1535 380 b 1166 763 1535 597 1379 763 b 832 551 1016 763 891 678 l 830 751 l 794 751 l 791 559 b 454 764 730 683 607 764 b 70 375 235 764 70 596 b 454 -14 70 154 235 -14 b 791 191 607 -14 730 67 l 793 -1 l 829 -1 l 832 199 b 1166 -15 891 70 1016 -15 b 1511 213 1319 -15 1440 66 l 1464 213 b 1166 30 1404 98 1298 30 b 834 360 980 30 840 170 l 1534 360 b 1535 380 1534 367 1535 374 z m 454 29 b 115 375 260 29 115 177 b 454 721 115 572 260 721 b 792 375 650 721 792 575 b 454 29 792 182 647 29 z m 1166 721 b 1491 402 1343 721 1484 591 l 834 402 b 1166 721 847 587 984 721 z "},"ǽ":{"ha":1600,"x_min":0,"x_max":0,"o":"m 1003 900 b 1066 962 1039 900 1066 927 b 1003 1025 1066 998 1039 1025 b 939 962 966 1025 939 998 b 1003 900 939 927 966 900 z m 665 962 b 605 1022 665 997 640 1022 l 559 1022 l 559 903 l 605 903 b 665 962 640 903 665 928 z m 759 929 l 713 929 l 713 950 l 753 950 l 753 975 l 713 975 l 713 996 l 758 996 l 758 1022 l 685 1022 l 685 903 l 759 903 z m 813 977 l 847 902 l 854 902 l 888 977 l 899 903 l 928 903 l 910 1022 l 881 1022 l 851 952 l 820 1022 l 792 1022 l 773 903 l 802 903 z m 1003 998 b 1038 962 1023 998 1038 983 b 1003 927 1038 942 1023 927 b 967 962 983 927 967 942 b 1003 998 967 983 983 998 z m 587 929 l 587 996 l 604 996 b 636 962 623 996 636 982 b 604 929 636 943 623 929 z m 1535 380 b 1166 763 1535 597 1379 763 b 832 551 1016 763 891 678 l 830 751 l 794 751 l 791 559 b 454 764 730 683 607 764 b 70 375 235 764 70 596 b 454 -14 70 154 235 -14 b 791 191 607 -14 730 67 l 793 -1 l 829 -1 l 832 199 b 1166 -15 891 70 1016 -15 b 1511 213 1319 -15 1440 66 l 1464 213 b 1166 30 1404 98 1298 30 b 834 360 980 30 840 170 l 1534 360 b 1535 380 1534 367 1535 374 z m 454 29 b 115 375 260 29 115 177 b 454 721 115 572 260 721 b 792 375 650 721 792 575 b 454 29 792 182 647 29 z m 1166 721 b 1491 402 1343 721 1484 591 l 834 402 b 1166 721 847 587 984 721 z "},"b":{"ha":974,"x_min":0,"x_max":0,"o":"m 521 765 b 181 559 369 765 243 683 l 181 1015 l 136 1015 l 136 0 l 174 0 l 180 193 b 521 -15 242 68 368 -15 b 902 375 744 -15 902 153 b 521 765 902 597 744 765 z m 519 29 b 179 375 325 29 179 179 b 519 721 179 573 325 721 b 857 375 715 721 857 575 b 519 29 857 175 715 29 z "},"c":{"ha":860,"x_min":0,"x_max":0,"o":"m 455 -15 b 806 224 617 -15 750 77 l 760 224 b 455 29 705 100 591 29 b 115 375 262 29 115 179 b 455 721 115 572 260 721 b 759 528 592 721 706 649 l 804 528 b 455 765 751 671 621 765 b 70 375 236 765 70 599 b 455 -15 70 153 237 -15 z "},"ć":{"ha":860,"x_min":0,"x_max":0,"o":"m 642 1025 b 578 962 605 1025 578 998 b 642 900 578 927 605 900 b 705 962 678 900 705 927 b 642 1025 705 998 678 1025 z m 244 1022 l 198 1022 l 198 903 l 244 903 b 304 962 279 903 304 928 b 244 1022 304 997 279 1022 z m 352 950 l 392 950 l 392 975 l 352 975 l 352 996 l 396 996 l 396 1022 l 324 1022 l 324 903 l 398 903 l 398 929 l 352 929 z m 520 1022 l 489 952 l 459 1022 l 430 1022 l 412 903 l 441 903 l 452 977 l 486 902 l 493 902 l 527 977 l 538 903 l 567 903 l 549 1022 z m 642 927 b 606 962 622 927 606 942 b 642 998 606 983 622 998 b 677 962 661 998 677 983 b 642 927 677 942 661 927 z m 243 929 l 226 929 l 226 996 l 243 996 b 275 962 262 996 275 982 b 243 929 275 943 262 929 z m 455 -15 b 806 224 617 -15 750 77 l 760 224 b 455 29 705 100 591 29 b 115 375 262 29 115 179 b 455 721 115 572 260 721 b 759 528 592 721 706 649 l 804 528 b 455 765 751 671 621 765 b 70 375 236 765 70 599 b 455 -15 70 153 237 -15 z "},"č":{"ha":860,"x_min":0,"x_max":0,"o":"m 642 1025 b 578 962 605 1025 578 998 b 642 900 578 927 605 900 b 705 962 678 900 705 927 b 642 1025 705 998 678 1025 z m 244 1022 l 198 1022 l 198 903 l 244 903 b 304 962 279 903 304 928 b 244 1022 304 997 279 1022 z m 352 950 l 392 950 l 392 975 l 352 975 l 352 996 l 396 996 l 396 1022 l 324 1022 l 324 903 l 398 903 l 398 929 l 352 929 z m 520 1022 l 489 952 l 459 1022 l 430 1022 l 412 903 l 441 903 l 452 977 l 486 902 l 493 902 l 527 977 l 538 903 l 567 903 l 549 1022 z m 642 927 b 606 962 622 927 606 942 b 642 998 606 983 622 998 b 677 962 661 998 677 983 b 642 927 677 942 661 927 z m 243 929 l 226 929 l 226 996 l 243 996 b 275 962 262 996 275 982 b 243 929 275 943 262 929 z m 455 -15 b 806 224 617 -15 750 77 l 760 224 b 455 29 705 100 591 29 b 115 375 262 29 115 179 b 455 721 115 572 260 721 b 759 528 592 721 706 649 l 804 528 b 455 765 751 671 621 765 b 70 375 236 765 70 599 b 455 -15 70 153 237 -15 z "},"ç":{"ha":860,"x_min":0,"x_max":0,"o":"m 642 1025 b 578 962 605 1025 578 998 b 642 900 578 927 605 900 b 705 962 678 900 705 927 b 642 1025 705 998 678 1025 z m 244 1022 l 198 1022 l 198 903 l 244 903 b 304 962 279 903 304 928 b 244 1022 304 997 279 1022 z m 352 950 l 392 950 l 392 975 l 352 975 l 352 996 l 396 996 l 396 1022 l 324 1022 l 324 903 l 398 903 l 398 929 l 352 929 z m 520 1022 l 489 952 l 459 1022 l 430 1022 l 412 903 l 441 903 l 452 977 l 486 902 l 493 902 l 527 977 l 538 903 l 567 903 l 549 1022 z m 642 927 b 606 962 622 927 606 942 b 642 998 606 983 622 998 b 677 962 661 998 677 983 b 642 927 677 942 661 927 z m 243 929 l 226 929 l 226 996 l 243 996 b 275 962 262 996 275 982 b 243 929 275 943 262 929 z m 455 -15 b 806 224 617 -15 750 77 l 760 224 b 455 29 705 100 591 29 b 115 375 262 29 115 179 b 455 721 115 572 260 721 b 759 528 592 721 706 649 l 804 528 b 455 765 751 671 621 765 b 70 375 236 765 70 599 b 455 -15 70 153 237 -15 z "},"ĉ":{"ha":860,"x_min":0,"x_max":0,"o":"m 642 1025 b 578 962 605 1025 578 998 b 642 900 578 927 605 900 b 705 962 678 900 705 927 b 642 1025 705 998 678 1025 z m 244 1022 l 198 1022 l 198 903 l 244 903 b 304 962 279 903 304 928 b 244 1022 304 997 279 1022 z m 352 950 l 392 950 l 392 975 l 352 975 l 352 996 l 396 996 l 396 1022 l 324 1022 l 324 903 l 398 903 l 398 929 l 352 929 z m 520 1022 l 489 952 l 459 1022 l 430 1022 l 412 903 l 441 903 l 452 977 l 486 902 l 493 902 l 527 977 l 538 903 l 567 903 l 549 1022 z m 642 927 b 606 962 622 927 606 942 b 642 998 606 983 622 998 b 677 962 661 998 677 983 b 642 927 677 942 661 927 z m 243 929 l 226 929 l 226 996 l 243 996 b 275 962 262 996 275 982 b 243 929 275 943 262 929 z m 455 -15 b 806 224 617 -15 750 77 l 760 224 b 455 29 705 100 591 29 b 115 375 262 29 115 179 b 455 721 115 572 260 721 b 759 528 592 721 706 649 l 804 528 b 455 765 751 671 621 765 b 70 375 236 765 70 599 b 455 -15 70 153 237 -15 z "},"ċ":{"ha":860,"x_min":0,"x_max":0,"o":"m 642 1025 b 578 962 605 1025 578 998 b 642 900 578 927 605 900 b 705 962 678 900 705 927 b 642 1025 705 998 678 1025 z m 244 1022 l 198 1022 l 198 903 l 244 903 b 304 962 279 903 304 928 b 244 1022 304 997 279 1022 z m 352 950 l 392 950 l 392 975 l 352 975 l 352 996 l 396 996 l 396 1022 l 324 1022 l 324 903 l 398 903 l 398 929 l 352 929 z m 520 1022 l 489 952 l 459 1022 l 430 1022 l 412 903 l 441 903 l 452 977 l 486 902 l 493 902 l 527 977 l 538 903 l 567 903 l 549 1022 z m 642 927 b 606 962 622 927 606 942 b 642 998 606 983 622 998 b 677 962 661 998 677 983 b 642 927 677 942 661 927 z m 243 929 l 226 929 l 226 996 l 243 996 b 275 962 262 996 275 982 b 243 929 275 943 262 929 z m 455 -15 b 806 224 617 -15 750 77 l 760 224 b 455 29 705 100 591 29 b 115 375 262 29 115 179 b 455 721 115 572 260 721 b 759 528 592 721 706 649 l 804 528 b 455 765 751 671 621 765 b 70 375 236 765 70 599 b 455 -15 70 153 237 -15 z "},"d":{"ha":972,"x_min":0,"x_max":0,"o":"m 791 1015 l 791 561 b 452 765 730 684 606 765 b 70 375 233 765 70 597 b 452 -15 70 153 233 -15 b 792 191 607 -15 731 67 l 799 0 l 836 0 l 836 1015 z m 455 29 b 115 375 261 29 115 178 b 455 721 115 573 261 721 b 793 375 650 721 793 575 b 455 29 793 176 650 29 z "},"ð":{"ha":522,"x_min":0,"x_max":0,"o":"m 261 740 b 383 863 331 740 383 792 b 261 987 383 935 331 987 b 139 863 191 987 139 935 b 261 740 139 792 191 740 z m 261 954 b 352 863 313 954 352 916 b 261 772 352 811 313 772 b 170 863 209 772 170 811 b 261 954 170 916 209 954 z m 143 641 l 312 564 l 143 487 l 143 456 l 379 417 l 379 450 l 199 480 l 374 560 l 374 568 l 199 649 l 379 678 l 379 711 l 143 672 z m 348 279 l 273 279 l 273 373 l 243 373 l 243 279 l 173 279 l 173 382 l 143 382 l 143 247 l 379 247 l 379 386 l 348 386 z m 261 200 b 143 80 192 200 143 149 l 143 0 l 379 0 l 379 80 b 261 200 379 149 329 200 z m 349 32 l 173 32 l 173 79 b 261 167 173 130 210 167 b 349 79 312 167 349 130 z "},"ď":{"ha":522,"x_min":0,"x_max":0,"o":"m 261 740 b 383 863 331 740 383 792 b 261 987 383 935 331 987 b 139 863 191 987 139 935 b 261 740 139 792 191 740 z m 261 954 b 352 863 313 954 352 916 b 261 772 352 811 313 772 b 170 863 209 772 170 811 b 261 954 170 916 209 954 z m 143 641 l 312 564 l 143 487 l 143 456 l 379 417 l 379 450 l 199 480 l 374 560 l 374 568 l 199 649 l 379 678 l 379 711 l 143 672 z m 348 279 l 273 279 l 273 373 l 243 373 l 243 279 l 173 279 l 173 382 l 143 382 l 143 247 l 379 247 l 379 386 l 348 386 z m 261 200 b 143 80 192 200 143 149 l 143 0 l 379 0 l 379 80 b 261 200 379 149 329 200 z m 349 32 l 173 32 l 173 79 b 261 167 173 130 210 167 b 349 79 312 167 349 130 z "},"đ":{"ha":522,"x_min":0,"x_max":0,"o":"m 261 740 b 383 863 331 740 383 792 b 261 987 383 935 331 987 b 139 863 191 987 139 935 b 261 740 139 792 191 740 z m 261 954 b 352 863 313 954 352 916 b 261 772 352 811 313 772 b 170 863 209 772 170 811 b 261 954 170 916 209 954 z m 143 641 l 312 564 l 143 487 l 143 456 l 379 417 l 379 450 l 199 480 l 374 560 l 374 568 l 199 649 l 379 678 l 379 711 l 143 672 z m 348 279 l 273 279 l 273 373 l 243 373 l 243 279 l 173 279 l 173 382 l 143 382 l 143 247 l 379 247 l 379 386 l 348 386 z m 261 200 b 143 80 192 200 143 149 l 143 0 l 379 0 l 379 80 b 261 200 379 149 329 200 z m 349 32 l 173 32 l 173 79 b 261 167 173 130 210 167 b 349 79 312 167 349 130 z "},"e":{"ha":881,"x_min":0,"x_max":0,"o":"m 816 380 b 447 765 816 597 663 765 b 71 376 233 765 71 597 b 447 -15 71 153 233 -15 b 792 214 600 -15 721 66 l 745 214 b 447 29 685 98 579 29 b 115 361 261 29 122 170 l 815 361 b 816 380 815 367 816 374 z m 447 722 b 772 403 623 722 760 593 l 116 403 b 447 722 128 588 265 722 z "},"é":{"ha":881,"x_min":0,"x_max":0,"o":"m 633 900 b 697 962 670 900 697 927 b 633 1025 697 998 670 1025 b 569 962 597 1025 569 998 b 633 900 569 927 597 900 z m 296 962 b 236 1022 296 997 271 1022 l 189 1022 l 189 903 l 236 903 b 296 962 270 903 296 928 z m 390 929 l 344 929 l 344 950 l 384 950 l 384 975 l 344 975 l 344 996 l 388 996 l 388 1022 l 316 1022 l 316 903 l 390 903 z m 443 977 l 478 902 l 485 902 l 519 977 l 530 903 l 558 903 l 540 1022 l 512 1022 l 481 952 l 451 1022 l 422 1022 l 404 903 l 433 903 z m 633 998 b 668 962 653 998 668 983 b 633 927 668 942 653 927 b 598 962 613 927 598 942 b 633 998 598 983 613 998 z m 218 929 l 218 996 l 235 996 b 267 963 254 996 267 982 b 235 929 267 943 254 929 z m 816 380 b 447 765 816 597 663 765 b 71 376 233 765 71 597 b 447 -15 71 153 233 -15 b 792 214 600 -15 721 66 l 745 214 b 447 29 685 98 579 29 b 115 361 261 29 122 170 l 815 361 b 816 380 815 367 816 374 z m 447 722 b 772 403 623 722 760 593 l 116 403 b 447 722 128 588 265 722 z "},"ĕ":{"ha":881,"x_min":0,"x_max":0,"o":"m 633 900 b 697 962 670 900 697 927 b 633 1025 697 998 670 1025 b 569 962 597 1025 569 998 b 633 900 569 927 597 900 z m 296 962 b 236 1022 296 997 271 1022 l 189 1022 l 189 903 l 236 903 b 296 962 270 903 296 928 z m 390 929 l 344 929 l 344 950 l 384 950 l 384 975 l 344 975 l 344 996 l 388 996 l 388 1022 l 316 1022 l 316 903 l 390 903 z m 443 977 l 478 902 l 485 902 l 519 977 l 530 903 l 558 903 l 540 1022 l 512 1022 l 481 952 l 451 1022 l 422 1022 l 404 903 l 433 903 z m 633 998 b 668 962 653 998 668 983 b 633 927 668 942 653 927 b 598 962 613 927 598 942 b 633 998 598 983 613 998 z m 218 929 l 218 996 l 235 996 b 267 963 254 996 267 982 b 235 929 267 943 254 929 z m 816 380 b 447 765 816 597 663 765 b 71 376 233 765 71 597 b 447 -15 71 153 233 -15 b 792 214 600 -15 721 66 l 745 214 b 447 29 685 98 579 29 b 115 361 261 29 122 170 l 815 361 b 816 380 815 367 816 374 z m 447 722 b 772 403 623 722 760 593 l 116 403 b 447 722 128 588 265 722 z "},"ě":{"ha":881,"x_min":0,"x_max":0,"o":"m 633 900 b 697 962 670 900 697 927 b 633 1025 697 998 670 1025 b 569 962 597 1025 569 998 b 633 900 569 927 597 900 z m 296 962 b 236 1022 296 997 271 1022 l 189 1022 l 189 903 l 236 903 b 296 962 270 903 296 928 z m 390 929 l 344 929 l 344 950 l 384 950 l 384 975 l 344 975 l 344 996 l 388 996 l 388 1022 l 316 1022 l 316 903 l 390 903 z m 443 977 l 478 902 l 485 902 l 519 977 l 530 903 l 558 903 l 540 1022 l 512 1022 l 481 952 l 451 1022 l 422 1022 l 404 903 l 433 903 z m 633 998 b 668 962 653 998 668 983 b 633 927 668 942 653 927 b 598 962 613 927 598 942 b 633 998 598 983 613 998 z m 218 929 l 218 996 l 235 996 b 267 963 254 996 267 982 b 235 929 267 943 254 929 z m 816 380 b 447 765 816 597 663 765 b 71 376 233 765 71 597 b 447 -15 71 153 233 -15 b 792 214 600 -15 721 66 l 745 214 b 447 29 685 98 579 29 b 115 361 261 29 122 170 l 815 361 b 816 380 815 367 816 374 z m 447 722 b 772 403 623 722 760 593 l 116 403 b 447 722 128 588 265 722 z "},"ê":{"ha":881,"x_min":0,"x_max":0,"o":"m 633 900 b 697 962 670 900 697 927 b 633 1025 697 998 670 1025 b 569 962 597 1025 569 998 b 633 900 569 927 597 900 z m 296 962 b 236 1022 296 997 271 1022 l 189 1022 l 189 903 l 236 903 b 296 962 270 903 296 928 z m 390 929 l 344 929 l 344 950 l 384 950 l 384 975 l 344 975 l 344 996 l 388 996 l 388 1022 l 316 1022 l 316 903 l 390 903 z m 443 977 l 478 902 l 485 902 l 519 977 l 530 903 l 558 903 l 540 1022 l 512 1022 l 481 952 l 451 1022 l 422 1022 l 404 903 l 433 903 z m 633 998 b 668 962 653 998 668 983 b 633 927 668 942 653 927 b 598 962 613 927 598 942 b 633 998 598 983 613 998 z m 218 929 l 218 996 l 235 996 b 267 963 254 996 267 982 b 235 929 267 943 254 929 z m 816 380 b 447 765 816 597 663 765 b 71 376 233 765 71 597 b 447 -15 71 153 233 -15 b 792 214 600 -15 721 66 l 745 214 b 447 29 685 98 579 29 b 115 361 261 29 122 170 l 815 361 b 816 380 815 367 816 374 z m 447 722 b 772 403 623 722 760 593 l 116 403 b 447 722 128 588 265 722 z "},"ë":{"ha":881,"x_min":0,"x_max":0,"o":"m 633 900 b 697 962 670 900 697 927 b 633 1025 697 998 670 1025 b 569 962 597 1025 569 998 b 633 900 569 927 597 900 z m 296 962 b 236 1022 296 997 271 1022 l 189 1022 l 189 903 l 236 903 b 296 962 270 903 296 928 z m 390 929 l 344 929 l 344 950 l 384 950 l 384 975 l 344 975 l 344 996 l 388 996 l 388 1022 l 316 1022 l 316 903 l 390 903 z m 443 977 l 478 902 l 485 902 l 519 977 l 530 903 l 558 903 l 540 1022 l 512 1022 l 481 952 l 451 1022 l 422 1022 l 404 903 l 433 903 z m 633 998 b 668 962 653 998 668 983 b 633 927 668 942 653 927 b 598 962 613 927 598 942 b 633 998 598 983 613 998 z m 218 929 l 218 996 l 235 996 b 267 963 254 996 267 982 b 235 929 267 943 254 929 z m 816 380 b 447 765 816 597 663 765 b 71 376 233 765 71 597 b 447 -15 71 153 233 -15 b 792 214 600 -15 721 66 l 745 214 b 447 29 685 98 579 29 b 115 361 261 29 122 170 l 815 361 b 816 380 815 367 816 374 z m 447 722 b 772 403 623 722 760 593 l 116 403 b 447 722 128 588 265 722 z "},"ė":{"ha":881,"x_min":0,"x_max":0,"o":"m 633 900 b 697 962 670 900 697 927 b 633 1025 697 998 670 1025 b 569 962 597 1025 569 998 b 633 900 569 927 597 900 z m 296 962 b 236 1022 296 997 271 1022 l 189 1022 l 189 903 l 236 903 b 296 962 270 903 296 928 z m 390 929 l 344 929 l 344 950 l 384 950 l 384 975 l 344 975 l 344 996 l 388 996 l 388 1022 l 316 1022 l 316 903 l 390 903 z m 443 977 l 478 902 l 485 902 l 519 977 l 530 903 l 558 903 l 540 1022 l 512 1022 l 481 952 l 451 1022 l 422 1022 l 404 903 l 433 903 z m 633 998 b 668 962 653 998 668 983 b 633 927 668 942 653 927 b 598 962 613 927 598 942 b 633 998 598 983 613 998 z m 218 929 l 218 996 l 235 996 b 267 963 254 996 267 982 b 235 929 267 943 254 929 z m 816 380 b 447 765 816 597 663 765 b 71 376 233 765 71 597 b 447 -15 71 153 233 -15 b 792 214 600 -15 721 66 l 745 214 b 447 29 685 98 579 29 b 115 361 261 29 122 170 l 815 361 b 816 380 815 367 816 374 z m 447 722 b 772 403 623 722 760 593 l 116 403 b 447 722 128 588 265 722 z "},"è":{"ha":881,"x_min":0,"x_max":0,"o":"m 633 900 b 697 962 670 900 697 927 b 633 1025 697 998 670 1025 b 569 962 597 1025 569 998 b 633 900 569 927 597 900 z m 296 962 b 236 1022 296 997 271 1022 l 189 1022 l 189 903 l 236 903 b 296 962 270 903 296 928 z m 390 929 l 344 929 l 344 950 l 384 950 l 384 975 l 344 975 l 344 996 l 388 996 l 388 1022 l 316 1022 l 316 903 l 390 903 z m 443 977 l 478 902 l 485 902 l 519 977 l 530 903 l 558 903 l 540 1022 l 512 1022 l 481 952 l 451 1022 l 422 1022 l 404 903 l 433 903 z m 633 998 b 668 962 653 998 668 983 b 633 927 668 942 653 927 b 598 962 613 927 598 942 b 633 998 598 983 613 998 z m 218 929 l 218 996 l 235 996 b 267 963 254 996 267 982 b 235 929 267 943 254 929 z m 816 380 b 447 765 816 597 663 765 b 71 376 233 765 71 597 b 447 -15 71 153 233 -15 b 792 214 600 -15 721 66 l 745 214 b 447 29 685 98 579 29 b 115 361 261 29 122 170 l 815 361 b 816 380 815 367 816 374 z m 447 722 b 772 403 623 722 760 593 l 116 403 b 447 722 128 588 265 722 z "},"ē":{"ha":881,"x_min":0,"x_max":0,"o":"m 633 900 b 697 962 670 900 697 927 b 633 1025 697 998 670 1025 b 569 962 597 1025 569 998 b 633 900 569 927 597 900 z m 296 962 b 236 1022 296 997 271 1022 l 189 1022 l 189 903 l 236 903 b 296 962 270 903 296 928 z m 390 929 l 344 929 l 344 950 l 384 950 l 384 975 l 344 975 l 344 996 l 388 996 l 388 1022 l 316 1022 l 316 903 l 390 903 z m 443 977 l 478 902 l 485 902 l 519 977 l 530 903 l 558 903 l 540 1022 l 512 1022 l 481 952 l 451 1022 l 422 1022 l 404 903 l 433 903 z m 633 998 b 668 962 653 998 668 983 b 633 927 668 942 653 927 b 598 962 613 927 598 942 b 633 998 598 983 613 998 z m 218 929 l 218 996 l 235 996 b 267 963 254 996 267 982 b 235 929 267 943 254 929 z m 816 380 b 447 765 816 597 663 765 b 71 376 233 765 71 597 b 447 -15 71 153 233 -15 b 792 214 600 -15 721 66 l 745 214 b 447 29 685 98 579 29 b 115 361 261 29 122 170 l 815 361 b 816 380 815 367 816 374 z m 447 722 b 772 403 623 722 760 593 l 116 403 b 447 722 128 588 265 722 z "},"ę":{"ha":881,"x_min":0,"x_max":0,"o":"m 633 900 b 697 962 670 900 697 927 b 633 1025 697 998 670 1025 b 569 962 597 1025 569 998 b 633 900 569 927 597 900 z m 296 962 b 236 1022 296 997 271 1022 l 189 1022 l 189 903 l 236 903 b 296 962 270 903 296 928 z m 390 929 l 344 929 l 344 950 l 384 950 l 384 975 l 344 975 l 344 996 l 388 996 l 388 1022 l 316 1022 l 316 903 l 390 903 z m 443 977 l 478 902 l 485 902 l 519 977 l 530 903 l 558 903 l 540 1022 l 512 1022 l 481 952 l 451 1022 l 422 1022 l 404 903 l 433 903 z m 633 998 b 668 962 653 998 668 983 b 633 927 668 942 653 927 b 598 962 613 927 598 942 b 633 998 598 983 613 998 z m 218 929 l 218 996 l 235 996 b 267 963 254 996 267 982 b 235 929 267 943 254 929 z m 816 380 b 447 765 816 597 663 765 b 71 376 233 765 71 597 b 447 -15 71 153 233 -15 b 792 214 600 -15 721 66 l 745 214 b 447 29 685 98 579 29 b 115 361 261 29 122 170 l 815 361 b 816 380 815 367 816 374 z m 447 722 b 772 403 623 722 760 593 l 116 403 b 447 722 128 588 265 722 z "},"f":{"ha":511,"x_min":0,"x_max":0,"o":"m 493 749 l 226 749 l 226 807 b 431 1010 226 959 277 1010 l 493 1010 l 493 1049 l 425 1049 b 182 808 249 1049 182 982 l 182 749 l 20 749 l 20 709 l 182 709 l 182 0 l 227 0 l 227 709 l 493 709 z "},"g":{"ha":939,"x_min":0,"x_max":0,"o":"m 769 750 l 763 562 b 436 765 705 684 583 765 b 71 395 230 765 71 604 b 436 27 71 186 229 27 b 759 221 581 27 700 103 l 759 106 b 448 -238 759 -110 640 -238 b 160 -50 310 -238 205 -171 l 116 -50 b 448 -280 162 -195 281 -280 b 803 110 669 -280 803 -132 l 803 750 z m 440 70 b 116 395 255 70 116 210 b 440 722 116 580 255 722 b 759 395 623 722 759 583 b 440 70 759 208 624 70 z "},"ğ":{"ha":939,"x_min":0,"x_max":0,"o":"m 637 900 b 701 962 673 900 701 927 b 637 1025 701 998 673 1025 b 573 962 601 1025 573 998 b 637 900 573 927 601 900 z m 300 962 b 239 1022 300 997 274 1022 l 193 1022 l 193 903 l 239 903 b 300 962 274 903 300 928 z m 394 929 l 348 929 l 348 950 l 388 950 l 388 975 l 348 975 l 348 996 l 392 996 l 392 1022 l 319 1022 l 319 903 l 394 903 z m 447 977 l 481 902 l 488 902 l 523 977 l 534 903 l 562 903 l 544 1022 l 516 1022 l 485 952 l 454 1022 l 426 1022 l 408 903 l 436 903 z m 637 998 b 672 962 657 998 672 983 b 637 927 672 942 657 927 b 602 962 617 927 602 942 b 637 998 602 983 617 998 z m 221 929 l 221 996 l 239 996 b 271 963 258 996 271 982 b 239 929 271 943 258 929 z m 769 750 l 763 562 b 436 765 705 684 583 765 b 71 395 230 765 71 604 b 436 27 71 186 229 27 b 759 221 581 27 700 103 l 759 106 b 448 -238 759 -110 640 -238 b 160 -50 310 -238 205 -171 l 116 -50 b 448 -280 162 -195 281 -280 b 803 110 669 -280 803 -132 l 803 750 z m 440 70 b 116 395 255 70 116 210 b 440 722 116 580 255 722 b 759 395 623 722 759 583 b 440 70 759 208 624 70 z "},"ĝ":{"ha":939,"x_min":0,"x_max":0,"o":"m 637 900 b 701 962 673 900 701 927 b 637 1025 701 998 673 1025 b 573 962 601 1025 573 998 b 637 900 573 927 601 900 z m 300 962 b 239 1022 300 997 274 1022 l 193 1022 l 193 903 l 239 903 b 300 962 274 903 300 928 z m 394 929 l 348 929 l 348 950 l 388 950 l 388 975 l 348 975 l 348 996 l 392 996 l 392 1022 l 319 1022 l 319 903 l 394 903 z m 447 977 l 481 902 l 488 902 l 523 977 l 534 903 l 562 903 l 544 1022 l 516 1022 l 485 952 l 454 1022 l 426 1022 l 408 903 l 436 903 z m 637 998 b 672 962 657 998 672 983 b 637 927 672 942 657 927 b 602 962 617 927 602 942 b 637 998 602 983 617 998 z m 221 929 l 221 996 l 239 996 b 271 963 258 996 271 982 b 239 929 271 943 258 929 z m 769 750 l 763 562 b 436 765 705 684 583 765 b 71 395 230 765 71 604 b 436 27 71 186 229 27 b 759 221 581 27 700 103 l 759 106 b 448 -238 759 -110 640 -238 b 160 -50 310 -238 205 -171 l 116 -50 b 448 -280 162 -195 281 -280 b 803 110 669 -280 803 -132 l 803 750 z m 440 70 b 116 395 255 70 116 210 b 440 722 116 580 255 722 b 759 395 623 722 759 583 b 440 70 759 208 624 70 z "},"ġ":{"ha":939,"x_min":0,"x_max":0,"o":"m 637 900 b 701 962 673 900 701 927 b 637 1025 701 998 673 1025 b 573 962 601 1025 573 998 b 637 900 573 927 601 900 z m 300 962 b 239 1022 300 997 274 1022 l 193 1022 l 193 903 l 239 903 b 300 962 274 903 300 928 z m 394 929 l 348 929 l 348 950 l 388 950 l 388 975 l 348 975 l 348 996 l 392 996 l 392 1022 l 319 1022 l 319 903 l 394 903 z m 447 977 l 481 902 l 488 902 l 523 977 l 534 903 l 562 903 l 544 1022 l 516 1022 l 485 952 l 454 1022 l 426 1022 l 408 903 l 436 903 z m 637 998 b 672 962 657 998 672 983 b 637 927 672 942 657 927 b 602 962 617 927 602 942 b 637 998 602 983 617 998 z m 221 929 l 221 996 l 239 996 b 271 963 258 996 271 982 b 239 929 271 943 258 929 z m 769 750 l 763 562 b 436 765 705 684 583 765 b 71 395 230 765 71 604 b 436 27 71 186 229 27 b 759 221 581 27 700 103 l 759 106 b 448 -238 759 -110 640 -238 b 160 -50 310 -238 205 -171 l 116 -50 b 448 -280 162 -195 281 -280 b 803 110 669 -280 803 -132 l 803 750 z m 440 70 b 116 395 255 70 116 210 b 440 722 116 580 255 722 b 759 395 623 722 759 583 b 440 70 759 208 624 70 z "},"h":{"ha":890,"x_min":0,"x_max":0,"o":"m 473 765 b 181 580 346 765 233 689 l 181 1015 l 136 1015 l 136 0 l 181 0 l 181 437 b 465 723 181 591 312 723 b 723 436 626 723 723 615 l 723 0 l 767 0 l 767 444 b 473 765 767 640 654 765 z "},"ħ":{"ha":890,"x_min":0,"x_max":0,"o":"m 351 1096 b 415 1158 388 1096 415 1122 b 351 1220 415 1193 388 1220 b 287 1158 315 1220 287 1193 b 351 1096 287 1122 315 1096 z m -46 1217 l -93 1217 l -93 1098 l -46 1098 b 14 1158 -11 1098 14 1123 b -46 1217 14 1192 -11 1217 z m 62 1145 l 102 1145 l 102 1171 l 62 1171 l 62 1191 l 106 1191 l 106 1217 l 34 1217 l 34 1098 l 108 1098 l 108 1124 l 62 1124 z m 162 1173 l 196 1098 l 203 1098 l 237 1173 l 248 1098 l 277 1098 l 258 1217 l 230 1217 l 199 1147 l 169 1217 l 140 1217 l 122 1098 l 151 1098 z m 351 1194 b 386 1158 371 1194 386 1178 b 351 1122 386 1137 371 1122 b 316 1158 331 1122 316 1138 b 351 1194 316 1178 331 1194 z m -47 1124 l -64 1124 l -64 1191 l -47 1191 b -15 1158 -28 1191 -15 1178 b -47 1124 -15 1138 -28 1124 z m 473 765 b 181 580 346 765 233 689 l 181 1015 l 136 1015 l 136 0 l 181 0 l 181 437 b 465 723 181 591 312 723 b 723 436 626 723 723 615 l 723 0 l 767 0 l 767 444 b 473 765 767 640 654 765 z "},"ĥ":{"ha":890,"x_min":0,"x_max":0,"o":"m 351 1096 b 415 1158 388 1096 415 1122 b 351 1220 415 1193 388 1220 b 287 1158 315 1220 287 1193 b 351 1096 287 1122 315 1096 z m -46 1217 l -93 1217 l -93 1098 l -46 1098 b 14 1158 -11 1098 14 1123 b -46 1217 14 1192 -11 1217 z m 62 1145 l 102 1145 l 102 1171 l 62 1171 l 62 1191 l 106 1191 l 106 1217 l 34 1217 l 34 1098 l 108 1098 l 108 1124 l 62 1124 z m 162 1173 l 196 1098 l 203 1098 l 237 1173 l 248 1098 l 277 1098 l 258 1217 l 230 1217 l 199 1147 l 169 1217 l 140 1217 l 122 1098 l 151 1098 z m 351 1194 b 386 1158 371 1194 386 1178 b 351 1122 386 1137 371 1122 b 316 1158 331 1122 316 1138 b 351 1194 316 1178 331 1194 z m -47 1124 l -64 1124 l -64 1191 l -47 1191 b -15 1158 -28 1191 -15 1178 b -47 1124 -15 1138 -28 1124 z m 473 765 b 181 580 346 765 233 689 l 181 1015 l 136 1015 l 136 0 l 181 0 l 181 437 b 465 723 181 591 312 723 b 723 436 626 723 723 615 l 723 0 l 767 0 l 767 444 b 473 765 767 640 654 765 z "},"i":{"ha":318,"x_min":0,"x_max":0,"o":"m 126 917 l 191 917 l 191 994 l 126 994 z m 136 0 l 181 0 l 181 750 l 136 750 z "},"ı":{"ha":318,"x_min":0,"x_max":0,"o":"m 136 0 l 181 0 l 181 750 l 136 750 z "},"í":{"ha":318,"x_min":0,"x_max":0,"o":"m 349 1025 b 285 962 312 1025 285 998 b 349 900 285 927 312 900 b 412 962 385 900 412 927 b 349 1025 412 998 385 1025 z m -49 1022 l -95 1022 l -95 903 l -49 903 b 12 962 -14 903 12 928 b -49 1022 12 997 -14 1022 z m 59 950 l 99 950 l 99 975 l 59 975 l 59 996 l 104 996 l 104 1022 l 31 1022 l 31 903 l 106 903 l 106 929 l 59 929 z m 227 1022 l 197 952 l 166 1022 l 138 1022 l 119 903 l 148 903 l 159 977 l 193 902 l 200 902 l 234 977 l 245 903 l 274 903 l 256 1022 z m 349 927 b 314 962 329 927 314 942 b 349 998 314 983 329 998 b 384 962 369 998 384 983 b 349 927 384 942 369 927 z m -50 929 l -67 929 l -67 996 l -50 996 b -17 962 -30 996 -17 982 b -50 929 -17 943 -30 929 z m 136 0 l 181 0 l 181 750 l 136 750 z "},"ĭ":{"ha":318,"x_min":0,"x_max":0,"o":"m 349 1025 b 285 962 312 1025 285 998 b 349 900 285 927 312 900 b 412 962 385 900 412 927 b 349 1025 412 998 385 1025 z m -49 1022 l -95 1022 l -95 903 l -49 903 b 12 962 -14 903 12 928 b -49 1022 12 997 -14 1022 z m 59 950 l 99 950 l 99 975 l 59 975 l 59 996 l 104 996 l 104 1022 l 31 1022 l 31 903 l 106 903 l 106 929 l 59 929 z m 227 1022 l 197 952 l 166 1022 l 138 1022 l 119 903 l 148 903 l 159 977 l 193 902 l 200 902 l 234 977 l 245 903 l 274 903 l 256 1022 z m 349 927 b 314 962 329 927 314 942 b 349 998 314 983 329 998 b 384 962 369 998 384 983 b 349 927 384 942 369 927 z m -50 929 l -67 929 l -67 996 l -50 996 b -17 962 -30 996 -17 982 b -50 929 -17 943 -30 929 z m 136 0 l 181 0 l 181 750 l 136 750 z "},"î":{"ha":318,"x_min":0,"x_max":0,"o":"m 349 1025 b 285 962 312 1025 285 998 b 349 900 285 927 312 900 b 412 962 385 900 412 927 b 349 1025 412 998 385 1025 z m -49 1022 l -95 1022 l -95 903 l -49 903 b 12 962 -14 903 12 928 b -49 1022 12 997 -14 1022 z m 59 950 l 99 950 l 99 975 l 59 975 l 59 996 l 104 996 l 104 1022 l 31 1022 l 31 903 l 106 903 l 106 929 l 59 929 z m 227 1022 l 197 952 l 166 1022 l 138 1022 l 119 903 l 148 903 l 159 977 l 193 902 l 200 902 l 234 977 l 245 903 l 274 903 l 256 1022 z m 349 927 b 314 962 329 927 314 942 b 349 998 314 983 329 998 b 384 962 369 998 384 983 b 349 927 384 942 369 927 z m -50 929 l -67 929 l -67 996 l -50 996 b -17 962 -30 996 -17 982 b -50 929 -17 943 -30 929 z m 136 0 l 181 0 l 181 750 l 136 750 z "},"ï":{"ha":318,"x_min":0,"x_max":0,"o":"m 349 1025 b 285 962 312 1025 285 998 b 349 900 285 927 312 900 b 412 962 385 900 412 927 b 349 1025 412 998 385 1025 z m -49 1022 l -95 1022 l -95 903 l -49 903 b 12 962 -14 903 12 928 b -49 1022 12 997 -14 1022 z m 59 950 l 99 950 l 99 975 l 59 975 l 59 996 l 104 996 l 104 1022 l 31 1022 l 31 903 l 106 903 l 106 929 l 59 929 z m 227 1022 l 197 952 l 166 1022 l 138 1022 l 119 903 l 148 903 l 159 977 l 193 902 l 200 902 l 234 977 l 245 903 l 274 903 l 256 1022 z m 349 927 b 314 962 329 927 314 942 b 349 998 314 983 329 998 b 384 962 369 998 384 983 b 349 927 384 942 369 927 z m -50 929 l -67 929 l -67 996 l -50 996 b -17 962 -30 996 -17 982 b -50 929 -17 943 -30 929 z m 136 0 l 181 0 l 181 750 l 136 750 z "},"ì":{"ha":318,"x_min":0,"x_max":0,"o":"m 349 1025 b 285 962 312 1025 285 998 b 349 900 285 927 312 900 b 412 962 385 900 412 927 b 349 1025 412 998 385 1025 z m -49 1022 l -95 1022 l -95 903 l -49 903 b 12 962 -14 903 12 928 b -49 1022 12 997 -14 1022 z m 59 950 l 99 950 l 99 975 l 59 975 l 59 996 l 104 996 l 104 1022 l 31 1022 l 31 903 l 106 903 l 106 929 l 59 929 z m 227 1022 l 197 952 l 166 1022 l 138 1022 l 119 903 l 148 903 l 159 977 l 193 902 l 200 902 l 234 977 l 245 903 l 274 903 l 256 1022 z m 349 927 b 314 962 329 927 314 942 b 349 998 314 983 329 998 b 384 962 369 998 384 983 b 349 927 384 942 369 927 z m -50 929 l -67 929 l -67 996 l -50 996 b -17 962 -30 996 -17 982 b -50 929 -17 943 -30 929 z m 136 0 l 181 0 l 181 750 l 136 750 z "},"ĳ":{"ha":763,"x_min":0,"x_max":0,"o":"m 126 917 l 191 917 l 191 994 l 126 994 z m 572 917 l 637 917 l 637 994 l 572 994 z m 136 0 l 181 0 l 181 750 l 136 750 z m 371 -265 l 402 -265 b 626 -42 539 -265 626 -179 l 626 750 l 582 750 l 582 -40 b 398 -223 582 -155 514 -223 l 371 -223 z "},"ī":{"ha":318,"x_min":0,"x_max":0,"o":"m 349 1025 b 285 962 312 1025 285 998 b 349 900 285 927 312 900 b 412 962 385 900 412 927 b 349 1025 412 998 385 1025 z m -49 1022 l -95 1022 l -95 903 l -49 903 b 12 962 -14 903 12 928 b -49 1022 12 997 -14 1022 z m 59 950 l 99 950 l 99 975 l 59 975 l 59 996 l 104 996 l 104 1022 l 31 1022 l 31 903 l 106 903 l 106 929 l 59 929 z m 227 1022 l 197 952 l 166 1022 l 138 1022 l 119 903 l 148 903 l 159 977 l 193 902 l 200 902 l 234 977 l 245 903 l 274 903 l 256 1022 z m 349 927 b 314 962 329 927 314 942 b 349 998 314 983 329 998 b 384 962 369 998 384 983 b 349 927 384 942 369 927 z m -50 929 l -67 929 l -67 996 l -50 996 b -17 962 -30 996 -17 982 b -50 929 -17 943 -30 929 z m 136 0 l 181 0 l 181 750 l 136 750 z "},"į":{"ha":318,"x_min":0,"x_max":0,"o":"m 349 1025 b 285 962 312 1025 285 998 b 349 900 285 927 312 900 b 412 962 385 900 412 927 b 349 1025 412 998 385 1025 z m -49 1022 l -95 1022 l -95 903 l -49 903 b 12 962 -14 903 12 928 b -49 1022 12 997 -14 1022 z m 59 950 l 99 950 l 99 975 l 59 975 l 59 996 l 104 996 l 104 1022 l 31 1022 l 31 903 l 106 903 l 106 929 l 59 929 z m 227 1022 l 197 952 l 166 1022 l 138 1022 l 119 903 l 148 903 l 159 977 l 193 902 l 200 902 l 234 977 l 245 903 l 274 903 l 256 1022 z m 349 927 b 314 962 329 927 314 942 b 349 998 314 983 329 998 b 384 962 369 998 384 983 b 349 927 384 942 369 927 z m -50 929 l -67 929 l -67 996 l -50 996 b -17 962 -30 996 -17 982 b -50 929 -17 943 -30 929 z m 136 0 l 181 0 l 181 750 l 136 750 z "},"ĩ":{"ha":318,"x_min":0,"x_max":0,"o":"m 349 1025 b 285 962 312 1025 285 998 b 349 900 285 927 312 900 b 412 962 385 900 412 927 b 349 1025 412 998 385 1025 z m -49 1022 l -95 1022 l -95 903 l -49 903 b 12 962 -14 903 12 928 b -49 1022 12 997 -14 1022 z m 59 950 l 99 950 l 99 975 l 59 975 l 59 996 l 104 996 l 104 1022 l 31 1022 l 31 903 l 106 903 l 106 929 l 59 929 z m 227 1022 l 197 952 l 166 1022 l 138 1022 l 119 903 l 148 903 l 159 977 l 193 902 l 200 902 l 234 977 l 245 903 l 274 903 l 256 1022 z m 349 927 b 314 962 329 927 314 942 b 349 998 314 983 329 998 b 384 962 369 998 384 983 b 349 927 384 942 369 927 z m -50 929 l -67 929 l -67 996 l -50 996 b -17 962 -30 996 -17 982 b -50 929 -17 943 -30 929 z m 136 0 l 181 0 l 181 750 l 136 750 z "},"j":{"ha":335,"x_min":0,"x_max":0,"o":"m 143 917 l 208 917 l 208 994 l 143 994 z m -57 -265 l -26 -265 b 198 -42 111 -265 198 -179 l 198 750 l 153 750 l 153 -40 b -31 -223 153 -155 85 -223 l -57 -223 z "},"ĵ":{"ha":335,"x_min":0,"x_max":0,"o":"m 356 1025 b 292 962 319 1025 292 998 b 356 900 292 927 319 900 b 419 962 392 900 419 927 b 356 1025 419 998 392 1025 z m -42 1022 l -88 1022 l -88 903 l -42 903 b 19 962 -7 903 19 928 b -42 1022 19 997 -7 1022 z m 66 950 l 106 950 l 106 975 l 66 975 l 66 996 l 111 996 l 111 1022 l 38 1022 l 38 903 l 113 903 l 113 929 l 66 929 z m 234 1022 l 204 952 l 173 1022 l 145 1022 l 126 903 l 155 903 l 166 977 l 200 902 l 207 902 l 241 977 l 252 903 l 281 903 l 263 1022 z m 356 927 b 321 962 336 927 321 942 b 356 998 321 983 336 998 b 391 962 376 998 391 983 b 356 927 391 942 376 927 z m -43 929 l -60 929 l -60 996 l -43 996 b -10 962 -24 996 -10 982 b -43 929 -10 943 -24 929 z m -54 -262 l -26 -262 b 198 -39 110 -262 198 -176 l 198 750 l 153 750 l 153 -37 b -31 -220 153 -152 85 -220 l -54 -220 z "},"k":{"ha":708,"x_min":0,"x_max":0,"o":"m 645 0 l 702 0 l 363 391 l 674 750 l 618 750 l 325 413 l 184 413 l 184 1015 l 140 1015 l 140 0 l 184 0 l 184 370 l 325 370 z "},"ĸ":{"ha":522,"x_min":0,"x_max":0,"o":"m 261 740 b 383 863 331 740 383 792 b 261 987 383 935 331 987 b 139 863 191 987 139 935 b 261 740 139 792 191 740 z m 261 954 b 352 863 313 954 352 916 b 261 772 352 811 313 772 b 170 863 209 772 170 811 b 261 954 170 916 209 954 z m 143 641 l 312 564 l 143 487 l 143 456 l 379 417 l 379 450 l 199 480 l 374 560 l 374 568 l 199 649 l 379 678 l 379 711 l 143 672 z m 348 279 l 273 279 l 273 373 l 243 373 l 243 279 l 173 279 l 173 382 l 143 382 l 143 247 l 379 247 l 379 386 l 348 386 z m 261 200 b 143 80 192 200 143 149 l 143 0 l 379 0 l 379 80 b 261 200 379 149 329 200 z m 349 32 l 173 32 l 173 79 b 261 167 173 130 210 167 b 349 79 312 167 349 130 z "},"l":{"ha":318,"x_min":0,"x_max":0,"o":"m 136 0 l 181 0 l 181 1015 l 136 1015 z "},"ĺ":{"ha":318,"x_min":0,"x_max":0,"o":"m 352 1256 b 288 1194 315 1256 288 1229 b 352 1132 288 1158 315 1132 b 415 1194 388 1132 415 1158 b 352 1256 415 1230 388 1256 z m -46 1253 l -92 1253 l -92 1134 l -46 1134 b 15 1194 -11 1134 15 1160 b -46 1253 15 1228 -11 1253 z m 62 1182 l 102 1182 l 102 1207 l 62 1207 l 62 1228 l 107 1228 l 107 1253 l 34 1253 l 34 1134 l 108 1134 l 108 1160 l 62 1160 z m 230 1253 l 200 1184 l 169 1253 l 141 1253 l 122 1134 l 151 1134 l 162 1209 l 196 1134 l 203 1134 l 237 1209 l 248 1134 l 277 1134 l 259 1253 z m 352 1158 b 316 1194 332 1158 316 1174 b 352 1230 316 1214 332 1230 b 387 1194 372 1230 387 1214 b 352 1158 387 1173 372 1158 z m -47 1161 l -64 1161 l -64 1227 l -47 1227 b -14 1194 -28 1227 -14 1214 b -47 1161 -14 1174 -28 1161 z m 136 0 l 181 0 l 181 1015 l 136 1015 z "},"ľ":{"ha":318,"x_min":0,"x_max":0,"o":"m 352 1256 b 288 1194 315 1256 288 1229 b 352 1132 288 1158 315 1132 b 415 1194 388 1132 415 1158 b 352 1256 415 1230 388 1256 z m -46 1253 l -92 1253 l -92 1134 l -46 1134 b 15 1194 -11 1134 15 1160 b -46 1253 15 1228 -11 1253 z m 62 1182 l 102 1182 l 102 1207 l 62 1207 l 62 1228 l 107 1228 l 107 1253 l 34 1253 l 34 1134 l 108 1134 l 108 1160 l 62 1160 z m 230 1253 l 200 1184 l 169 1253 l 141 1253 l 122 1134 l 151 1134 l 162 1209 l 196 1134 l 203 1134 l 237 1209 l 248 1134 l 277 1134 l 259 1253 z m 352 1158 b 316 1194 332 1158 316 1174 b 352 1230 316 1214 332 1230 b 387 1194 372 1230 387 1214 b 352 1158 387 1173 372 1158 z m -47 1161 l -64 1161 l -64 1227 l -47 1227 b -14 1194 -28 1227 -14 1214 b -47 1161 -14 1174 -28 1161 z m 136 0 l 181 0 l 181 1015 l 136 1015 z "},"ŀ":{"ha":318,"x_min":0,"x_max":0,"o":"m 352 1256 b 288 1194 315 1256 288 1229 b 352 1132 288 1158 315 1132 b 415 1194 388 1132 415 1158 b 352 1256 415 1230 388 1256 z m -46 1253 l -92 1253 l -92 1134 l -46 1134 b 15 1194 -11 1134 15 1160 b -46 1253 15 1228 -11 1253 z m 62 1182 l 102 1182 l 102 1207 l 62 1207 l 62 1228 l 107 1228 l 107 1253 l 34 1253 l 34 1134 l 108 1134 l 108 1160 l 62 1160 z m 230 1253 l 200 1184 l 169 1253 l 141 1253 l 122 1134 l 151 1134 l 162 1209 l 196 1134 l 203 1134 l 237 1209 l 248 1134 l 277 1134 l 259 1253 z m 352 1158 b 316 1194 332 1158 316 1174 b 352 1230 316 1214 332 1230 b 387 1194 372 1230 387 1214 b 352 1158 387 1173 372 1158 z m -47 1161 l -64 1161 l -64 1227 l -47 1227 b -14 1194 -28 1227 -14 1214 b -47 1161 -14 1174 -28 1161 z m 136 0 l 181 0 l 181 1015 l 136 1015 z "},"ł":{"ha":318,"x_min":0,"x_max":0,"o":"m 352 1256 b 288 1194 315 1256 288 1229 b 352 1132 288 1158 315 1132 b 415 1194 388 1132 415 1158 b 352 1256 415 1230 388 1256 z m -46 1253 l -92 1253 l -92 1134 l -46 1134 b 15 1194 -11 1134 15 1160 b -46 1253 15 1228 -11 1253 z m 62 1182 l 102 1182 l 102 1207 l 62 1207 l 62 1228 l 107 1228 l 107 1253 l 34 1253 l 34 1134 l 108 1134 l 108 1160 l 62 1160 z m 230 1253 l 200 1184 l 169 1253 l 141 1253 l 122 1134 l 151 1134 l 162 1209 l 196 1134 l 203 1134 l 237 1209 l 248 1134 l 277 1134 l 259 1253 z m 352 1158 b 316 1194 332 1158 316 1174 b 352 1230 316 1214 332 1230 b 387 1194 372 1230 387 1214 b 352 1158 387 1173 372 1158 z m -47 1161 l -64 1161 l -64 1227 l -47 1227 b -14 1194 -28 1227 -14 1214 b -47 1161 -14 1174 -28 1161 z m 136 0 l 181 0 l 181 1015 l 136 1015 z "},"m":{"ha":1328,"x_min":0,"x_max":0,"o":"m 952 765 b 680 573 824 765 723 691 b 442 765 649 690 562 765 b 179 597 322 765 226 701 l 172 750 l 136 750 l 136 0 l 181 0 l 181 439 b 434 723 182 607 285 723 b 649 463 565 723 649 622 l 649 0 l 692 0 l 692 439 b 946 723 693 607 797 723 b 1160 463 1075 723 1160 620 l 1161 0 l 1204 0 l 1204 473 b 952 765 1204 647 1104 765 z "},"n":{"ha":890,"x_min":0,"x_max":0,"o":"m 473 765 b 179 577 344 765 231 688 l 172 750 l 136 750 l 136 0 l 181 0 l 181 437 b 465 723 181 591 312 723 b 723 436 626 723 723 615 l 723 0 l 767 0 l 767 444 b 473 765 767 637 654 765 z "},"ń":{"ha":890,"x_min":0,"x_max":0,"o":"m 641 900 b 704 962 677 900 704 927 b 641 1025 704 998 677 1025 b 577 962 604 1025 577 998 b 641 900 577 927 604 900 z m 304 962 b 243 1022 304 997 278 1022 l 197 1022 l 197 903 l 243 903 b 304 962 278 903 304 928 z m 398 929 l 351 929 l 351 950 l 391 950 l 391 975 l 351 975 l 351 996 l 396 996 l 396 1022 l 323 1022 l 323 903 l 398 903 z m 451 977 l 485 902 l 492 902 l 526 977 l 537 903 l 566 903 l 548 1022 l 519 1022 l 489 952 l 458 1022 l 430 1022 l 411 903 l 440 903 z m 641 998 b 676 962 661 998 676 983 b 641 927 676 942 661 927 b 606 962 621 927 606 942 b 641 998 606 983 621 998 z m 225 929 l 225 996 l 242 996 b 275 962 262 996 275 982 b 242 929 275 943 262 929 z m 473 765 b 179 577 344 765 231 688 l 172 750 l 136 750 l 136 0 l 181 0 l 181 437 b 465 723 181 591 312 723 b 723 436 626 723 723 615 l 723 0 l 767 0 l 767 444 b 473 765 767 637 654 765 z "},"ň":{"ha":890,"x_min":0,"x_max":0,"o":"m 641 900 b 704 962 677 900 704 927 b 641 1025 704 998 677 1025 b 577 962 604 1025 577 998 b 641 900 577 927 604 900 z m 304 962 b 243 1022 304 997 278 1022 l 197 1022 l 197 903 l 243 903 b 304 962 278 903 304 928 z m 398 929 l 351 929 l 351 950 l 391 950 l 391 975 l 351 975 l 351 996 l 396 996 l 396 1022 l 323 1022 l 323 903 l 398 903 z m 451 977 l 485 902 l 492 902 l 526 977 l 537 903 l 566 903 l 548 1022 l 519 1022 l 489 952 l 458 1022 l 430 1022 l 411 903 l 440 903 z m 641 998 b 676 962 661 998 676 983 b 641 927 676 942 661 927 b 606 962 621 927 606 942 b 641 998 606 983 621 998 z m 225 929 l 225 996 l 242 996 b 275 962 262 996 275 982 b 242 929 275 943 262 929 z m 473 765 b 179 577 344 765 231 688 l 172 750 l 136 750 l 136 0 l 181 0 l 181 437 b 465 723 181 591 312 723 b 723 436 626 723 723 615 l 723 0 l 767 0 l 767 444 b 473 765 767 637 654 765 z "},"ŋ":{"ha":890,"x_min":0,"x_max":0,"o":"m 641 900 b 704 962 677 900 704 927 b 641 1025 704 998 677 1025 b 577 962 604 1025 577 998 b 641 900 577 927 604 900 z m 304 962 b 243 1022 304 997 278 1022 l 197 1022 l 197 903 l 243 903 b 304 962 278 903 304 928 z m 398 929 l 351 929 l 351 950 l 391 950 l 391 975 l 351 975 l 351 996 l 396 996 l 396 1022 l 323 1022 l 323 903 l 398 903 z m 451 977 l 485 902 l 492 902 l 526 977 l 537 903 l 566 903 l 548 1022 l 519 1022 l 489 952 l 458 1022 l 430 1022 l 411 903 l 440 903 z m 641 998 b 676 962 661 998 676 983 b 641 927 676 942 661 927 b 606 962 621 927 606 942 b 641 998 606 983 621 998 z m 225 929 l 225 996 l 242 996 b 275 962 262 996 275 982 b 242 929 275 943 262 929 z m 473 765 b 179 577 344 765 231 688 l 172 750 l 136 750 l 136 0 l 181 0 l 181 437 b 465 723 181 591 312 723 b 723 436 626 723 723 615 l 723 0 l 767 0 l 767 444 b 473 765 767 637 654 765 z "},"ñ":{"ha":890,"x_min":0,"x_max":0,"o":"m 641 900 b 704 962 677 900 704 927 b 641 1025 704 998 677 1025 b 577 962 604 1025 577 998 b 641 900 577 927 604 900 z m 304 962 b 243 1022 304 997 278 1022 l 197 1022 l 197 903 l 243 903 b 304 962 278 903 304 928 z m 398 929 l 351 929 l 351 950 l 391 950 l 391 975 l 351 975 l 351 996 l 396 996 l 396 1022 l 323 1022 l 323 903 l 398 903 z m 451 977 l 485 902 l 492 902 l 526 977 l 537 903 l 566 903 l 548 1022 l 519 1022 l 489 952 l 458 1022 l 430 1022 l 411 903 l 440 903 z m 641 998 b 676 962 661 998 676 983 b 641 927 676 942 661 927 b 606 962 621 927 606 942 b 641 998 606 983 621 998 z m 225 929 l 225 996 l 242 996 b 275 962 262 996 275 982 b 242 929 275 943 262 929 z m 473 765 b 179 577 344 765 231 688 l 172 750 l 136 750 l 136 0 l 181 0 l 181 437 b 465 723 181 591 312 723 b 723 436 626 723 723 615 l 723 0 l 767 0 l 767 444 b 473 765 767 637 654 765 z "},"o":{"ha":921,"x_min":0,"x_max":0,"o":"m 460 -15 b 850 375 684 -15 850 152 b 460 765 850 598 684 765 b 70 375 238 765 70 599 b 460 -15 70 152 238 -15 z m 460 29 b 115 375 263 29 115 177 b 460 721 115 574 262 721 b 805 375 658 721 805 573 b 460 29 805 177 658 29 z "},"ó":{"ha":921,"x_min":0,"x_max":0,"o":"m 650 1025 b 586 962 614 1025 586 998 b 650 900 586 927 614 900 b 714 962 687 900 714 927 b 650 1025 714 998 687 1025 z m 253 1022 l 206 1022 l 206 903 l 253 903 b 313 962 287 903 313 928 b 253 1022 313 997 288 1022 z m 361 950 l 401 950 l 401 975 l 361 975 l 361 996 l 405 996 l 405 1022 l 333 1022 l 333 903 l 407 903 l 407 929 l 361 929 z m 529 1022 l 498 952 l 467 1022 l 439 1022 l 421 903 l 450 903 l 460 977 l 495 902 l 502 902 l 536 977 l 547 903 l 575 903 l 557 1022 z m 650 927 b 615 962 630 927 615 942 b 650 998 615 983 630 998 b 685 962 670 998 685 983 b 650 927 685 942 670 927 z m 252 929 l 235 929 l 235 996 l 252 996 b 284 962 271 996 284 982 b 252 929 284 943 271 929 z m 460 -15 b 850 375 684 -15 850 152 b 460 765 850 598 684 765 b 70 375 237 765 70 599 b 460 -15 70 152 237 -15 z m 460 29 b 115 375 263 29 115 177 b 460 721 115 574 262 721 b 805 375 658 721 805 573 b 460 29 805 177 658 29 z "},"ŏ":{"ha":921,"x_min":0,"x_max":0,"o":"m 650 1025 b 586 962 614 1025 586 998 b 650 900 586 927 614 900 b 714 962 687 900 714 927 b 650 1025 714 998 687 1025 z m 253 1022 l 206 1022 l 206 903 l 253 903 b 313 962 287 903 313 928 b 253 1022 313 997 288 1022 z m 361 950 l 401 950 l 401 975 l 361 975 l 361 996 l 405 996 l 405 1022 l 333 1022 l 333 903 l 407 903 l 407 929 l 361 929 z m 529 1022 l 498 952 l 467 1022 l 439 1022 l 421 903 l 450 903 l 460 977 l 495 902 l 502 902 l 536 977 l 547 903 l 575 903 l 557 1022 z m 650 927 b 615 962 630 927 615 942 b 650 998 615 983 630 998 b 685 962 670 998 685 983 b 650 927 685 942 670 927 z m 252 929 l 235 929 l 235 996 l 252 996 b 284 962 271 996 284 982 b 252 929 284 943 271 929 z m 460 -15 b 850 375 684 -15 850 152 b 460 765 850 598 684 765 b 70 375 237 765 70 599 b 460 -15 70 152 237 -15 z m 460 29 b 115 375 263 29 115 177 b 460 721 115 574 262 721 b 805 375 658 721 805 573 b 460 29 805 177 658 29 z "},"ô":{"ha":921,"x_min":0,"x_max":0,"o":"m 650 1025 b 586 962 614 1025 586 998 b 650 900 586 927 614 900 b 714 962 687 900 714 927 b 650 1025 714 998 687 1025 z m 253 1022 l 206 1022 l 206 903 l 253 903 b 313 962 287 903 313 928 b 253 1022 313 997 288 1022 z m 361 950 l 401 950 l 401 975 l 361 975 l 361 996 l 405 996 l 405 1022 l 333 1022 l 333 903 l 407 903 l 407 929 l 361 929 z m 529 1022 l 498 952 l 467 1022 l 439 1022 l 421 903 l 450 903 l 460 977 l 495 902 l 502 902 l 536 977 l 547 903 l 575 903 l 557 1022 z m 650 927 b 615 962 630 927 615 942 b 650 998 615 983 630 998 b 685 962 670 998 685 983 b 650 927 685 942 670 927 z m 252 929 l 235 929 l 235 996 l 252 996 b 284 962 271 996 284 982 b 252 929 284 943 271 929 z m 460 -15 b 850 375 684 -15 850 152 b 460 765 850 598 684 765 b 70 375 237 765 70 599 b 460 -15 70 152 237 -15 z m 460 29 b 115 375 263 29 115 177 b 460 721 115 574 262 721 b 805 375 658 721 805 573 b 460 29 805 177 658 29 z "},"ö":{"ha":921,"x_min":0,"x_max":0,"o":"m 650 1025 b 586 962 614 1025 586 998 b 650 900 586 927 614 900 b 714 962 687 900 714 927 b 650 1025 714 998 687 1025 z m 253 1022 l 206 1022 l 206 903 l 253 903 b 313 962 287 903 313 928 b 253 1022 313 997 288 1022 z m 361 950 l 401 950 l 401 975 l 361 975 l 361 996 l 405 996 l 405 1022 l 333 1022 l 333 903 l 407 903 l 407 929 l 361 929 z m 529 1022 l 498 952 l 467 1022 l 439 1022 l 421 903 l 450 903 l 460 977 l 495 902 l 502 902 l 536 977 l 547 903 l 575 903 l 557 1022 z m 650 927 b 615 962 630 927 615 942 b 650 998 615 983 630 998 b 685 962 670 998 685 983 b 650 927 685 942 670 927 z m 252 929 l 235 929 l 235 996 l 252 996 b 284 962 271 996 284 982 b 252 929 284 943 271 929 z m 460 -15 b 850 375 684 -15 850 152 b 460 765 850 598 684 765 b 70 375 237 765 70 599 b 460 -15 70 152 237 -15 z m 460 29 b 115 375 263 29 115 177 b 460 721 115 574 262 721 b 805 375 658 721 805 573 b 460 29 805 177 658 29 z "},"ò":{"ha":921,"x_min":0,"x_max":0,"o":"m 650 1025 b 586 962 614 1025 586 998 b 650 900 586 927 614 900 b 714 962 687 900 714 927 b 650 1025 714 998 687 1025 z m 253 1022 l 206 1022 l 206 903 l 253 903 b 313 962 287 903 313 928 b 253 1022 313 997 288 1022 z m 361 950 l 401 950 l 401 975 l 361 975 l 361 996 l 405 996 l 405 1022 l 333 1022 l 333 903 l 407 903 l 407 929 l 361 929 z m 529 1022 l 498 952 l 467 1022 l 439 1022 l 421 903 l 450 903 l 460 977 l 495 902 l 502 902 l 536 977 l 547 903 l 575 903 l 557 1022 z m 650 927 b 615 962 630 927 615 942 b 650 998 615 983 630 998 b 685 962 670 998 685 983 b 650 927 685 942 670 927 z m 252 929 l 235 929 l 235 996 l 252 996 b 284 962 271 996 284 982 b 252 929 284 943 271 929 z m 460 -15 b 850 375 684 -15 850 152 b 460 765 850 598 684 765 b 70 375 237 765 70 599 b 460 -15 70 152 237 -15 z m 460 29 b 115 375 263 29 115 177 b 460 721 115 574 262 721 b 805 375 658 721 805 573 b 460 29 805 177 658 29 z "},"ő":{"ha":921,"x_min":0,"x_max":0,"o":"m 650 1025 b 586 962 614 1025 586 998 b 650 900 586 927 614 900 b 714 962 687 900 714 927 b 650 1025 714 998 687 1025 z m 253 1022 l 206 1022 l 206 903 l 253 903 b 313 962 287 903 313 928 b 253 1022 313 997 288 1022 z m 361 950 l 401 950 l 401 975 l 361 975 l 361 996 l 405 996 l 405 1022 l 333 1022 l 333 903 l 407 903 l 407 929 l 361 929 z m 529 1022 l 498 952 l 467 1022 l 439 1022 l 421 903 l 450 903 l 460 977 l 495 902 l 502 902 l 536 977 l 547 903 l 575 903 l 557 1022 z m 650 927 b 615 962 630 927 615 942 b 650 998 615 983 630 998 b 685 962 670 998 685 983 b 650 927 685 942 670 927 z m 252 929 l 235 929 l 235 996 l 252 996 b 284 962 271 996 284 982 b 252 929 284 943 271 929 z m 460 -15 b 850 375 684 -15 850 152 b 460 765 850 598 684 765 b 70 375 237 765 70 599 b 460 -15 70 152 237 -15 z m 460 29 b 115 375 263 29 115 177 b 460 721 115 574 262 721 b 805 375 658 721 805 573 b 460 29 805 177 658 29 z "},"ō":{"ha":921,"x_min":0,"x_max":0,"o":"m 650 1025 b 586 962 614 1025 586 998 b 650 900 586 927 614 900 b 714 962 687 900 714 927 b 650 1025 714 998 687 1025 z m 253 1022 l 206 1022 l 206 903 l 253 903 b 313 962 287 903 313 928 b 253 1022 313 997 288 1022 z m 361 950 l 401 950 l 401 975 l 361 975 l 361 996 l 405 996 l 405 1022 l 333 1022 l 333 903 l 407 903 l 407 929 l 361 929 z m 529 1022 l 498 952 l 467 1022 l 439 1022 l 421 903 l 450 903 l 460 977 l 495 902 l 502 902 l 536 977 l 547 903 l 575 903 l 557 1022 z m 650 927 b 615 962 630 927 615 942 b 650 998 615 983 630 998 b 685 962 670 998 685 983 b 650 927 685 942 670 927 z m 252 929 l 235 929 l 235 996 l 252 996 b 284 962 271 996 284 982 b 252 929 284 943 271 929 z m 460 -15 b 850 375 684 -15 850 152 b 460 765 850 598 684 765 b 70 375 237 765 70 599 b 460 -15 70 152 237 -15 z m 460 29 b 115 375 263 29 115 177 b 460 721 115 574 262 721 b 805 375 658 721 805 573 b 460 29 805 177 658 29 z "},"ø":{"ha":921,"x_min":0,"x_max":0,"o":"m 650 1025 b 586 962 614 1025 586 998 b 650 900 586 927 614 900 b 714 962 687 900 714 927 b 650 1025 714 998 687 1025 z m 253 1022 l 206 1022 l 206 903 l 253 903 b 313 962 287 903 313 928 b 253 1022 313 997 288 1022 z m 361 950 l 401 950 l 401 975 l 361 975 l 361 996 l 405 996 l 405 1022 l 333 1022 l 333 903 l 407 903 l 407 929 l 361 929 z m 529 1022 l 498 952 l 467 1022 l 439 1022 l 421 903 l 450 903 l 460 977 l 495 902 l 502 902 l 536 977 l 547 903 l 575 903 l 557 1022 z m 650 927 b 615 962 630 927 615 942 b 650 998 615 983 630 998 b 685 962 670 998 685 983 b 650 927 685 942 670 927 z m 252 929 l 235 929 l 235 996 l 252 996 b 284 962 271 996 284 982 b 252 929 284 943 271 929 z m 460 -15 b 850 375 684 -15 850 152 b 460 765 850 598 684 765 b 70 375 237 765 70 599 b 460 -15 70 152 237 -15 z m 460 29 b 115 375 263 29 115 177 b 460 721 115 574 262 721 b 805 375 658 721 805 573 b 460 29 805 177 658 29 z "},"ǿ":{"ha":921,"x_min":0,"x_max":0,"o":"m 645 900 b 648 900 646 900 647 900 b 650 900 649 900 649 900 b 714 962 687 900 714 927 b 650 1025 714 998 687 1025 b 648 1025 649 1025 649 1025 b 645 1025 647 1025 646 1025 b 581 962 609 1025 581 998 b 645 900 581 927 609 900 z m 201 903 l 253 903 b 313 962 287 903 313 928 b 253 1022 313 997 288 1022 l 201 1022 z m 328 903 l 407 903 l 407 929 l 361 929 l 361 950 l 401 950 l 401 975 l 361 975 l 361 996 l 405 996 l 405 1022 l 328 1022 z m 416 903 l 450 903 l 459 969 l 490 902 l 502 902 l 532 969 l 542 903 l 575 903 l 557 1022 l 524 1022 l 496 958 l 468 1022 l 434 1022 z m 680 962 b 648 927 680 943 667 928 b 615 962 629 928 615 943 b 648 998 615 982 629 997 b 680 962 667 997 680 982 z m 247 996 b 279 962 266 996 279 982 b 247 929 279 943 266 929 l 235 929 l 235 996 z m 460 765 b 70 375 238 765 70 599 b 460 -15 70 152 238 -15 b 850 375 684 -15 850 152 b 460 765 850 598 684 765 z m 460 29 b 115 375 263 29 115 177 b 460 721 115 574 262 721 b 805 375 658 721 805 573 b 460 29 805 177 658 29 z "},"õ":{"ha":921,"x_min":0,"x_max":0,"o":"m 650 1025 b 586 962 614 1025 586 998 b 650 900 586 927 614 900 b 714 962 687 900 714 927 b 650 1025 714 998 687 1025 z m 253 1022 l 206 1022 l 206 903 l 253 903 b 313 962 287 903 313 928 b 253 1022 313 997 288 1022 z m 361 950 l 401 950 l 401 975 l 361 975 l 361 996 l 405 996 l 405 1022 l 333 1022 l 333 903 l 407 903 l 407 929 l 361 929 z m 529 1022 l 498 952 l 467 1022 l 439 1022 l 421 903 l 450 903 l 460 977 l 495 902 l 502 902 l 536 977 l 547 903 l 575 903 l 557 1022 z m 650 927 b 615 962 630 927 615 942 b 650 998 615 983 630 998 b 685 962 670 998 685 983 b 650 927 685 942 670 927 z m 252 929 l 235 929 l 235 996 l 252 996 b 284 962 271 996 284 982 b 252 929 284 943 271 929 z m 460 -15 b 850 375 684 -15 850 152 b 460 765 850 598 684 765 b 70 375 237 765 70 599 b 460 -15 70 152 237 -15 z m 460 29 b 115 375 263 29 115 177 b 460 721 115 574 262 721 b 805 375 658 721 805 573 b 460 29 805 177 658 29 z "},"œ":{"ha":522,"x_min":0,"x_max":0,"o":"m 261 740 b 383 863 331 740 383 792 b 261 987 383 935 331 987 b 139 863 191 987 139 935 b 261 740 139 792 191 740 z m 261 954 b 352 863 313 954 352 916 b 261 772 352 811 313 772 b 170 863 209 772 170 811 b 261 954 170 916 209 954 z m 143 641 l 312 564 l 143 487 l 143 456 l 379 417 l 379 450 l 199 480 l 374 560 l 374 568 l 199 649 l 379 678 l 379 711 l 143 672 z m 348 279 l 273 279 l 273 373 l 243 373 l 243 279 l 173 279 l 173 382 l 143 382 l 143 247 l 379 247 l 379 386 l 348 386 z m 261 200 b 143 80 192 200 143 149 l 143 0 l 379 0 l 379 80 b 261 200 379 149 329 200 z m 349 32 l 173 32 l 173 79 b 261 167 173 130 210 167 b 349 79 312 167 349 130 z "},"p":{"ha":974,"x_min":0,"x_max":0,"o":"m 522 765 b 180 554 368 765 241 681 l 171 750 l 136 750 l 136 -265 l 181 -265 l 181 194 b 522 -15 243 68 369 -15 b 903 375 744 -15 903 153 b 522 765 903 597 744 765 z m 519 29 b 179 375 326 29 179 178 b 519 721 179 573 326 721 b 858 375 715 721 858 575 b 519 29 858 175 715 29 z "},"þ":{"ha":522,"x_min":0,"x_max":0,"o":"m 261 740 b 383 863 331 740 383 792 b 261 987 383 935 331 987 b 139 863 191 987 139 935 b 261 740 139 792 191 740 z m 261 954 b 352 863 313 954 352 916 b 261 772 352 811 313 772 b 170 863 209 772 170 811 b 261 954 170 916 209 954 z m 143 641 l 312 564 l 143 487 l 143 456 l 379 417 l 379 450 l 199 480 l 374 560 l 374 568 l 199 649 l 379 678 l 379 711 l 143 672 z m 348 279 l 273 279 l 273 373 l 243 373 l 243 279 l 173 279 l 173 382 l 143 382 l 143 247 l 379 247 l 379 386 l 348 386 z m 261 200 b 143 80 192 200 143 149 l 143 0 l 379 0 l 379 80 b 261 200 379 149 329 200 z m 349 32 l 173 32 l 173 79 b 261 167 173 130 210 167 b 349 79 312 167 349 130 z "},"q":{"ha":972,"x_min":0,"x_max":0,"o":"m 802 750 l 793 556 b 452 765 732 682 607 765 b 70 375 233 765 70 597 b 452 -15 70 153 233 -15 b 792 192 607 -15 731 67 l 792 -265 l 836 -265 l 836 750 z m 454 29 b 115 375 260 29 115 178 b 454 721 115 573 260 721 b 793 375 650 721 793 575 b 454 29 793 175 650 29 z "},"r":{"ha":528,"x_min":0,"x_max":0,"o":"m 445 752 b 179 580 318 752 225 685 l 172 750 l 136 750 l 136 0 l 181 0 l 181 422 b 442 709 181 588 286 709 l 510 709 l 510 752 z "},"ŕ":{"ha":528,"x_min":0,"x_max":0,"o":"m 508 1025 b 444 963 471 1025 444 998 b 508 900 444 927 471 900 b 571 963 544 900 571 927 b 508 1025 571 998 544 1025 z m 171 963 b 110 1022 171 997 145 1022 l 64 1022 l 64 903 l 110 903 b 171 963 145 903 171 928 z m 265 929 l 218 929 l 218 950 l 258 950 l 258 976 l 218 976 l 218 996 l 263 996 l 263 1022 l 190 1022 l 190 903 l 265 903 z m 318 977 l 352 903 l 359 903 l 393 977 l 404 903 l 433 903 l 415 1022 l 386 1022 l 356 952 l 325 1022 l 297 1022 l 278 903 l 307 903 z m 508 927 b 473 963 488 927 473 942 b 508 998 473 983 488 998 b 543 963 528 998 543 983 b 508 927 543 942 528 927 z m 109 929 l 92 929 l 92 996 l 109 996 b 142 963 129 996 142 983 b 109 929 142 943 129 929 z m 179 580 l 172 750 l 136 750 l 136 0 l 181 0 l 181 422 b 442 709 181 588 286 709 l 510 709 l 510 752 l 445 752 b 179 580 318 752 225 685 z "},"ř":{"ha":528,"x_min":0,"x_max":0,"o":"m 508 1025 b 444 963 471 1025 444 998 b 508 900 444 927 471 900 b 571 963 544 900 571 927 b 508 1025 571 998 544 1025 z m 171 963 b 110 1022 171 997 145 1022 l 64 1022 l 64 903 l 110 903 b 171 963 145 903 171 928 z m 265 929 l 218 929 l 218 950 l 258 950 l 258 976 l 218 976 l 218 996 l 263 996 l 263 1022 l 190 1022 l 190 903 l 265 903 z m 318 977 l 352 903 l 359 903 l 393 977 l 404 903 l 433 903 l 415 1022 l 386 1022 l 356 952 l 325 1022 l 297 1022 l 278 903 l 307 903 z m 508 927 b 473 963 488 927 473 942 b 508 998 473 983 488 998 b 543 963 528 998 543 983 b 508 927 543 942 528 927 z m 109 929 l 92 929 l 92 996 l 109 996 b 142 963 129 996 142 983 b 109 929 142 943 129 929 z m 179 580 l 172 750 l 136 750 l 136 0 l 181 0 l 181 422 b 442 709 181 588 286 709 l 510 709 l 510 752 l 445 752 b 179 580 318 752 225 685 z "},"s":{"ha":703,"x_min":0,"x_max":0,"o":"m 352 -15 b 635 200 522 -15 635 71 b 355 415 635 366 486 393 b 124 566 233 435 124 453 b 346 724 124 660 213 724 b 572 555 482 724 565 661 l 615 555 b 347 765 608 684 506 765 b 81 565 189 765 81 684 b 345 372 81 418 215 394 b 591 199 468 351 591 328 b 353 27 591 95 496 27 b 110 204 211 27 122 92 l 66 204 b 352 -15 78 68 183 -15 z "},"ś":{"ha":703,"x_min":0,"x_max":0,"o":"m 541 1025 b 477 962 504 1025 477 998 b 541 900 477 927 504 900 b 604 962 577 900 604 927 b 541 1025 604 998 577 1025 z m 143 1022 l 97 1022 l 97 903 l 143 903 b 203 962 178 903 203 928 b 143 1022 203 997 178 1022 z m 251 950 l 291 950 l 291 975 l 251 975 l 251 996 l 295 996 l 295 1022 l 223 1022 l 223 903 l 297 903 l 297 929 l 251 929 z m 419 1022 l 388 952 l 358 1022 l 329 1022 l 311 903 l 340 903 l 351 977 l 385 902 l 392 902 l 426 977 l 437 903 l 466 903 l 448 1022 z m 541 927 b 505 962 521 927 505 942 b 541 998 505 983 521 998 b 575 962 560 998 575 983 b 541 927 575 942 560 927 z m 142 929 l 125 929 l 125 996 l 142 996 b 174 962 161 996 174 982 b 142 929 174 943 161 929 z m 352 -15 b 635 200 522 -15 635 71 b 355 415 635 366 486 393 b 124 566 233 435 124 453 b 346 724 124 660 212 724 b 572 555 482 724 565 661 l 615 555 b 347 765 608 684 506 765 b 81 565 189 765 81 684 b 345 372 81 418 215 394 b 591 199 468 351 591 328 b 353 27 591 95 496 27 b 110 204 211 27 122 92 l 66 204 b 352 -15 78 68 183 -15 z "},"š":{"ha":703,"x_min":0,"x_max":0,"o":"m 541 1025 b 477 962 504 1025 477 998 b 541 900 477 927 504 900 b 604 962 577 900 604 927 b 541 1025 604 998 577 1025 z m 143 1022 l 97 1022 l 97 903 l 143 903 b 203 962 178 903 203 928 b 143 1022 203 997 178 1022 z m 251 950 l 291 950 l 291 975 l 251 975 l 251 996 l 295 996 l 295 1022 l 223 1022 l 223 903 l 297 903 l 297 929 l 251 929 z m 419 1022 l 388 952 l 358 1022 l 329 1022 l 311 903 l 340 903 l 351 977 l 385 902 l 392 902 l 426 977 l 437 903 l 466 903 l 448 1022 z m 541 927 b 505 962 521 927 505 942 b 541 998 505 983 521 998 b 575 962 560 998 575 983 b 541 927 575 942 560 927 z m 142 929 l 125 929 l 125 996 l 142 996 b 174 962 161 996 174 982 b 142 929 174 943 161 929 z m 352 -15 b 635 200 522 -15 635 71 b 355 415 635 366 486 393 b 124 566 233 435 124 453 b 346 724 124 660 212 724 b 572 555 482 724 565 661 l 615 555 b 347 765 608 684 506 765 b 81 565 189 765 81 684 b 345 372 81 418 215 394 b 591 199 468 351 591 328 b 353 27 591 95 496 27 b 110 204 211 27 122 92 l 66 204 b 352 -15 78 68 183 -15 z "},"ş":{"ha":703,"x_min":0,"x_max":0,"o":"m 541 1025 b 477 962 504 1025 477 998 b 541 900 477 927 504 900 b 604 962 577 900 604 927 b 541 1025 604 998 577 1025 z m 143 1022 l 97 1022 l 97 903 l 143 903 b 203 962 178 903 203 928 b 143 1022 203 997 178 1022 z m 251 950 l 291 950 l 291 975 l 251 975 l 251 996 l 295 996 l 295 1022 l 223 1022 l 223 903 l 297 903 l 297 929 l 251 929 z m 419 1022 l 388 952 l 358 1022 l 329 1022 l 311 903 l 340 903 l 351 977 l 385 902 l 392 902 l 426 977 l 437 903 l 466 903 l 448 1022 z m 541 927 b 505 962 521 927 505 942 b 541 998 505 983 521 998 b 575 962 560 998 575 983 b 541 927 575 942 560 927 z m 142 929 l 125 929 l 125 996 l 142 996 b 174 962 161 996 174 982 b 142 929 174 943 161 929 z m 352 -15 b 635 200 522 -15 635 71 b 355 415 635 366 486 393 b 124 566 233 435 124 453 b 346 724 124 660 212 724 b 572 555 482 724 565 661 l 615 555 b 347 765 608 684 506 765 b 81 565 189 765 81 684 b 345 372 81 418 215 394 b 591 199 468 351 591 328 b 353 27 591 95 496 27 b 110 204 211 27 122 92 l 66 204 b 352 -15 78 68 183 -15 z "},"ŝ":{"ha":703,"x_min":0,"x_max":0,"o":"m 541 1025 b 477 962 504 1025 477 998 b 541 900 477 927 504 900 b 604 962 577 900 604 927 b 541 1025 604 998 577 1025 z m 143 1022 l 97 1022 l 97 903 l 143 903 b 203 962 178 903 203 928 b 143 1022 203 997 178 1022 z m 251 950 l 291 950 l 291 975 l 251 975 l 251 996 l 295 996 l 295 1022 l 223 1022 l 223 903 l 297 903 l 297 929 l 251 929 z m 419 1022 l 388 952 l 358 1022 l 329 1022 l 311 903 l 340 903 l 351 977 l 385 902 l 392 902 l 426 977 l 437 903 l 466 903 l 448 1022 z m 541 927 b 505 962 521 927 505 942 b 541 998 505 983 521 998 b 575 962 560 998 575 983 b 541 927 575 942 560 927 z m 142 929 l 125 929 l 125 996 l 142 996 b 174 962 161 996 174 982 b 142 929 174 943 161 929 z m 352 -15 b 635 200 522 -15 635 71 b 355 415 635 366 486 393 b 124 566 233 435 124 453 b 346 724 124 660 212 724 b 572 555 482 724 565 661 l 615 555 b 347 765 608 684 506 765 b 81 565 189 765 81 684 b 345 372 81 418 215 394 b 591 199 468 351 591 328 b 353 27 591 95 496 27 b 110 204 211 27 122 92 l 66 204 b 352 -15 78 68 183 -15 z "},"ß":{"ha":522,"x_min":0,"x_max":0,"o":"m 261 740 b 383 863 331 740 383 792 b 261 987 383 935 331 987 b 139 863 191 987 139 935 b 261 740 139 792 191 740 z m 261 954 b 352 863 313 954 352 916 b 261 772 352 811 313 772 b 170 863 209 772 170 811 b 261 954 170 916 209 954 z m 143 641 l 312 564 l 143 487 l 143 456 l 379 417 l 379 450 l 199 480 l 374 560 l 374 568 l 199 649 l 379 678 l 379 711 l 143 672 z m 348 279 l 273 279 l 273 373 l 243 373 l 243 279 l 173 279 l 173 382 l 143 382 l 143 247 l 379 247 l 379 386 l 348 386 z m 261 200 b 143 80 192 200 143 149 l 143 0 l 379 0 l 379 80 b 261 200 379 149 329 200 z m 349 32 l 173 32 l 173 79 b 261 167 173 130 210 167 b 349 79 312 167 349 130 z "},"ſ":{"ha":522,"x_min":0,"x_max":0,"o":"m 261 740 b 383 863 331 740 383 792 b 261 987 383 935 331 987 b 139 863 191 987 139 935 b 261 740 139 792 191 740 z m 261 954 b 352 863 313 954 352 916 b 261 772 352 811 313 772 b 170 863 209 772 170 811 b 261 954 170 916 209 954 z m 143 641 l 312 564 l 143 487 l 143 456 l 379 417 l 379 450 l 199 480 l 374 560 l 374 568 l 199 649 l 379 678 l 379 711 l 143 672 z m 348 279 l 273 279 l 273 373 l 243 373 l 243 279 l 173 279 l 173 382 l 143 382 l 143 247 l 379 247 l 379 386 l 348 386 z m 261 200 b 143 80 192 200 143 149 l 143 0 l 379 0 l 379 80 b 261 200 379 149 329 200 z m 349 32 l 173 32 l 173 79 b 261 167 173 130 210 167 b 349 79 312 167 349 130 z "},"t":{"ha":532,"x_min":0,"x_max":0,"o":"m 417 42 b 233 230 300 42 233 111 l 233 709 l 505 709 l 505 749 l 233 749 l 233 970 l 188 970 l 188 749 l 15 749 l 15 709 l 188 709 l 188 228 b 413 0 188 86 273 0 l 511 0 l 511 42 z "},"ŧ":{"ha":522,"x_min":0,"x_max":0,"o":"m 261 740 b 383 863 331 740 383 792 b 261 987 383 935 331 987 b 139 863 191 987 139 935 b 261 740 139 792 191 740 z m 261 954 b 352 863 313 954 352 916 b 261 772 352 811 313 772 b 170 863 209 772 170 811 b 261 954 170 916 209 954 z m 143 641 l 312 564 l 143 487 l 143 456 l 379 417 l 379 450 l 199 480 l 374 560 l 374 568 l 199 649 l 379 678 l 379 711 l 143 672 z m 348 279 l 273 279 l 273 373 l 243 373 l 243 279 l 173 279 l 173 382 l 143 382 l 143 247 l 379 247 l 379 386 l 348 386 z m 261 200 b 143 80 192 200 143 149 l 143 0 l 379 0 l 379 80 b 261 200 379 149 329 200 z m 349 32 l 173 32 l 173 79 b 261 167 173 130 210 167 b 349 79 312 167 349 130 z "},"ť":{"ha":522,"x_min":0,"x_max":0,"o":"m 261 740 b 383 863 331 740 383 792 b 261 987 383 935 331 987 b 139 863 191 987 139 935 b 261 740 139 792 191 740 z m 261 954 b 352 863 313 954 352 916 b 261 772 352 811 313 772 b 170 863 209 772 170 811 b 261 954 170 916 209 954 z m 143 641 l 312 564 l 143 487 l 143 456 l 379 417 l 379 450 l 199 480 l 374 560 l 374 568 l 199 649 l 379 678 l 379 711 l 143 672 z m 348 279 l 273 279 l 273 373 l 243 373 l 243 279 l 173 279 l 173 382 l 143 382 l 143 247 l 379 247 l 379 386 l 348 386 z m 261 200 b 143 80 192 200 143 149 l 143 0 l 379 0 l 379 80 b 261 200 379 149 329 200 z m 349 32 l 173 32 l 173 79 b 261 167 173 130 210 167 b 349 79 312 167 349 130 z "},"u":{"ha":876,"x_min":0,"x_max":0,"o":"m 438 -15 b 754 315 632 -15 754 114 l 754 750 l 709 750 l 709 320 b 438 29 709 141 606 29 b 166 320 270 29 166 140 l 166 750 l 122 750 l 122 315 b 438 -15 122 114 244 -15 z "},"ú":{"ha":876,"x_min":0,"x_max":0,"o":"m 628 1025 b 564 962 591 1025 564 998 b 628 900 564 927 591 900 b 692 962 664 900 692 927 b 628 1025 692 998 664 1025 z m 230 1022 l 184 1022 l 184 903 l 230 903 b 291 962 265 903 291 928 b 230 1022 291 997 265 1022 z m 339 950 l 378 950 l 378 975 l 339 975 l 339 996 l 383 996 l 383 1022 l 310 1022 l 310 903 l 385 903 l 385 929 l 339 929 z m 507 1022 l 476 952 l 445 1022 l 417 1022 l 399 903 l 427 903 l 438 977 l 472 902 l 479 902 l 514 977 l 524 903 l 553 903 l 535 1022 z m 628 927 b 593 962 608 927 593 942 b 628 998 593 983 608 998 b 663 962 648 998 663 983 b 628 927 663 942 648 927 z m 230 929 l 212 929 l 212 996 l 230 996 b 262 962 249 996 262 982 b 230 929 262 943 249 929 z m 438 -15 b 754 315 632 -15 754 114 l 754 750 l 709 750 l 709 320 b 438 29 709 141 606 29 b 166 320 270 29 166 140 l 166 750 l 122 750 l 122 315 b 438 -15 122 114 244 -15 z "},"ŭ":{"ha":876,"x_min":0,"x_max":0,"o":"m 628 1025 b 564 962 591 1025 564 998 b 628 900 564 927 591 900 b 692 962 664 900 692 927 b 628 1025 692 998 664 1025 z m 230 1022 l 184 1022 l 184 903 l 230 903 b 291 962 265 903 291 928 b 230 1022 291 997 265 1022 z m 339 950 l 378 950 l 378 975 l 339 975 l 339 996 l 383 996 l 383 1022 l 310 1022 l 310 903 l 385 903 l 385 929 l 339 929 z m 507 1022 l 476 952 l 445 1022 l 417 1022 l 399 903 l 427 903 l 438 977 l 472 902 l 479 902 l 514 977 l 524 903 l 553 903 l 535 1022 z m 628 927 b 593 962 608 927 593 942 b 628 998 593 983 608 998 b 663 962 648 998 663 983 b 628 927 663 942 648 927 z m 230 929 l 212 929 l 212 996 l 230 996 b 262 962 249 996 262 982 b 230 929 262 943 249 929 z m 438 -15 b 754 315 632 -15 754 114 l 754 750 l 709 750 l 709 320 b 438 29 709 141 606 29 b 166 320 270 29 166 140 l 166 750 l 122 750 l 122 315 b 438 -15 122 114 244 -15 z "},"û":{"ha":876,"x_min":0,"x_max":0,"o":"m 628 1025 b 564 962 591 1025 564 998 b 628 900 564 927 591 900 b 692 962 664 900 692 927 b 628 1025 692 998 664 1025 z m 230 1022 l 184 1022 l 184 903 l 230 903 b 291 962 265 903 291 928 b 230 1022 291 997 265 1022 z m 339 950 l 378 950 l 378 975 l 339 975 l 339 996 l 383 996 l 383 1022 l 310 1022 l 310 903 l 385 903 l 385 929 l 339 929 z m 507 1022 l 476 952 l 445 1022 l 417 1022 l 399 903 l 427 903 l 438 977 l 472 902 l 479 902 l 514 977 l 524 903 l 553 903 l 535 1022 z m 628 927 b 593 962 608 927 593 942 b 628 998 593 983 608 998 b 663 962 648 998 663 983 b 628 927 663 942 648 927 z m 230 929 l 212 929 l 212 996 l 230 996 b 262 962 249 996 262 982 b 230 929 262 943 249 929 z m 438 -15 b 754 315 632 -15 754 114 l 754 750 l 709 750 l 709 320 b 438 29 709 141 606 29 b 166 320 270 29 166 140 l 166 750 l 122 750 l 122 315 b 438 -15 122 114 244 -15 z "},"ü":{"ha":876,"x_min":0,"x_max":0,"o":"m 628 1025 b 564 962 591 1025 564 998 b 628 900 564 927 591 900 b 692 962 664 900 692 927 b 628 1025 692 998 664 1025 z m 230 1022 l 184 1022 l 184 903 l 230 903 b 291 962 265 903 291 928 b 230 1022 291 997 265 1022 z m 339 950 l 378 950 l 378 975 l 339 975 l 339 996 l 383 996 l 383 1022 l 310 1022 l 310 903 l 385 903 l 385 929 l 339 929 z m 507 1022 l 476 952 l 445 1022 l 417 1022 l 399 903 l 427 903 l 438 977 l 472 902 l 479 902 l 514 977 l 524 903 l 553 903 l 535 1022 z m 628 927 b 593 962 608 927 593 942 b 628 998 593 983 608 998 b 663 962 648 998 663 983 b 628 927 663 942 648 927 z m 230 929 l 212 929 l 212 996 l 230 996 b 262 962 249 996 262 982 b 230 929 262 943 249 929 z m 438 -15 b 754 315 632 -15 754 114 l 754 750 l 709 750 l 709 320 b 438 29 709 141 606 29 b 166 320 270 29 166 140 l 166 750 l 122 750 l 122 315 b 438 -15 122 114 244 -15 z "},"ù":{"ha":876,"x_min":0,"x_max":0,"o":"m 628 1025 b 564 962 591 1025 564 998 b 628 900 564 927 591 900 b 692 962 664 900 692 927 b 628 1025 692 998 664 1025 z m 230 1022 l 184 1022 l 184 903 l 230 903 b 291 962 265 903 291 928 b 230 1022 291 997 265 1022 z m 339 950 l 378 950 l 378 975 l 339 975 l 339 996 l 383 996 l 383 1022 l 310 1022 l 310 903 l 385 903 l 385 929 l 339 929 z m 507 1022 l 476 952 l 445 1022 l 417 1022 l 399 903 l 427 903 l 438 977 l 472 902 l 479 902 l 514 977 l 524 903 l 553 903 l 535 1022 z m 628 927 b 593 962 608 927 593 942 b 628 998 593 983 608 998 b 663 962 648 998 663 983 b 628 927 663 942 648 927 z m 230 929 l 212 929 l 212 996 l 230 996 b 262 962 249 996 262 982 b 230 929 262 943 249 929 z m 438 -15 b 754 315 632 -15 754 114 l 754 750 l 709 750 l 709 320 b 438 29 709 141 606 29 b 166 320 270 29 166 140 l 166 750 l 122 750 l 122 315 b 438 -15 122 114 244 -15 z "},"ű":{"ha":876,"x_min":0,"x_max":0,"o":"m 628 1025 b 564 962 591 1025 564 998 b 628 900 564 927 591 900 b 692 962 664 900 692 927 b 628 1025 692 998 664 1025 z m 230 1022 l 184 1022 l 184 903 l 230 903 b 291 962 265 903 291 928 b 230 1022 291 997 265 1022 z m 339 950 l 378 950 l 378 975 l 339 975 l 339 996 l 383 996 l 383 1022 l 310 1022 l 310 903 l 385 903 l 385 929 l 339 929 z m 507 1022 l 476 952 l 445 1022 l 417 1022 l 399 903 l 427 903 l 438 977 l 472 902 l 479 902 l 514 977 l 524 903 l 553 903 l 535 1022 z m 628 927 b 593 962 608 927 593 942 b 628 998 593 983 608 998 b 663 962 648 998 663 983 b 628 927 663 942 648 927 z m 230 929 l 212 929 l 212 996 l 230 996 b 262 962 249 996 262 982 b 230 929 262 943 249 929 z m 438 -15 b 754 315 632 -15 754 114 l 754 750 l 709 750 l 709 320 b 438 29 709 141 606 29 b 166 320 270 29 166 140 l 166 750 l 122 750 l 122 315 b 438 -15 122 114 244 -15 z "},"ū":{"ha":876,"x_min":0,"x_max":0,"o":"m 628 1025 b 564 962 591 1025 564 998 b 628 900 564 927 591 900 b 692 962 664 900 692 927 b 628 1025 692 998 664 1025 z m 230 1022 l 184 1022 l 184 903 l 230 903 b 291 962 265 903 291 928 b 230 1022 291 997 265 1022 z m 339 950 l 378 950 l 378 975 l 339 975 l 339 996 l 383 996 l 383 1022 l 310 1022 l 310 903 l 385 903 l 385 929 l 339 929 z m 507 1022 l 476 952 l 445 1022 l 417 1022 l 399 903 l 427 903 l 438 977 l 472 902 l 479 902 l 514 977 l 524 903 l 553 903 l 535 1022 z m 628 927 b 593 962 608 927 593 942 b 628 998 593 983 608 998 b 663 962 648 998 663 983 b 628 927 663 942 648 927 z m 230 929 l 212 929 l 212 996 l 230 996 b 262 962 249 996 262 982 b 230 929 262 943 249 929 z m 438 -15 b 754 315 632 -15 754 114 l 754 750 l 709 750 l 709 320 b 438 29 709 141 606 29 b 166 320 270 29 166 140 l 166 750 l 122 750 l 122 315 b 438 -15 122 114 244 -15 z "},"ģ":{"ha":939,"x_min":0,"x_max":0,"o":"m 637 900 b 701 962 673 900 701 927 b 637 1025 701 998 673 1025 b 573 962 601 1025 573 998 b 637 900 573 927 601 900 z m 300 962 b 239 1022 300 997 274 1022 l 193 1022 l 193 903 l 239 903 b 300 962 274 903 300 928 z m 394 929 l 348 929 l 348 950 l 388 950 l 388 975 l 348 975 l 348 996 l 392 996 l 392 1022 l 319 1022 l 319 903 l 394 903 z m 447 977 l 481 902 l 488 902 l 523 977 l 534 903 l 562 903 l 544 1022 l 516 1022 l 485 952 l 454 1022 l 426 1022 l 408 903 l 436 903 z m 637 998 b 672 962 657 998 672 983 b 637 927 672 942 657 927 b 602 962 617 927 602 942 b 637 998 602 983 617 998 z m 221 929 l 221 996 l 239 996 b 271 963 258 996 271 982 b 239 929 271 943 258 929 z m 769 750 l 763 562 b 436 765 705 684 583 765 b 71 395 230 765 71 604 b 436 27 71 186 229 27 b 759 221 581 27 700 103 l 759 106 b 448 -238 759 -110 640 -238 b 160 -50 310 -238 205 -171 l 116 -50 b 448 -280 162 -195 281 -280 b 803 110 669 -280 803 -132 l 803 750 z m 440 70 b 116 395 255 70 116 210 b 440 722 116 580 255 722 b 759 395 623 722 759 583 b 440 70 759 208 624 70 z "},"ķ":{"ha":522,"x_min":0,"x_max":0,"o":"m 261 740 b 383 863 331 740 383 792 b 261 987 383 935 331 987 b 139 863 191 987 139 935 b 261 740 139 792 191 740 z m 261 954 b 352 863 313 954 352 916 b 261 772 352 811 313 772 b 170 863 209 772 170 811 b 261 954 170 916 209 954 z m 143 641 l 312 564 l 143 487 l 143 456 l 379 417 l 379 450 l 199 480 l 374 560 l 374 568 l 199 649 l 379 678 l 379 711 l 143 672 z m 348 279 l 273 279 l 273 373 l 243 373 l 243 279 l 173 279 l 173 382 l 143 382 l 143 247 l 379 247 l 379 386 l 348 386 z m 261 200 b 143 80 192 200 143 149 l 143 0 l 379 0 l 379 80 b 261 200 379 149 329 200 z m 349 32 l 173 32 l 173 79 b 261 167 173 130 210 167 b 349 79 312 167 349 130 z "},"ļ":{"ha":318,"x_min":0,"x_max":0,"o":"m 352 1256 b 288 1194 315 1256 288 1229 b 352 1132 288 1158 315 1132 b 415 1194 388 1132 415 1158 b 352 1256 415 1230 388 1256 z m -46 1253 l -92 1253 l -92 1134 l -46 1134 b 15 1194 -11 1134 15 1160 b -46 1253 15 1228 -11 1253 z m 62 1182 l 102 1182 l 102 1207 l 62 1207 l 62 1228 l 107 1228 l 107 1253 l 34 1253 l 34 1134 l 108 1134 l 108 1160 l 62 1160 z m 230 1253 l 200 1184 l 169 1253 l 141 1253 l 122 1134 l 151 1134 l 162 1209 l 196 1134 l 203 1134 l 237 1209 l 248 1134 l 277 1134 l 259 1253 z m 352 1158 b 316 1194 332 1158 316 1174 b 352 1230 316 1214 332 1230 b 387 1194 372 1230 387 1214 b 352 1158 387 1173 372 1158 z m -47 1161 l -64 1161 l -64 1227 l -47 1227 b -14 1194 -28 1227 -14 1214 b -47 1161 -14 1174 -28 1161 z m 136 0 l 181 0 l 181 1015 l 136 1015 z "},"ņ":{"ha":890,"x_min":0,"x_max":0,"o":"m 641 900 b 704 962 677 900 704 927 b 641 1025 704 998 677 1025 b 577 962 604 1025 577 998 b 641 900 577 927 604 900 z m 304 962 b 243 1022 304 997 278 1022 l 197 1022 l 197 903 l 243 903 b 304 962 278 903 304 928 z m 398 929 l 351 929 l 351 950 l 391 950 l 391 975 l 351 975 l 351 996 l 396 996 l 396 1022 l 323 1022 l 323 903 l 398 903 z m 451 977 l 485 902 l 492 902 l 526 977 l 537 903 l 566 903 l 548 1022 l 519 1022 l 489 952 l 458 1022 l 430 1022 l 411 903 l 440 903 z m 641 998 b 676 962 661 998 676 983 b 641 927 676 942 661 927 b 606 962 621 927 606 942 b 641 998 606 983 621 998 z m 225 929 l 225 996 l 242 996 b 275 962 262 996 275 982 b 242 929 275 943 262 929 z m 473 765 b 179 577 344 765 231 688 l 172 750 l 136 750 l 136 0 l 181 0 l 181 437 b 465 723 181 591 312 723 b 723 436 626 723 723 615 l 723 0 l 767 0 l 767 444 b 473 765 767 637 654 765 z "},"ŗ":{"ha":528,"x_min":0,"x_max":0,"o":"m 508 1025 b 444 963 471 1025 444 998 b 508 900 444 927 471 900 b 571 963 544 900 571 927 b 508 1025 571 998 544 1025 z m 171 963 b 110 1022 171 997 145 1022 l 64 1022 l 64 903 l 110 903 b 171 963 145 903 171 928 z m 265 929 l 218 929 l 218 950 l 258 950 l 258 976 l 218 976 l 218 996 l 263 996 l 263 1022 l 190 1022 l 190 903 l 265 903 z m 318 977 l 352 903 l 359 903 l 393 977 l 404 903 l 433 903 l 415 1022 l 386 1022 l 356 952 l 325 1022 l 297 1022 l 278 903 l 307 903 z m 508 927 b 473 963 488 927 473 942 b 508 998 473 983 488 998 b 543 963 528 998 543 983 b 508 927 543 942 528 927 z m 109 929 l 92 929 l 92 996 l 109 996 b 142 963 129 996 142 983 b 109 929 142 943 129 929 z m 179 580 l 172 750 l 136 750 l 136 0 l 181 0 l 181 422 b 442 709 181 588 286 709 l 510 709 l 510 752 l 445 752 b 179 580 318 752 225 685 z "},"ţ":{"ha":522,"x_min":0,"x_max":0,"o":"m 261 740 b 383 863 331 740 383 792 b 261 987 383 935 331 987 b 139 863 191 987 139 935 b 261 740 139 792 191 740 z m 261 954 b 352 863 313 954 352 916 b 261 772 352 811 313 772 b 170 863 209 772 170 811 b 261 954 170 916 209 954 z m 143 641 l 312 564 l 143 487 l 143 456 l 379 417 l 379 450 l 199 480 l 374 560 l 374 568 l 199 649 l 379 678 l 379 711 l 143 672 z m 348 279 l 273 279 l 273 373 l 243 373 l 243 279 l 173 279 l 173 382 l 143 382 l 143 247 l 379 247 l 379 386 l 348 386 z m 261 200 b 143 80 192 200 143 149 l 143 0 l 379 0 l 379 80 b 261 200 379 149 329 200 z m 349 32 l 173 32 l 173 79 b 261 167 173 130 210 167 b 349 79 312 167 349 130 z "},"ș":{"ha":703,"x_min":0,"x_max":0,"o":"m 541 1025 b 477 962 504 1025 477 998 b 541 900 477 927 504 900 b 604 962 577 900 604 927 b 541 1025 604 998 577 1025 z m 143 1022 l 97 1022 l 97 903 l 143 903 b 203 962 178 903 203 928 b 143 1022 203 997 178 1022 z m 251 950 l 291 950 l 291 975 l 251 975 l 251 996 l 295 996 l 295 1022 l 223 1022 l 223 903 l 297 903 l 297 929 l 251 929 z m 419 1022 l 388 952 l 358 1022 l 329 1022 l 311 903 l 340 903 l 351 977 l 385 902 l 392 902 l 426 977 l 437 903 l 466 903 l 448 1022 z m 541 927 b 505 962 521 927 505 942 b 541 998 505 983 521 998 b 575 962 560 998 575 983 b 541 927 575 942 560 927 z m 142 929 l 125 929 l 125 996 l 142 996 b 174 962 161 996 174 982 b 142 929 174 943 161 929 z m 352 -15 b 635 200 522 -15 635 71 b 355 415 635 366 486 393 b 124 566 233 435 124 453 b 346 724 124 660 212 724 b 572 555 482 724 565 661 l 615 555 b 347 765 608 684 506 765 b 81 565 189 765 81 684 b 345 372 81 418 215 394 b 591 199 468 351 591 328 b 353 27 591 95 496 27 b 110 204 211 27 122 92 l 66 204 b 352 -15 78 68 183 -15 z "},"ț":{"ha":522,"x_min":0,"x_max":0,"o":"m 261 740 b 383 863 331 740 383 792 b 261 987 383 935 331 987 b 139 863 191 987 139 935 b 261 740 139 792 191 740 z m 261 954 b 352 863 313 954 352 916 b 261 772 352 811 313 772 b 170 863 209 772 170 811 b 261 954 170 916 209 954 z m 143 641 l 312 564 l 143 487 l 143 456 l 379 417 l 379 450 l 199 480 l 374 560 l 374 568 l 199 649 l 379 678 l 379 711 l 143 672 z m 348 279 l 273 279 l 273 373 l 243 373 l 243 279 l 173 279 l 173 382 l 143 382 l 143 247 l 379 247 l 379 386 l 348 386 z m 261 200 b 143 80 192 200 143 149 l 143 0 l 379 0 l 379 80 b 261 200 379 149 329 200 z m 349 32 l 173 32 l 173 79 b 261 167 173 130 210 167 b 349 79 312 167 349 130 z "},"ų":{"ha":876,"x_min":0,"x_max":0,"o":"m 628 1025 b 564 962 591 1025 564 998 b 628 900 564 927 591 900 b 692 962 664 900 692 927 b 628 1025 692 998 664 1025 z m 230 1022 l 184 1022 l 184 903 l 230 903 b 291 962 265 903 291 928 b 230 1022 291 997 265 1022 z m 339 950 l 378 950 l 378 975 l 339 975 l 339 996 l 383 996 l 383 1022 l 310 1022 l 310 903 l 385 903 l 385 929 l 339 929 z m 507 1022 l 476 952 l 445 1022 l 417 1022 l 399 903 l 427 903 l 438 977 l 472 902 l 479 902 l 514 977 l 524 903 l 553 903 l 535 1022 z m 628 927 b 593 962 608 927 593 942 b 628 998 593 983 608 998 b 663 962 648 998 663 983 b 628 927 663 942 648 927 z m 230 929 l 212 929 l 212 996 l 230 996 b 262 962 249 996 262 982 b 230 929 262 943 249 929 z m 438 -15 b 754 315 632 -15 754 114 l 754 750 l 709 750 l 709 320 b 438 29 709 141 606 29 b 166 320 270 29 166 140 l 166 750 l 122 750 l 122 315 b 438 -15 122 114 244 -15 z "},"ů":{"ha":876,"x_min":0,"x_max":0,"o":"m 628 1025 b 564 962 591 1025 564 998 b 628 900 564 927 591 900 b 692 962 664 900 692 927 b 628 1025 692 998 664 1025 z m 230 1022 l 184 1022 l 184 903 l 230 903 b 291 962 265 903 291 928 b 230 1022 291 997 265 1022 z m 339 950 l 378 950 l 378 975 l 339 975 l 339 996 l 383 996 l 383 1022 l 310 1022 l 310 903 l 385 903 l 385 929 l 339 929 z m 507 1022 l 476 952 l 445 1022 l 417 1022 l 399 903 l 427 903 l 438 977 l 472 902 l 479 902 l 514 977 l 524 903 l 553 903 l 535 1022 z m 628 927 b 593 962 608 927 593 942 b 628 998 593 983 608 998 b 663 962 648 998 663 983 b 628 927 663 942 648 927 z m 230 929 l 212 929 l 212 996 l 230 996 b 262 962 249 996 262 982 b 230 929 262 943 249 929 z m 438 -15 b 754 315 632 -15 754 114 l 754 750 l 709 750 l 709 320 b 438 29 709 141 606 29 b 166 320 270 29 166 140 l 166 750 l 122 750 l 122 315 b 438 -15 122 114 244 -15 z "},"ũ":{"ha":876,"x_min":0,"x_max":0,"o":"m 628 1025 b 564 962 591 1025 564 998 b 628 900 564 927 591 900 b 692 962 664 900 692 927 b 628 1025 692 998 664 1025 z m 230 1022 l 184 1022 l 184 903 l 230 903 b 291 962 265 903 291 928 b 230 1022 291 997 265 1022 z m 339 950 l 378 950 l 378 975 l 339 975 l 339 996 l 383 996 l 383 1022 l 310 1022 l 310 903 l 385 903 l 385 929 l 339 929 z m 507 1022 l 476 952 l 445 1022 l 417 1022 l 399 903 l 427 903 l 438 977 l 472 902 l 479 902 l 514 977 l 524 903 l 553 903 l 535 1022 z m 628 927 b 593 962 608 927 593 942 b 628 998 593 983 608 998 b 663 962 648 998 663 983 b 628 927 663 942 648 927 z m 230 929 l 212 929 l 212 996 l 230 996 b 262 962 249 996 262 982 b 230 929 262 943 249 929 z m 438 -15 b 754 315 632 -15 754 114 l 754 750 l 709 750 l 709 320 b 438 29 709 141 606 29 b 166 320 270 29 166 140 l 166 750 l 122 750 l 122 315 b 438 -15 122 114 244 -15 z "},"v":{"ha":783,"x_min":0,"x_max":0,"o":"m 700 750 l 394 63 l 81 750 l 34 750 l 375 0 l 413 0 l 746 750 z "},"w":{"ha":1178,"x_min":0,"x_max":0,"o":"m 1096 750 l 857 76 l 596 726 l 576 726 l 317 78 l 87 750 l 40 750 l 298 0 l 332 0 l 586 640 l 842 0 l 876 0 l 1142 750 z "},"ẃ":{"ha":1178,"x_min":0,"x_max":0,"o":"m 775 900 b 839 962 812 900 839 927 b 775 1025 839 998 812 1025 b 711 962 739 1025 711 998 b 775 900 711 927 739 900 z m 438 962 b 378 1022 438 997 413 1022 l 331 1022 l 331 903 l 378 903 b 438 962 413 903 438 928 z m 532 929 l 486 929 l 486 950 l 526 950 l 526 975 l 486 975 l 486 996 l 530 996 l 530 1022 l 458 1022 l 458 903 l 532 903 z m 585 977 l 620 902 l 627 902 l 661 977 l 672 903 l 700 903 l 682 1022 l 654 1022 l 623 952 l 592 1022 l 564 1022 l 546 903 l 575 903 z m 775 998 b 810 962 795 998 810 983 b 775 927 810 942 795 927 b 740 962 755 927 740 942 b 775 998 740 983 755 998 z m 360 929 l 360 996 l 377 996 b 409 962 396 996 409 982 b 377 929 409 943 396 929 z m 1096 750 l 857 76 l 596 726 l 576 726 l 317 78 l 87 750 l 40 750 l 298 0 l 332 0 l 586 640 l 842 0 l 876 0 l 1142 750 z "},"ŵ":{"ha":1178,"x_min":0,"x_max":0,"o":"m 775 900 b 839 962 812 900 839 927 b 775 1025 839 998 812 1025 b 711 962 739 1025 711 998 b 775 900 711 927 739 900 z m 438 962 b 378 1022 438 997 413 1022 l 331 1022 l 331 903 l 378 903 b 438 962 413 903 438 928 z m 532 929 l 486 929 l 486 950 l 526 950 l 526 975 l 486 975 l 486 996 l 530 996 l 530 1022 l 458 1022 l 458 903 l 532 903 z m 585 977 l 620 902 l 627 902 l 661 977 l 672 903 l 700 903 l 682 1022 l 654 1022 l 623 952 l 592 1022 l 564 1022 l 546 903 l 575 903 z m 775 998 b 810 962 795 998 810 983 b 775 927 810 942 795 927 b 740 962 755 927 740 942 b 775 998 740 983 755 998 z m 360 929 l 360 996 l 377 996 b 409 962 396 996 409 982 b 377 929 409 943 396 929 z m 1096 750 l 857 76 l 596 726 l 576 726 l 317 78 l 87 750 l 40 750 l 298 0 l 332 0 l 586 640 l 842 0 l 876 0 l 1142 750 z "},"ẅ":{"ha":1178,"x_min":0,"x_max":0,"o":"m 775 900 b 839 962 812 900 839 927 b 775 1025 839 998 812 1025 b 711 962 739 1025 711 998 b 775 900 711 927 739 900 z m 438 962 b 378 1022 438 997 413 1022 l 331 1022 l 331 903 l 378 903 b 438 962 413 903 438 928 z m 532 929 l 486 929 l 486 950 l 526 950 l 526 975 l 486 975 l 486 996 l 530 996 l 530 1022 l 458 1022 l 458 903 l 532 903 z m 585 977 l 620 902 l 627 902 l 661 977 l 672 903 l 700 903 l 682 1022 l 654 1022 l 623 952 l 592 1022 l 564 1022 l 546 903 l 575 903 z m 775 998 b 810 962 795 998 810 983 b 775 927 810 942 795 927 b 740 962 755 927 740 942 b 775 998 740 983 755 998 z m 360 929 l 360 996 l 377 996 b 409 962 396 996 409 982 b 377 929 409 943 396 929 z m 1096 750 l 857 76 l 596 726 l 576 726 l 317 78 l 87 750 l 40 750 l 298 0 l 332 0 l 586 640 l 842 0 l 876 0 l 1142 750 z "},"ẁ":{"ha":1178,"x_min":0,"x_max":0,"o":"m 775 900 b 839 962 812 900 839 927 b 775 1025 839 998 812 1025 b 711 962 739 1025 711 998 b 775 900 711 927 739 900 z m 438 962 b 378 1022 438 997 413 1022 l 331 1022 l 331 903 l 378 903 b 438 962 413 903 438 928 z m 532 929 l 486 929 l 486 950 l 526 950 l 526 975 l 486 975 l 486 996 l 530 996 l 530 1022 l 458 1022 l 458 903 l 532 903 z m 585 977 l 620 902 l 627 902 l 661 977 l 672 903 l 700 903 l 682 1022 l 654 1022 l 623 952 l 592 1022 l 564 1022 l 546 903 l 575 903 z m 775 998 b 810 962 795 998 810 983 b 775 927 810 942 795 927 b 740 962 755 927 740 942 b 775 998 740 983 755 998 z m 360 929 l 360 996 l 377 996 b 409 962 396 996 409 982 b 377 929 409 943 396 929 z m 1096 750 l 857 76 l 596 726 l 576 726 l 317 78 l 87 750 l 40 750 l 298 0 l 332 0 l 586 640 l 842 0 l 876 0 l 1142 750 z "},"x":{"ha":675,"x_min":0,"x_max":0,"o":"m 659 0 l 365 394 l 631 750 l 580 750 l 338 425 l 97 750 l 45 750 l 310 393 l 17 0 l 68 0 l 338 363 l 607 0 z "},"y":{"ha":796,"x_min":0,"x_max":0,"o":"m 714 750 l 408 91 l 83 750 l 34 750 l 384 42 l 339 -54 b 120 -224 274 -192 223 -224 l 64 -224 l 64 -265 l 123 -265 b 380 -66 242 -265 307 -222 l 762 750 z "},"ý":{"ha":796,"x_min":0,"x_max":0,"o":"m 595 900 b 659 962 631 900 659 927 b 595 1025 659 998 631 1025 b 531 962 558 1025 531 998 b 595 900 531 927 558 900 z m 258 962 b 197 1022 258 997 232 1022 l 151 1022 l 151 903 l 197 903 b 258 962 232 903 258 928 z m 352 929 l 306 929 l 306 950 l 345 950 l 345 975 l 306 975 l 306 996 l 350 996 l 350 1022 l 277 1022 l 277 903 l 352 903 z m 405 977 l 439 902 l 446 902 l 481 977 l 491 903 l 520 903 l 502 1022 l 474 1022 l 443 952 l 412 1022 l 384 1022 l 366 903 l 394 903 z m 595 998 b 630 962 615 998 630 983 b 595 927 630 942 615 927 b 560 962 575 927 560 942 b 595 998 560 983 575 998 z m 179 929 l 179 996 l 197 996 b 229 962 216 996 229 982 b 197 929 229 943 216 929 z m 714 750 l 408 91 l 83 750 l 34 750 l 384 42 l 339 -54 b 120 -224 274 -192 223 -224 l 64 -224 l 64 -265 l 123 -265 b 380 -66 242 -265 307 -222 l 762 750 z "},"ŷ":{"ha":796,"x_min":0,"x_max":0,"o":"m 595 900 b 659 962 631 900 659 927 b 595 1025 659 998 631 1025 b 531 962 558 1025 531 998 b 595 900 531 927 558 900 z m 258 962 b 197 1022 258 997 232 1022 l 151 1022 l 151 903 l 197 903 b 258 962 232 903 258 928 z m 352 929 l 306 929 l 306 950 l 345 950 l 345 975 l 306 975 l 306 996 l 350 996 l 350 1022 l 277 1022 l 277 903 l 352 903 z m 405 977 l 439 902 l 446 902 l 481 977 l 491 903 l 520 903 l 502 1022 l 474 1022 l 443 952 l 412 1022 l 384 1022 l 366 903 l 394 903 z m 595 998 b 630 962 615 998 630 983 b 595 927 630 942 615 927 b 560 962 575 927 560 942 b 595 998 560 983 575 998 z m 179 929 l 179 996 l 197 996 b 229 962 216 996 229 982 b 197 929 229 943 216 929 z m 714 750 l 408 91 l 83 750 l 34 750 l 384 42 l 339 -54 b 120 -224 274 -192 223 -224 l 64 -224 l 64 -265 l 123 -265 b 380 -66 242 -265 307 -222 l 762 750 z "},"ÿ":{"ha":796,"x_min":0,"x_max":0,"o":"m 595 900 b 659 962 631 900 659 927 b 595 1025 659 998 631 1025 b 531 962 558 1025 531 998 b 595 900 531 927 558 900 z m 258 962 b 197 1022 258 997 232 1022 l 151 1022 l 151 903 l 197 903 b 258 962 232 903 258 928 z m 352 929 l 306 929 l 306 950 l 345 950 l 345 975 l 306 975 l 306 996 l 350 996 l 350 1022 l 277 1022 l 277 903 l 352 903 z m 405 977 l 439 902 l 446 902 l 481 977 l 491 903 l 520 903 l 502 1022 l 474 1022 l 443 952 l 412 1022 l 384 1022 l 366 903 l 394 903 z m 595 998 b 630 962 615 998 630 983 b 595 927 630 942 615 927 b 560 962 575 927 560 942 b 595 998 560 983 575 998 z m 179 929 l 179 996 l 197 996 b 229 962 216 996 229 982 b 197 929 229 943 216 929 z m 714 750 l 408 91 l 83 750 l 34 750 l 384 42 l 339 -54 b 120 -224 274 -192 223 -224 l 64 -224 l 64 -265 l 123 -265 b 380 -66 242 -265 307 -222 l 762 750 z "},"ỳ":{"ha":796,"x_min":0,"x_max":0,"o":"m 595 900 b 659 962 631 900 659 927 b 595 1025 659 998 631 1025 b 531 962 558 1025 531 998 b 595 900 531 927 558 900 z m 258 962 b 197 1022 258 997 232 1022 l 151 1022 l 151 903 l 197 903 b 258 962 232 903 258 928 z m 352 929 l 306 929 l 306 950 l 345 950 l 345 975 l 306 975 l 306 996 l 350 996 l 350 1022 l 277 1022 l 277 903 l 352 903 z m 405 977 l 439 902 l 446 902 l 481 977 l 491 903 l 520 903 l 502 1022 l 474 1022 l 443 952 l 412 1022 l 384 1022 l 366 903 l 394 903 z m 595 998 b 630 962 615 998 630 983 b 595 927 630 942 615 927 b 560 962 575 927 560 942 b 595 998 560 983 575 998 z m 179 929 l 179 996 l 197 996 b 229 962 216 996 229 982 b 197 929 229 943 216 929 z m 714 750 l 408 91 l 83 750 l 34 750 l 384 42 l 339 -54 b 120 -224 274 -192 223 -224 l 64 -224 l 64 -265 l 123 -265 b 380 -66 242 -265 307 -222 l 762 750 z "},"z":{"ha":633,"x_min":0,"x_max":0,"o":"m 107 42 l 586 738 l 586 750 l 59 750 l 59 708 l 516 708 l 36 13 l 36 0 l 596 0 l 596 42 z "},"ź":{"ha":633,"x_min":0,"x_max":0,"o":"m 524 900 b 587 962 560 900 587 927 b 524 1025 587 998 560 1025 b 460 962 487 1025 460 998 b 524 900 460 927 487 900 z m 187 962 b 126 1022 187 997 161 1022 l 80 1022 l 80 903 l 126 903 b 187 962 161 903 187 928 z m 281 929 l 234 929 l 234 950 l 274 950 l 274 975 l 234 975 l 234 996 l 279 996 l 279 1022 l 206 1022 l 206 903 l 281 903 z m 334 977 l 368 902 l 375 902 l 409 977 l 420 903 l 449 903 l 431 1022 l 402 1022 l 372 952 l 341 1022 l 313 1022 l 294 903 l 323 903 z m 524 998 b 559 962 544 998 559 983 b 524 927 559 942 544 927 b 489 962 504 927 489 942 b 524 998 489 983 504 998 z m 108 929 l 108 996 l 125 996 b 158 962 145 996 158 982 b 125 929 158 943 145 929 z m 107 42 l 586 738 l 586 750 l 59 750 l 59 708 l 516 708 l 36 13 l 36 0 l 596 0 l 596 42 z "},"ž":{"ha":633,"x_min":0,"x_max":0,"o":"m 524 900 b 587 962 560 900 587 927 b 524 1025 587 998 560 1025 b 460 962 487 1025 460 998 b 524 900 460 927 487 900 z m 187 962 b 126 1022 187 997 161 1022 l 80 1022 l 80 903 l 126 903 b 187 962 161 903 187 928 z m 281 929 l 234 929 l 234 950 l 274 950 l 274 975 l 234 975 l 234 996 l 279 996 l 279 1022 l 206 1022 l 206 903 l 281 903 z m 334 977 l 368 902 l 375 902 l 409 977 l 420 903 l 449 903 l 431 1022 l 402 1022 l 372 952 l 341 1022 l 313 1022 l 294 903 l 323 903 z m 524 998 b 559 962 544 998 559 983 b 524 927 559 942 544 927 b 489 962 504 927 489 942 b 524 998 489 983 504 998 z m 108 929 l 108 996 l 125 996 b 158 962 145 996 158 982 b 125 929 158 943 145 929 z m 107 42 l 586 738 l 586 750 l 59 750 l 59 708 l 516 708 l 36 13 l 36 0 l 596 0 l 596 42 z "},"ż":{"ha":633,"x_min":0,"x_max":0,"o":"m 524 900 b 587 962 560 900 587 927 b 524 1025 587 998 560 1025 b 460 962 487 1025 460 998 b 524 900 460 927 487 900 z m 187 962 b 126 1022 187 997 161 1022 l 80 1022 l 80 903 l 126 903 b 187 962 161 903 187 928 z m 281 929 l 234 929 l 234 950 l 274 950 l 274 975 l 234 975 l 234 996 l 279 996 l 279 1022 l 206 1022 l 206 903 l 281 903 z m 334 977 l 368 902 l 375 902 l 409 977 l 420 903 l 449 903 l 431 1022 l 402 1022 l 372 952 l 341 1022 l 313 1022 l 294 903 l 323 903 z m 524 998 b 559 962 544 998 559 983 b 524 927 559 942 544 927 b 489 962 504 927 489 942 b 524 998 489 983 504 998 z m 108 929 l 108 996 l 125 996 b 158 962 145 996 158 982 b 125 929 158 943 145 929 z m 107 42 l 586 738 l 586 750 l 59 750 l 59 708 l 516 708 l 36 13 l 36 0 l 596 0 l 596 42 z "},"ª":{"ha":522,"x_min":0,"x_max":0,"o":"m 261 740 b 383 863 331 740 383 792 b 261 987 383 935 331 987 b 139 863 191 987 139 935 b 261 740 139 792 191 740 z m 261 954 b 352 863 313 954 352 916 b 261 772 352 811 313 772 b 170 863 209 772 170 811 b 261 954 170 916 209 954 z m 143 641 l 312 564 l 143 487 l 143 456 l 379 417 l 379 450 l 199 480 l 374 560 l 374 568 l 199 649 l 379 678 l 379 711 l 143 672 z m 348 279 l 273 279 l 273 373 l 243 373 l 243 279 l 173 279 l 173 382 l 143 382 l 143 247 l 379 247 l 379 386 l 348 386 z m 261 200 b 143 80 192 200 143 149 l 143 0 l 379 0 l 379 80 b 261 200 379 149 329 200 z m 349 32 l 173 32 l 173 79 b 261 167 173 130 210 167 b 349 79 312 167 349 130 z "}}}
